<?xml version="1.0" encoding="UTF-8"?>
<!DOCTYPE svg PUBLIC "-//W3C//DTD SVG 1.1//EN" "http://www.w3.org/Graphics/SVG/1.1/DTD/svg11.dtd">
<svg xmlns="http://www.w3.org/2000/svg" version="1.1" width="500px" height="500px" style="shape-rendering:geometricPrecision; text-rendering:geometricPrecision; image-rendering:optimizeQuality; fill-rule:evenodd; clip-rule:evenodd" xmlns:xlink="http://www.w3.org/1999/xlink">
<g><path style="opacity:1" fill="#fbf682" d="M 238.5,-0.5 C 246.833,-0.5 255.167,-0.5 263.5,-0.5C 264.091,0.151487 264.757,0.818153 265.5,1.5C 270.792,2.49485 276.125,2.82818 281.5,2.5C 290.247,3.21244 298.914,4.21244 307.5,5.5C 307.833,5.5 308.167,5.5 308.5,5.5C 308.611,6.11742 308.944,6.61742 309.5,7C 311.473,7.49546 313.473,7.66212 315.5,7.5C 325.249,11.031 335.249,14.531 345.5,18C 348.347,20.3836 351.681,21.5503 355.5,21.5C 369.053,28.3758 382.387,35.7091 395.5,43.5C 395.5,44.5 395.5,45.5 395.5,46.5C 399.275,47.8867 402.941,49.5534 406.5,51.5C 406.414,52.4959 406.748,53.3292 407.5,54C 412.73,58.0769 418.064,61.9103 423.5,65.5C 425.233,69.5649 428.233,72.2316 432.5,73.5C 432.351,74.552 432.517,75.552 433,76.5C 434.769,78.6174 436.602,80.6174 438.5,82.5C 439.373,84.8863 440.873,86.8863 443,88.5C 443.202,90.2556 443.702,91.9223 444.5,93.5C 446.214,92.3915 446.881,93.0582 446.5,95.5C 447.5,95.5 448.5,95.5 449.5,95.5C 449.34,97.1992 449.506,98.8659 450,100.5C 450.893,99.2888 451.726,99.2888 452.5,100.5C 450.604,102.881 450.271,105.381 451.5,108C 449.128,109.471 449.128,110.637 451.5,111.5C 453.639,110.023 455.972,109.023 458.5,108.5C 456.403,114.308 458.403,117.641 464.5,118.5C 465.76,120.367 467.427,121.7 469.5,122.5C 469.523,124.927 470.023,127.26 471,129.5C 472.559,132.773 474.726,135.44 477.5,137.5C 477.34,139.199 477.506,140.866 478,142.5C 480.232,147.08 482.732,151.414 485.5,155.5C 486.434,156.568 486.768,157.901 486.5,159.5C 486.259,161.898 486.926,163.898 488.5,165.5C 488.769,170.264 490.102,174.597 492.5,178.5C 493.434,179.568 493.768,180.901 493.5,182.5C 493.336,185.187 493.503,187.854 494,190.5C 494.383,191.056 494.883,191.389 495.5,191.5C 495.335,194.518 495.502,197.518 496,200.5C 496.383,201.056 496.883,201.389 497.5,201.5C 497.5,201.833 497.5,202.167 497.5,202.5C 497.335,205.85 497.502,209.183 498,212.5C 498.232,213.737 498.732,214.737 499.5,215.5C 499.5,232.167 499.5,248.833 499.5,265.5C 498.778,265.918 498.278,266.584 498,267.5C 497.502,270.482 497.335,273.482 497.5,276.5C 497.784,278.415 497.451,280.081 496.5,281.5C 496.666,276.156 496.499,270.823 496,265.5C 494.13,280.389 491.13,295.055 487,309.5C 483.077,313.421 480.743,318.754 480,325.5C 475.821,335.229 470.988,344.562 465.5,353.5C 465.5,353.833 465.5,354.167 465.5,354.5C 459.986,358.491 456.153,363.824 454,370.5C 447.495,376.016 442.162,382.349 438,389.5C 431.5,394 426,399.5 421.5,406C 418.588,408.732 415.255,410.899 411.5,412.5C 407.468,416.174 403.468,419.841 399.5,423.5C 394.485,426.007 389.485,428.507 384.5,431C 383.663,432.011 383.33,433.178 383.5,434.5C 381.801,434.34 380.134,434.506 378.5,435C 377.178,436.976 375.512,438.476 373.5,439.5C 345.94,453.186 316.94,462.686 286.5,468C 273.64,468.451 260.807,469.285 248,470.5C 234.517,469.239 221.017,468.239 207.5,467.5C 164.217,458.853 124.884,441.519 89.5,415.5C 89.1667,415.5 88.8333,415.5 88.5,415.5C 85.1363,410.455 80.803,406.289 75.5,403C 69.8246,396.632 63.8246,390.465 57.5,384.5C 55.9547,383.548 54.288,383.215 52.5,383.5C 52.8034,380.412 51.4701,378.746 48.5,378.5C 49.1059,374.378 47.6059,371.378 44,369.5C 40.2471,360.987 35.2471,353.321 29,346.5C 28.5065,344.866 28.3398,343.199 28.5,341.5C 27.5,341.5 26.5,341.5 25.5,341.5C 25.196,338.478 24.696,335.478 24,332.5C 20.5558,325.15 16.5558,318.15 12,311.5C 9.81948,303.11 7.48615,294.776 5,286.5C 4.30643,290.554 4.47309,294.554 5.5,298.5C 4.83333,298.5 4.16667,298.5 3.5,298.5C 3.5,297.833 3.5,297.167 3.5,296.5C 3.45273,289.234 2.45273,282.234 0.5,275.5C 0.166667,275.5 -0.166667,275.5 -0.5,275.5C -0.5,255.5 -0.5,235.5 -0.5,215.5C 0.793048,214.158 1.62638,212.491 2,210.5C 3.70857,201.23 4.87524,191.897 5.5,182.5C 6.11742,182.389 6.61742,182.056 7,181.5C 7.49665,179.19 7.66331,176.857 7.5,174.5C 10.6862,168.605 12.6862,162.272 13.5,155.5C 16.8344,151.525 18.8344,146.858 19.5,141.5C 20.7942,140.71 21.9609,139.71 23,138.5C 24.3809,134.346 25.8809,130.346 27.5,126.5C 30.2933,122.971 33.1267,119.304 36,115.5C 36.49,114.207 36.6567,112.873 36.5,111.5C 36.3284,110.508 36.6618,109.842 37.5,109.5C 45.8731,99.7941 53.8731,89.7941 61.5,79.5C 68.1667,73.1667 74.8333,66.8333 81.5,60.5C 81.5,60.1667 81.5,59.8333 81.5,59.5C 82.552,59.6495 83.552,59.4828 84.5,59C 87.4315,56.7155 90.0982,54.2155 92.5,51.5C 93.8734,51.6567 95.2068,51.49 96.5,51C 102.934,46.4669 109.268,41.9669 115.5,37.5C 120.648,34.4233 125.648,31.09 130.5,27.5C 134.019,27.7407 136.685,26.4074 138.5,23.5C 142.165,23.4982 145.165,22.1648 147.5,19.5C 159.706,15.79 171.706,11.79 183.5,7.5C 186.206,7.4249 188.873,7.09157 191.5,6.5C 204.762,5.38608 218.095,3.88608 231.5,2C 234.104,1.60966 236.438,0.776331 238.5,-0.5 Z"/></g>
<g><path style="opacity:0.769" fill="#fcfac1" d="M 221.5,-0.5 C 224.167,-0.5 226.833,-0.5 229.5,-0.5C 229.389,0.117425 229.056,0.617425 228.5,1C 216.146,2.47108 203.812,3.97108 191.5,5.5C 201.412,3.03668 211.412,1.03668 221.5,-0.5 Z"/></g>
<g><path style="opacity:1" fill="#faf69c" d="M 263.5,-0.5 C 267.167,-0.5 270.833,-0.5 274.5,-0.5C 276.691,0.86856 279.025,1.86856 281.5,2.5C 276.125,2.82818 270.792,2.49485 265.5,1.5C 264.757,0.818153 264.091,0.151487 263.5,-0.5 Z"/></g>
<g><path style="opacity:0.608" fill="#fdfbc8" d="M 274.5,-0.5 C 275.5,-0.5 276.5,-0.5 277.5,-0.5C 287.588,1.03668 297.588,3.03668 307.5,5.5C 298.914,4.21244 290.247,3.21244 281.5,2.5C 279.025,1.86856 276.691,0.86856 274.5,-0.5 Z"/></g>
<g><path style="opacity:1" fill="#f7f692" d="M 229.5,-0.5 C 232.5,-0.5 235.5,-0.5 238.5,-0.5C 236.438,0.776331 234.104,1.60966 231.5,2C 218.095,3.88608 204.762,5.38608 191.5,6.5C 191.5,6.16667 191.5,5.83333 191.5,5.5C 203.812,3.97108 216.146,2.47108 228.5,1C 229.056,0.617425 229.389,0.117425 229.5,-0.5 Z"/></g>
<g><path style="opacity:0.757" fill="#fefbca" d="M 191.5,5.5 C 191.5,5.83333 191.5,6.16667 191.5,6.5C 188.873,7.09157 186.206,7.4249 183.5,7.5C 185.905,6.2318 188.572,5.56513 191.5,5.5 Z"/></g>
<g><path style="opacity:0.076" fill="#fdfbd7" d="M 308.5,5.5 C 311.067,5.72148 313.401,6.38815 315.5,7.5C 313.473,7.66212 311.473,7.49546 309.5,7C 308.944,6.61742 308.611,6.11742 308.5,5.5 Z"/></g>
<g><path style="opacity:0.922" fill="#fdfbcb" d="M 183.5,7.5 C 171.706,11.79 159.706,15.79 147.5,19.5C 158.901,13.9762 170.901,9.97621 183.5,7.5 Z"/></g>
<g><path style="opacity:0.18" fill="#fdfbca" d="M 315.5,7.5 C 329.648,10.031 342.981,14.6977 355.5,21.5C 351.681,21.5503 348.347,20.3836 345.5,18C 335.249,14.531 325.249,11.031 315.5,7.5 Z"/></g>
<g><path style="opacity:0.871" fill="#fcfac5" d="M 147.5,19.5 C 145.165,22.1648 142.165,23.4982 138.5,23.5C 141.256,21.7962 144.256,20.4629 147.5,19.5 Z"/></g>
<g><path style="opacity:0.929" fill="#fbf9c1" d="M 138.5,23.5 C 136.685,26.4074 134.019,27.7407 130.5,27.5C 132.849,25.659 135.515,24.3257 138.5,23.5 Z"/></g>
<g><path style="opacity:0.859" fill="#fdfbca" d="M 130.5,27.5 C 125.648,31.09 120.648,34.4233 115.5,37.5C 114.167,37.8333 112.833,38.1667 111.5,38.5C 117.007,33.5743 123.34,29.9076 130.5,27.5 Z"/></g>
<g><path style="opacity:0.827" fill="#fcfbc7" d="M 355.5,21.5 C 370.083,26.7868 383.416,34.1201 395.5,43.5C 382.387,35.7091 369.053,28.3758 355.5,21.5 Z"/></g>
<g><path style="opacity:0.592" fill="#fefcd6" d="M 106.5,41.5 C 106.027,42.9063 105.027,43.573 103.5,43.5C 103.973,42.0937 104.973,41.427 106.5,41.5 Z"/></g>
<g><path style="opacity:1" fill="#faf7ab" d="M 115.5,37.5 C 109.268,41.9669 102.934,46.4669 96.5,51C 95.2068,51.49 93.8734,51.6567 92.5,51.5C 95.6012,48.0669 99.2679,45.4002 103.5,43.5C 105.027,43.573 106.027,42.9063 106.5,41.5C 107.659,39.7497 109.326,38.7497 111.5,38.5C 112.833,38.1667 114.167,37.8333 115.5,37.5 Z"/></g>
<g><path style="opacity:0.855" fill="#fcfabe" d="M 395.5,43.5 C 399.732,45.4002 403.399,48.0669 406.5,51.5C 402.941,49.5534 399.275,47.8867 395.5,46.5C 395.5,45.5 395.5,44.5 395.5,43.5 Z"/></g>
<g><path style="opacity:0.361" fill="#fefecd" d="M 92.5,51.5 C 90.0982,54.2155 87.4315,56.7155 84.5,59C 83.552,59.4828 82.552,59.6495 81.5,59.5C 84.6267,56.1021 88.2934,53.4354 92.5,51.5 Z"/></g>
<g><path style="opacity:0.337" fill="#fcfbc3" d="M 406.5,51.5 C 408.595,52.412 410.595,53.5787 412.5,55C 416.365,58.3668 420.032,61.8668 423.5,65.5C 418.064,61.9103 412.73,58.0769 407.5,54C 406.748,53.3292 406.414,52.4959 406.5,51.5 Z"/></g>
<g><path style="opacity:0.835" fill="#fcfacd" d="M 423.5,65.5 C 427.105,67.4719 430.105,70.1385 432.5,73.5C 428.233,72.2316 425.233,69.5649 423.5,65.5 Z"/></g>
<g><path style="opacity:0.298" fill="#fefcd2" d="M 81.5,60.5 C 74.8333,66.8333 68.1667,73.1667 61.5,79.5C 63.8926,75.5977 66.8926,72.0977 70.5,69C 74.0613,65.9274 77.728,63.0941 81.5,60.5 Z"/></g>
<g><path style="opacity:0.871" fill="#fcfac6" d="M 432.5,73.5 C 437.2,78.199 441.534,83.199 445.5,88.5C 443.167,86.5 440.833,84.5 438.5,82.5C 436.602,80.6174 434.769,78.6174 433,76.5C 432.517,75.552 432.351,74.552 432.5,73.5 Z"/></g>
<g><path style="opacity:0.671" fill="#fdfbcb" d="M 61.5,79.5 C 53.8731,89.7941 45.8731,99.7941 37.5,109.5C 40.0845,105.067 42.9178,100.734 46,96.5C 50.7167,90.3813 55.8833,84.7146 61.5,79.5 Z"/></g>
<g><path style="opacity:0.396" fill="#fdfcc3" d="M 445.5,88.5 C 447.587,89.5846 448.92,91.2512 449.5,93.5C 447.413,92.4154 446.08,90.7488 445.5,88.5 Z"/></g>
<g><path style="opacity:0.643" fill="#fdfdcb" d="M 453.5,98.5 C 455.262,99.2623 456.262,100.596 456.5,102.5C 454.738,101.738 453.738,100.404 453.5,98.5 Z"/></g>
<g><path style="opacity:1" fill="#faf68c" d="M 438.5,82.5 C 440.833,84.5 443.167,86.5 445.5,88.5C 446.08,90.7488 447.413,92.4154 449.5,93.5C 451.207,94.8726 452.54,96.5393 453.5,98.5C 453.738,100.404 454.738,101.738 456.5,102.5C 456.343,103.873 456.51,105.207 457,106.5C 458.588,108.59 460.422,110.257 462.5,111.5C 463.167,111.5 463.5,111.833 463.5,112.5C 463.517,114.565 463.85,116.565 464.5,118.5C 458.403,117.641 456.403,114.308 458.5,108.5C 455.972,109.023 453.639,110.023 451.5,111.5C 449.128,110.637 449.128,109.471 451.5,108C 450.271,105.381 450.604,102.881 452.5,100.5C 451.726,99.2888 450.893,99.2888 450,100.5C 449.506,98.8659 449.34,97.1992 449.5,95.5C 448.5,95.5 447.5,95.5 446.5,95.5C 446.881,93.0582 446.214,92.3915 444.5,93.5C 443.702,91.9223 443.202,90.2556 443,88.5C 440.873,86.8863 439.373,84.8863 438.5,82.5 Z"/></g>
<g><path style="opacity:0.949" fill="#faf9b7" d="M 456.5,102.5 C 459.277,104.951 461.277,107.951 462.5,111.5C 460.422,110.257 458.588,108.59 457,106.5C 456.51,105.207 456.343,103.873 456.5,102.5 Z"/></g>
<g><path style="opacity:1" fill="#fbf8b2" d="M 463.5,112.5 C 466,115.494 468,118.827 469.5,122.5C 467.427,121.7 465.76,120.367 464.5,118.5C 463.85,116.565 463.517,114.565 463.5,112.5 Z"/></g>
<g><path style="opacity:0.969" fill="#fbf9bc" d="M 36.5,111.5 C 36.6567,112.873 36.49,114.207 36,115.5C 33.1267,119.304 30.2933,122.971 27.5,126.5C 29.246,120.662 32.246,115.662 36.5,111.5 Z"/></g>
<g><path style="opacity:1" fill="#fbf8b8" d="M 469.5,122.5 C 472.927,127.016 475.593,132.016 477.5,137.5C 474.726,135.44 472.559,132.773 471,129.5C 470.023,127.26 469.523,124.927 469.5,122.5 Z"/></g>
<g><path style="opacity:0.239" fill="#fcfbca" d="M 27.5,126.5 C 25.8809,130.346 24.3809,134.346 23,138.5C 21.9609,139.71 20.7942,140.71 19.5,141.5C 21.4068,136.016 24.0734,131.016 27.5,126.5 Z"/></g>
<g><path style="opacity:0.792" fill="#fdfac9" d="M 477.5,137.5 C 480.731,143.173 483.398,149.173 485.5,155.5C 482.732,151.414 480.232,147.08 478,142.5C 477.506,140.866 477.34,139.199 477.5,137.5 Z"/></g>
<g><path style="opacity:0.533" fill="#fefccb" d="M 19.5,141.5 C 18.8344,146.858 16.8344,151.525 13.5,155.5C 14.9884,150.533 16.9884,145.866 19.5,141.5 Z"/></g>
<g><path style="opacity:0.8" fill="#fcfbc4" d="M 13.5,155.5 C 12.6862,162.272 10.6862,168.605 7.5,174.5C 9.05412,167.926 11.0541,161.593 13.5,155.5 Z"/></g>
<g><path style="opacity:0.537" fill="#fdfcc7" d="M 486.5,159.5 C 488.074,161.102 488.741,163.102 488.5,165.5C 486.926,163.898 486.259,161.898 486.5,159.5 Z"/></g>
<g><path style="opacity:0.682" fill="#fdfbc6" d="M 488.5,165.5 C 490.61,169.502 491.943,173.835 492.5,178.5C 490.102,174.597 488.769,170.264 488.5,165.5 Z"/></g>
<g><path style="opacity:0.427" fill="#fcfbc4" d="M 7.5,174.5 C 7.66331,176.857 7.49665,179.19 7,181.5C 6.61742,182.056 6.11742,182.389 5.5,182.5C 5.56513,179.572 6.2318,176.905 7.5,174.5 Z"/></g>
<g><path style="opacity:0.937" fill="#fcf8bb" d="M 493.5,182.5 C 494.657,185.273 495.324,188.273 495.5,191.5C 494.883,191.389 494.383,191.056 494,190.5C 493.503,187.854 493.336,185.187 493.5,182.5 Z"/></g>
<g><path style="opacity:1" fill="#faf8b5" d="M 5.5,182.5 C 4.87524,191.897 3.70857,201.23 2,210.5C 1.62638,212.491 0.793048,214.158 -0.5,215.5C -0.5,213.833 -0.5,212.167 -0.5,210.5C 0.858692,201.041 2.85869,191.707 5.5,182.5 Z"/></g>
<g><path style="opacity:0.886" fill="#fbf9c6" d="M 495.5,191.5 C 496.785,194.589 497.451,197.922 497.5,201.5C 496.883,201.389 496.383,201.056 496,200.5C 495.502,197.518 495.335,194.518 495.5,191.5 Z"/></g>
<g><path style="opacity:0.686" fill="#fefccf" d="M 497.5,202.5 C 498.167,205.167 498.833,207.833 499.5,210.5C 499.5,212.167 499.5,213.833 499.5,215.5C 498.732,214.737 498.232,213.737 498,212.5C 497.502,209.183 497.335,205.85 497.5,202.5 Z"/></g>
<g><path style="opacity:0.863" fill="#f9f8a2" d="M 499.5,265.5 C 499.5,268.833 499.5,272.167 499.5,275.5C 498.833,275.5 498.5,275.833 498.5,276.5C 498.167,276.5 497.833,276.5 497.5,276.5C 497.335,273.482 497.502,270.482 498,267.5C 498.278,266.584 498.778,265.918 499.5,265.5 Z"/></g>
<g><path style="opacity:0.392" fill="#fefcbf" d="M 497.5,276.5 C 497.833,276.5 498.167,276.5 498.5,276.5C 498.344,283.422 497.344,290.089 495.5,296.5C 495.503,291.473 495.836,286.473 496.5,281.5C 497.451,280.081 497.784,278.415 497.5,276.5 Z"/></g>
<g><path style="opacity:0.718" fill="#fdfcc2" d="M 0.5,275.5 C 2.45273,282.234 3.45273,289.234 3.5,296.5C 1.54727,289.766 0.547269,282.766 0.5,275.5 Z"/></g>
<g><path style="opacity:0.812" fill="#fcfabf" d="M 3.5,298.5 C 4.16667,298.5 4.83333,298.5 5.5,298.5C 5.5,298.833 5.5,299.167 5.5,299.5C 5.5,301.5 5.5,303.5 5.5,305.5C 4.59334,303.343 3.92668,301.01 3.5,298.5 Z"/></g>
<g><path style="opacity:0.376" fill="#fefac0" d="M 495.5,296.5 C 495.324,299.727 494.657,302.727 493.5,305.5C 493.068,302.123 493.735,299.123 495.5,296.5 Z"/></g>
<g><path style="opacity:1" fill="#faf87a" d="M 5.5,299.5 C 8.13412,306.432 9.80079,313.765 10.5,321.5C 10.1667,321.5 9.83333,321.5 9.5,321.5C 9.70621,318.505 9.03954,315.838 7.5,313.5C 7.82943,310.772 7.16276,308.438 5.5,306.5C 5.5,306.167 5.5,305.833 5.5,305.5C 5.5,303.5 5.5,301.5 5.5,299.5 Z"/></g>
<g><path style="opacity:0.584" fill="#fefdbe" d="M 5.5,306.5 C 7.16276,308.438 7.82943,310.772 7.5,313.5C 6.38815,311.401 5.72148,309.067 5.5,306.5 Z"/></g>
<g><path style="opacity:0.573" fill="#fdfbb9" d="M 493.5,306.5 C 492.589,312.493 490.923,318.16 488.5,323.5C 488.848,319.742 489.515,316.076 490.5,312.5C 490.94,310.156 491.94,308.156 493.5,306.5 Z"/></g>
<g><path style="opacity:0.271" fill="#fffdce" d="M 7.5,313.5 C 9.03954,315.838 9.70621,318.505 9.5,321.5C 8.2318,319.095 7.56513,316.428 7.5,313.5 Z"/></g>
<g><path style="opacity:1" fill="#fdfa63" d="M 490.5,312.5 C 489.515,316.076 488.848,319.742 488.5,323.5C 487.417,323.539 486.417,323.873 485.5,324.5C 483.851,332.13 481.351,339.463 478,346.5C 475.949,344.191 476.116,342.024 478.5,340C 477.484,339.481 476.818,338.647 476.5,337.5C 480.158,326.939 484.324,316.606 489,306.5C 489.333,306.167 489.667,305.833 490,305.5C 490.497,307.81 490.663,310.143 490.5,312.5 Z"/></g>
<g><path style="opacity:0.902" fill="#fcfbba" d="M 9.5,321.5 C 9.83333,321.5 10.1667,321.5 10.5,321.5C 12.9216,326.835 14.5883,332.502 15.5,338.5C 13.054,333.083 11.054,327.417 9.5,321.5 Z"/></g>
<g><path style="opacity:1" fill="#fdf968" d="M 88.5,415.5 C 84.2825,412.027 79.6159,409.193 74.5,407C 73.6198,405.644 73.2865,404.144 73.5,402.5C 68.5907,400.76 65.0907,397.427 63,392.5C 58.2113,387.922 53.2113,383.589 48,379.5C 47.0819,382.063 47.5819,384.23 49.5,386C 47.2922,388.263 47.9589,389.929 51.5,391C 50.062,391.219 48.7287,391.719 47.5,392.5C 50.289,395.745 52.289,399.412 53.5,403.5C 52.8333,403.5 52.1667,403.5 51.5,403.5C 51.5,403.167 51.5,402.833 51.5,402.5C 47.2678,395.718 42.7678,389.051 38,382.5C 32.9788,372.446 27.4788,362.779 21.5,353.5C 21.1277,349.703 19.7943,346.37 17.5,343.5C 17.7709,341.62 17.1042,340.287 15.5,339.5C 15.5,339.167 15.5,338.833 15.5,338.5C 14.5883,332.502 12.9216,326.835 10.5,321.5C 9.80079,313.765 8.13412,306.432 5.5,299.5C 5.5,299.167 5.5,298.833 5.5,298.5C 4.47309,294.554 4.30643,290.554 5,286.5C 7.48615,294.776 9.81948,303.11 12,311.5C 16.5558,318.15 20.5558,325.15 24,332.5C 24.696,335.478 25.196,338.478 25.5,341.5C 26.5,341.5 27.5,341.5 28.5,341.5C 28.3398,343.199 28.5065,344.866 29,346.5C 35.2471,353.321 40.2471,360.987 44,369.5C 47.6059,371.378 49.1059,374.378 48.5,378.5C 51.4701,378.746 52.8034,380.412 52.5,383.5C 54.288,383.215 55.9547,383.548 57.5,384.5C 63.8246,390.465 69.8246,396.632 75.5,403C 80.803,406.289 85.1363,410.455 88.5,415.5 Z"/></g>
<g><path style="opacity:0.624" fill="#fdfcbd" d="M 487.5,327.5 C 487.125,329.698 486.458,331.698 485.5,333.5C 485.054,330.99 485.72,328.99 487.5,327.5 Z"/></g>
<g><path style="opacity:0.267" fill="#fffed3" d="M 485.5,333.5 C 485.405,335.786 484.738,337.786 483.5,339.5C 483.259,337.102 483.926,335.102 485.5,333.5 Z"/></g>
<g><path style="opacity:0.302" fill="#fefec8" d="M 15.5,339.5 C 17.1042,340.287 17.7709,341.62 17.5,343.5C 16.3263,342.486 15.6596,341.153 15.5,339.5 Z"/></g>
<g><path style="opacity:0.306" fill="#fffdc7" d="M 483.5,339.5 C 483.34,341.153 482.674,342.486 481.5,343.5C 481.229,341.62 481.896,340.287 483.5,339.5 Z"/></g>
<g><path style="opacity:0.125" fill="#fffdc4" d="M 17.5,343.5 C 19.7943,346.37 21.1277,349.703 21.5,353.5C 19.5968,350.47 18.2635,347.137 17.5,343.5 Z"/></g>
<g><path style="opacity:0.337" fill="#fffcbd" d="M 481.5,343.5 C 480.737,347.137 479.403,350.47 477.5,353.5C 477.45,349.57 478.783,346.237 481.5,343.5 Z"/></g>
<g><path style="opacity:1" fill="#fdf870" d="M 496.5,281.5 C 495.836,286.473 495.503,291.473 495.5,296.5C 493.735,299.123 493.068,302.123 493.5,305.5C 493.5,305.833 493.5,306.167 493.5,306.5C 491.94,308.156 490.94,310.156 490.5,312.5C 490.663,310.143 490.497,307.81 490,305.5C 489.667,305.833 489.333,306.167 489,306.5C 484.324,316.606 480.158,326.939 476.5,337.5C 476.818,338.647 477.484,339.481 478.5,340C 476.116,342.024 475.949,344.191 478,346.5C 481.351,339.463 483.851,332.13 485.5,324.5C 486.417,323.873 487.417,323.539 488.5,323.5C 488.768,325.099 488.434,326.432 487.5,327.5C 485.72,328.99 485.054,330.99 485.5,333.5C 483.926,335.102 483.259,337.102 483.5,339.5C 481.896,340.287 481.229,341.62 481.5,343.5C 478.783,346.237 477.45,349.57 477.5,353.5C 475.824,354.183 475.157,355.517 475.5,357.5C 475.167,357.5 474.833,357.5 474.5,357.5C 475.517,353.219 473.85,350.886 469.5,350.5C 468.148,351.524 466.815,352.524 465.5,353.5C 470.988,344.562 475.821,335.229 480,325.5C 480.743,318.754 483.077,313.421 487,309.5C 491.13,295.055 494.13,280.389 496,265.5C 496.499,270.823 496.666,276.156 496.5,281.5 Z"/></g>
<g><path style="opacity:0.024" fill="#fefdc5" d="M 477.5,353.5 C 477.34,355.153 476.674,356.486 475.5,357.5C 475.157,355.517 475.824,354.183 477.5,353.5 Z"/></g>
<g><path style="opacity:0.925" fill="#fcf9ac" d="M 474.5,357.5 C 474.833,357.5 475.167,357.5 475.5,357.5C 474.674,360.485 473.341,363.151 471.5,365.5C 471.018,362.169 472.018,359.503 474.5,357.5 Z"/></g>
<g><path style="opacity:0.565" fill="#fffdc7" d="M 471.5,365.5 C 471.34,367.153 470.674,368.486 469.5,369.5C 469.157,367.517 469.824,366.183 471.5,365.5 Z"/></g>
<g><path style="opacity:0.788" fill="#fefcb7" d="M 21.5,353.5 C 27.4788,362.779 32.9788,372.446 38,382.5C 42.7678,389.051 47.2678,395.718 51.5,402.5C 38.7432,388.012 28.7432,371.679 21.5,353.5 Z"/></g>
<g><path style="opacity:0.282" fill="#fffdca" d="M 468.5,371.5 C 466.668,375.836 464.335,379.836 461.5,383.5C 461.704,381.315 462.37,379.315 463.5,377.5C 464.72,375.019 466.386,373.019 468.5,371.5 Z"/></g>
<g><path style="opacity:1" fill="#fbf88f" d="M 463.5,377.5 C 462.37,379.315 461.704,381.315 461.5,383.5C 461.167,383.5 460.833,383.5 460.5,383.5C 460.025,380.687 461.025,378.687 463.5,377.5 Z"/></g>
<g><path style="opacity:0.38" fill="#fffbbf" d="M 460.5,383.5 C 460.833,383.5 461.167,383.5 461.5,383.5C 459.975,386.563 457.975,389.23 455.5,391.5C 456.436,388.329 458.103,385.662 460.5,383.5 Z"/></g>
<g><path style="opacity:0.298" fill="#fefcbe" d="M 455.5,391.5 C 450.653,399.196 445.32,406.529 439.5,413.5C 443.641,405.35 448.974,398.017 455.5,391.5 Z"/></g>
<g><path style="opacity:1" fill="#fdf871" d="M 465.5,354.5 C 460.664,363.504 454.83,371.837 448,379.5C 445.352,385.514 441.352,390.514 436,394.5C 435.342,396.108 435.842,397.275 437.5,398C 435.793,398.195 434.126,398.195 432.5,398C 427.985,402.348 423.651,406.848 419.5,411.5C 416.959,412.937 414.292,414.103 411.5,415C 407.58,418.111 403.58,420.944 399.5,423.5C 403.468,419.841 407.468,416.174 411.5,412.5C 415.255,410.899 418.588,408.732 421.5,406C 426,399.5 431.5,394 438,389.5C 442.162,382.349 447.495,376.016 454,370.5C 456.153,363.824 459.986,358.491 465.5,354.5 Z"/></g>
<g><path style="opacity:1" fill="#fef962" d="M 474.5,357.5 C 472.018,359.503 471.018,362.169 471.5,365.5C 469.824,366.183 469.157,367.517 469.5,369.5C 469.167,370.167 468.833,370.833 468.5,371.5C 466.386,373.019 464.72,375.019 463.5,377.5C 461.025,378.687 460.025,380.687 460.5,383.5C 458.103,385.662 456.436,388.329 455.5,391.5C 448.974,398.017 443.641,405.35 439.5,413.5C 435.13,414.536 432.464,417.203 431.5,421.5C 430.5,423.167 429.167,424.5 427.5,425.5C 419.298,431.27 411.964,437.937 405.5,445.5C 401.73,446.05 399.063,448.05 397.5,451.5C 394.802,451.845 392.802,453.178 391.5,455.5C 389.22,456.64 386.886,457.807 384.5,459C 383.748,459.671 383.414,460.504 383.5,461.5C 381.62,461.229 380.287,461.896 379.5,463.5C 375.361,464.335 372.028,466.335 369.5,469.5C 362.745,471.708 356.079,474.208 349.5,477C 348.748,477.671 348.414,478.504 348.5,479.5C 346.801,479.34 345.134,479.506 343.5,480C 336.853,482.936 330.186,485.769 323.5,488.5C 311.965,489.026 300.965,491.36 290.5,495.5C 287.545,496.159 284.545,496.492 281.5,496.5C 273.47,496.478 265.47,496.978 257.5,498C 256.584,498.278 255.918,498.778 255.5,499.5C 249.833,499.5 244.167,499.5 238.5,499.5C 235.512,497.86 232.179,497.026 228.5,497C 223.511,496.501 218.511,496.334 213.5,496.5C 211.565,495.85 209.565,495.517 207.5,495.5C 201.791,493.495 195.791,492.495 189.5,492.5C 187.901,492.768 186.568,492.434 185.5,491.5C 182.548,489.59 179.214,488.59 175.5,488.5C 173.898,486.926 171.898,486.259 169.5,486.5C 166.749,484.025 163.416,483.025 159.5,483.5C 154.109,479.812 148.109,477.145 141.5,475.5C 139.384,473.271 137.051,471.271 134.5,469.5C 131.988,468.205 129.321,467.539 126.5,467.5C 122.64,462.731 117.64,459.731 111.5,458.5C 110.738,456.738 109.404,455.738 107.5,455.5C 107.027,454.094 106.027,453.427 104.5,453.5C 104.027,452.094 103.027,451.427 101.5,451.5C 100.415,449.413 98.7488,448.08 96.5,447.5C 95.7377,445.738 94.4044,444.738 92.5,444.5C 91.4154,442.413 89.7488,441.08 87.5,440.5C 86.7377,438.738 85.4044,437.738 83.5,437.5C 83.5,437.167 83.5,436.833 83.5,436.5C 80.7689,432.766 77.4356,429.766 73.5,427.5C 73.5,426.167 72.8333,425.5 71.5,425.5C 71.1667,423.167 69.8333,421.833 67.5,421.5C 67.5123,418.858 66.179,417.525 63.5,417.5C 62.6618,417.158 62.3284,416.492 62.5,415.5C 61.1182,413.451 59.4516,411.785 57.5,410.5C 56.5361,407.926 55.2028,405.593 53.5,403.5C 52.289,399.412 50.289,395.745 47.5,392.5C 48.7287,391.719 50.062,391.219 51.5,391C 47.9589,389.929 47.2922,388.263 49.5,386C 47.5819,384.23 47.0819,382.063 48,379.5C 53.2113,383.589 58.2113,387.922 63,392.5C 65.0907,397.427 68.5907,400.76 73.5,402.5C 73.2865,404.144 73.6198,405.644 74.5,407C 79.6159,409.193 84.2825,412.027 88.5,415.5C 88.8333,415.5 89.1667,415.5 89.5,415.5C 90.9274,418.764 93.2608,421.264 96.5,423C 107.463,429.944 118.463,436.944 129.5,444C 150.805,453.346 172.805,461.013 195.5,467C 199.486,467.499 203.486,467.666 207.5,467.5C 214.458,469.253 221.791,470.42 229.5,471C 268.134,473.455 305.467,468.455 341.5,456C 350.889,451.646 360.389,447.479 370,443.5C 371.402,442.355 372.569,441.022 373.5,439.5C 375.512,438.476 377.178,436.976 378.5,435C 380.134,434.506 381.801,434.34 383.5,434.5C 383.33,433.178 383.663,432.011 384.5,431C 389.485,428.507 394.485,426.007 399.5,423.5C 403.58,420.944 407.58,418.111 411.5,415C 414.292,414.103 416.959,412.937 419.5,411.5C 423.651,406.848 427.985,402.348 432.5,398C 434.126,398.195 435.793,398.195 437.5,398C 435.842,397.275 435.342,396.108 436,394.5C 441.352,390.514 445.352,385.514 448,379.5C 454.83,371.837 460.664,363.504 465.5,354.5C 465.5,354.167 465.5,353.833 465.5,353.5C 466.815,352.524 468.148,351.524 469.5,350.5C 473.85,350.886 475.517,353.219 474.5,357.5 Z"/></g>
<g><path style="opacity:0.988" fill="#fdfcab" d="M 51.5,403.5 C 52.1667,403.5 52.8333,403.5 53.5,403.5C 55.2028,405.593 56.5361,407.926 57.5,410.5C 55.2733,408.393 53.2733,406.06 51.5,403.5 Z"/></g>
<g><path style="opacity:0.255" fill="#fffec8" d="M 57.5,410.5 C 59.4516,411.785 61.1182,413.451 62.5,415.5C 59.856,414.856 58.1894,413.189 57.5,410.5 Z"/></g>
<g><path style="opacity:0.988" fill="#fcfbaa" d="M 63.5,417.5 C 66.179,417.525 67.5123,418.858 67.5,421.5C 65.8333,420.5 64.5,419.167 63.5,417.5 Z"/></g>
<g><path style="opacity:0.671" fill="#fdfbb8" d="M 439.5,413.5 C 437.167,416.5 434.5,419.167 431.5,421.5C 432.464,417.203 435.13,414.536 439.5,413.5 Z"/></g>
<g><path style="opacity:0.827" fill="#fdfbb5" d="M 67.5,421.5 C 69.8333,421.833 71.1667,423.167 71.5,425.5C 69.8333,424.5 68.5,423.167 67.5,421.5 Z"/></g>
<g><path style="opacity:0.18" fill="#fffdcb" d="M 71.5,425.5 C 72.8333,425.5 73.5,426.167 73.5,427.5C 72.1667,427.5 71.5,426.833 71.5,425.5 Z"/></g>
<g><path style="opacity:0.863" fill="#fefbba" d="M 73.5,427.5 C 77.4356,429.766 80.7689,432.766 83.5,436.5C 79.5644,434.234 76.2311,431.234 73.5,427.5 Z"/></g>
<g><path style="opacity:0.686" fill="#fefbb5" d="M 427.5,425.5 C 421.09,433.246 413.757,439.913 405.5,445.5C 411.964,437.937 419.298,431.27 427.5,425.5 Z"/></g>
<g><path style="opacity:0.294" fill="#fffed4" d="M 83.5,437.5 C 85.4044,437.738 86.7377,438.738 87.5,440.5C 85.5956,440.262 84.2623,439.262 83.5,437.5 Z"/></g>
<g><path style="opacity:0.62" fill="#fdfdc4" d="M 87.5,440.5 C 89.7488,441.08 91.4154,442.413 92.5,444.5C 90.2512,443.92 88.5846,442.587 87.5,440.5 Z"/></g>
<g><path style="opacity:1" fill="#fdf775" d="M 373.5,439.5 C 372.569,441.022 371.402,442.355 370,443.5C 360.389,447.479 350.889,451.646 341.5,456C 305.467,468.455 268.134,473.455 229.5,471C 221.791,470.42 214.458,469.253 207.5,467.5C 221.017,468.239 234.517,469.239 248,470.5C 260.807,469.285 273.64,468.451 286.5,468C 316.94,462.686 345.94,453.186 373.5,439.5 Z"/></g>
<g><path style="opacity:0.769" fill="#fdfdbb" d="M 92.5,444.5 C 94.4044,444.738 95.7377,445.738 96.5,447.5C 94.5956,447.262 93.2623,446.262 92.5,444.5 Z"/></g>
<g><path style="opacity:0.718" fill="#fefbbc" d="M 96.5,447.5 C 98.7488,448.08 100.415,449.413 101.5,451.5C 99.2512,450.92 97.5846,449.587 96.5,447.5 Z"/></g>
<g><path style="opacity:0.722" fill="#fcfbb6" d="M 405.5,445.5 C 403.122,447.878 400.455,449.878 397.5,451.5C 399.063,448.05 401.73,446.05 405.5,445.5 Z"/></g>
<g><path style="opacity:0.561" fill="#fffdc8" d="M 101.5,451.5 C 103.027,451.427 104.027,452.094 104.5,453.5C 102.973,453.573 101.973,452.906 101.5,451.5 Z"/></g>
<g><path style="opacity:1" fill="#fdf774" d="M 89.5,415.5 C 124.884,441.519 164.217,458.853 207.5,467.5C 203.486,467.666 199.486,467.499 195.5,467C 172.805,461.013 150.805,453.346 129.5,444C 118.463,436.944 107.463,429.944 96.5,423C 93.2608,421.264 90.9274,418.764 89.5,415.5 Z"/></g>
<g><path style="opacity:0.388" fill="#fefbc0" d="M 104.5,453.5 C 106.027,453.427 107.027,454.094 107.5,455.5C 105.973,455.573 104.973,454.906 104.5,453.5 Z"/></g>
<g><path style="opacity:0.055" fill="#fffcc6" d="M 397.5,451.5 C 395.853,453.326 393.853,454.66 391.5,455.5C 392.802,453.178 394.802,451.845 397.5,451.5 Z"/></g>
<g><path style="opacity:0.749" fill="#fffec6" d="M 107.5,455.5 C 109.404,455.738 110.738,456.738 111.5,458.5C 109.596,458.262 108.262,457.262 107.5,455.5 Z"/></g>
<g><path style="opacity:0.039" fill="#fffdc8" d="M 391.5,455.5 C 389.23,457.975 386.563,459.975 383.5,461.5C 383.414,460.504 383.748,459.671 384.5,459C 386.886,457.807 389.22,456.64 391.5,455.5 Z"/></g>
<g><path style="opacity:0.016" fill="#fffdcb" d="M 383.5,461.5 C 382.486,462.674 381.153,463.34 379.5,463.5C 380.287,461.896 381.62,461.229 383.5,461.5 Z"/></g>
<g><path style="opacity:0.933" fill="#fcfaad" d="M 111.5,458.5 C 117.64,459.731 122.64,462.731 126.5,467.5C 120.708,465.685 115.708,462.685 111.5,458.5 Z"/></g>
<g><path style="opacity:0.271" fill="#fefcc0" d="M 379.5,463.5 C 376.534,465.988 373.201,467.988 369.5,469.5C 372.028,466.335 375.361,464.335 379.5,463.5 Z"/></g>
<g><path style="opacity:1" fill="#fbfa99" d="M 126.5,467.5 C 129.321,467.539 131.988,468.205 134.5,469.5C 137.051,471.271 139.384,473.271 141.5,475.5C 136.016,473.593 131.016,470.927 126.5,467.5 Z"/></g>
<g><path style="opacity:0.635" fill="#fefbb2" d="M 369.5,469.5 C 362.923,473.621 355.923,476.954 348.5,479.5C 348.414,478.504 348.748,477.671 349.5,477C 356.079,474.208 362.745,471.708 369.5,469.5 Z"/></g>
<g><path style="opacity:0.894" fill="#fefcb9" d="M 141.5,475.5 C 148.109,477.145 154.109,479.812 159.5,483.5C 153.173,481.398 147.173,478.731 141.5,475.5 Z"/></g>
<g><path style="opacity:0.698" fill="#fefcb3" d="M 159.5,483.5 C 163.416,483.025 166.749,484.025 169.5,486.5C 165.838,486.277 162.505,485.277 159.5,483.5 Z"/></g>
<g><path style="opacity:0.051" fill="#fefdc0" d="M 348.5,479.5 C 340.735,483.868 332.402,486.868 323.5,488.5C 330.186,485.769 336.853,482.936 343.5,480C 345.134,479.506 346.801,479.34 348.5,479.5 Z"/></g>
<g><path style="opacity:0.612" fill="#fdfcb8" d="M 169.5,486.5 C 171.898,486.259 173.898,486.926 175.5,488.5C 173.102,488.741 171.102,488.074 169.5,486.5 Z"/></g>
<g><path style="opacity:0.902" fill="#fcfbb7" d="M 175.5,488.5 C 179.214,488.59 182.548,489.59 185.5,491.5C 181.838,491.277 178.505,490.277 175.5,488.5 Z"/></g>
<g><path style="opacity:1" fill="#faf87d" d="M 323.5,488.5 C 322.791,489.404 321.791,489.737 320.5,489.5C 317.772,489.171 315.438,489.837 313.5,491.5C 307.401,491.406 301.735,492.739 296.5,495.5C 294.5,495.5 292.5,495.5 290.5,495.5C 300.965,491.36 311.965,489.026 323.5,488.5 Z"/></g>
<g><path style="opacity:0.259" fill="#fffdc6" d="M 320.5,489.5 C 318.485,490.924 316.152,491.59 313.5,491.5C 315.438,489.837 317.772,489.171 320.5,489.5 Z"/></g>
<g><path style="opacity:1" fill="#fcfaa0" d="M 189.5,492.5 C 195.791,492.495 201.791,493.495 207.5,495.5C 205.833,495.5 204.167,495.5 202.5,495.5C 197.908,495.118 193.575,494.118 189.5,492.5 Z"/></g>
<g><path style="opacity:0.055" fill="#fdfcbf" d="M 313.5,491.5 C 308.122,493.579 302.456,494.913 296.5,495.5C 301.735,492.739 307.401,491.406 313.5,491.5 Z"/></g>
<g><path style="opacity:0.573" fill="#fefcc3" d="M 290.5,495.5 C 292.5,495.5 294.5,495.5 296.5,495.5C 289.553,497.158 282.553,498.491 275.5,499.5C 274.167,499.5 272.833,499.5 271.5,499.5C 274.548,497.881 277.881,496.881 281.5,496.5C 284.545,496.492 287.545,496.159 290.5,495.5 Z"/></g>
<g><path style="opacity:0.31" fill="#fefdbe" d="M 202.5,495.5 C 204.167,495.5 205.833,495.5 207.5,495.5C 209.565,495.517 211.565,495.85 213.5,496.5C 213.5,496.833 213.5,497.167 213.5,497.5C 209.613,497.354 205.946,496.687 202.5,495.5 Z"/></g>
<g><path style="opacity:0.953" fill="#fcf883" d="M 213.5,497.5 C 213.5,497.167 213.5,496.833 213.5,496.5C 218.511,496.334 223.511,496.501 228.5,497C 232.179,497.026 235.512,497.86 238.5,499.5C 235.167,499.5 231.833,499.5 228.5,499.5C 228.389,498.883 228.056,498.383 227.5,498C 223.179,497.501 218.846,497.334 214.5,497.5C 214.167,497.5 213.833,497.5 213.5,497.5 Z"/></g>
<g><path style="opacity:0.169" fill="#fefbb3" d="M 214.5,497.5 C 218.846,497.334 223.179,497.501 227.5,498C 228.056,498.383 228.389,498.883 228.5,499.5C 226.833,499.5 225.167,499.5 223.5,499.5C 220.5,498.833 217.5,498.167 214.5,497.5 Z"/></g>
<g><path style="opacity:0.431" fill="#fdf97e" d="M 281.5,496.5 C 277.881,496.881 274.548,497.881 271.5,499.5C 266.167,499.5 260.833,499.5 255.5,499.5C 255.918,498.778 256.584,498.278 257.5,498C 265.47,496.978 273.47,496.478 281.5,496.5 Z"/></g>
</svg>
