<?xml version="1.0" encoding="UTF-8"?>
<!DOCTYPE svg PUBLIC "-//W3C//DTD SVG 1.1//EN" "http://www.w3.org/Graphics/SVG/1.1/DTD/svg11.dtd">
<svg xmlns="http://www.w3.org/2000/svg" version="1.1" width="500px" height="500px" style="shape-rendering:geometricPrecision; text-rendering:geometricPrecision; image-rendering:optimizeQuality; fill-rule:evenodd; clip-rule:evenodd" xmlns:xlink="http://www.w3.org/1999/xlink">
<g><path style="opacity:0.437" fill="#5e5e5e" d="M 230.5,173.5 C 226.102,173.294 221.768,173.627 217.5,174.5C 217.611,173.883 217.944,173.383 218.5,173C 222.689,172.188 226.689,172.355 230.5,173.5 Z"/></g>
<g><path style="opacity:0.996" fill="#fbfbfb" d="M 230.5,173.5 C 231.167,173.833 231.833,174.167 232.5,174.5C 232.973,175.906 233.973,176.573 235.5,176.5C 236.71,176.932 237.71,177.599 238.5,178.5C 238.973,179.906 239.973,180.573 241.5,180.5C 241.821,182.048 242.821,182.715 244.5,182.5C 245.808,185.486 248.142,187.152 251.5,187.5C 252.492,187.328 253.158,187.662 253.5,188.5C 254.035,190.446 255.368,191.446 257.5,191.5C 259.434,192.11 261.101,193.11 262.5,194.5C 263.035,196.446 264.368,197.446 266.5,197.5C 267.492,197.328 268.158,197.662 268.5,198.5C 268.833,199.5 269.5,200.167 270.5,200.5C 270.833,200.5 271.167,200.5 271.5,200.5C 271.973,201.906 272.973,202.573 274.5,202.5C 275.71,202.932 276.71,203.599 277.5,204.5C 277.833,205.5 278.5,206.167 279.5,206.5C 282.331,207.079 284.664,208.412 286.5,210.5C 287.035,212.446 288.368,213.446 290.5,213.5C 290.973,214.906 291.973,215.573 293.5,215.5C 294.878,216.545 295.878,217.878 296.5,219.5C 296.427,221.027 297.094,222.027 298.5,222.5C 298.427,224.027 299.094,225.027 300.5,225.5C 300.5,225.833 300.5,226.167 300.5,226.5C 301.761,232.506 301.761,238.506 300.5,244.5C 299.326,245.514 298.66,246.847 298.5,248.5C 298.573,250.027 297.906,251.027 296.5,251.5C 295.5,251.833 294.833,252.5 294.5,253.5C 293.5,253.833 292.833,254.5 292.5,255.5C 291.5,255.833 290.833,256.5 290.5,257.5C 288.973,257.427 287.973,258.094 287.5,259.5C 281.795,263.859 275.795,267.859 269.5,271.5C 267.973,271.427 266.973,272.094 266.5,273.5C 265.71,274.401 264.71,275.068 263.5,275.5C 261.973,275.427 260.973,276.094 260.5,277.5C 260.027,278.906 259.027,279.573 257.5,279.5C 255.973,279.427 254.973,280.094 254.5,281.5C 252.853,283.326 250.853,284.66 248.5,285.5C 246.973,285.427 245.973,286.094 245.5,287.5C 242.106,290.221 238.439,292.554 234.5,294.5C 233.29,294.932 232.29,295.599 231.5,296.5C 229.538,298.017 227.205,298.684 224.5,298.5C 221.795,298.684 219.462,298.017 217.5,296.5C 217.027,295.094 216.027,294.427 214.5,294.5C 214.167,293.5 213.5,292.833 212.5,292.5C 211.094,292.027 210.427,291.027 210.5,289.5C 209.527,254.524 209.193,219.524 209.5,184.5C 210.537,183.07 211.204,181.403 211.5,179.5C 213.167,178.5 214.5,177.167 215.5,175.5C 215.842,174.662 216.508,174.328 217.5,174.5C 221.768,173.627 226.102,173.294 230.5,173.5 Z"/></g>
<g><path style="opacity:0.008" fill="#212121" d="M 232.5,174.5 C 234.027,174.427 235.027,175.094 235.5,176.5C 233.973,176.573 232.973,175.906 232.5,174.5 Z"/></g>
<g><path style="opacity:0.267" fill="#323232" d="M 215.5,175.5 C 214.5,177.167 213.167,178.5 211.5,179.5C 211.833,177.167 213.167,175.833 215.5,175.5 Z"/></g>
<g><path style="opacity:0.004" fill="#1a1a1a" d="M 238.5,178.5 C 240.027,178.427 241.027,179.094 241.5,180.5C 239.973,180.573 238.973,179.906 238.5,178.5 Z"/></g>
<g><path style="opacity:0.365" fill="#454545" d="M 211.5,179.5 C 211.204,181.403 210.537,183.07 209.5,184.5C 209.12,182.302 209.787,180.635 211.5,179.5 Z"/></g>
<g><path style="opacity:0.733" fill="#6e6e6e" d="M 241.5,180.5 C 242.71,180.932 243.71,181.599 244.5,182.5C 242.821,182.715 241.821,182.048 241.5,180.5 Z"/></g>
<g><path style="opacity:0.835" fill="#848484" d="M 244.5,182.5 C 247.135,183.811 249.469,185.478 251.5,187.5C 248.142,187.152 245.808,185.486 244.5,182.5 Z"/></g>
<g><path style="opacity:0.671" fill="#696969" d="M 253.5,188.5 C 255.23,189.026 256.564,190.026 257.5,191.5C 255.368,191.446 254.035,190.446 253.5,188.5 Z"/></g>
<g><path style="opacity:0.42" fill="#606060" d="M 262.5,194.5 C 264.23,195.026 265.564,196.026 266.5,197.5C 264.368,197.446 263.035,196.446 262.5,194.5 Z"/></g>
<g><path style="opacity:0.004" fill="#191919" d="M 268.5,198.5 C 269.833,198.5 270.5,199.167 270.5,200.5C 269.5,200.167 268.833,199.5 268.5,198.5 Z"/></g>
<g><path style="opacity:0.004" fill="#151515" d="M 271.5,200.5 C 273.027,200.427 274.027,201.094 274.5,202.5C 272.973,202.573 271.973,201.906 271.5,200.5 Z"/></g>
<g><path style="opacity:0.004" fill="#1a1a1a" d="M 277.5,204.5 C 278.833,204.5 279.5,205.167 279.5,206.5C 278.5,206.167 277.833,205.5 277.5,204.5 Z"/></g>
<g><path style="opacity:0.588" fill="#565656" d="M 286.5,210.5 C 288.23,211.026 289.564,212.026 290.5,213.5C 288.368,213.446 287.035,212.446 286.5,210.5 Z"/></g>
<g><path style="opacity:0.008" fill="#212121" d="M 290.5,213.5 C 292.027,213.427 293.027,214.094 293.5,215.5C 291.973,215.573 290.973,214.906 290.5,213.5 Z"/></g>
<g><path style="opacity:0.157" fill="#0a0a0a" d="M 209.5,184.5 C 209.193,219.524 209.527,254.524 210.5,289.5C 209.732,288.737 209.232,287.737 209,286.5C 208.169,252.331 208.336,218.331 209.5,184.5 Z"/></g>
<g><path style="opacity:0.365" fill="#696969" d="M 296.5,219.5 C 297.906,219.973 298.573,220.973 298.5,222.5C 297.094,222.027 296.427,221.027 296.5,219.5 Z"/></g>
<g><path style="opacity:0.086" fill="#272727" d="M 298.5,222.5 C 299.906,222.973 300.573,223.973 300.5,225.5C 299.094,225.027 298.427,224.027 298.5,222.5 Z"/></g>
<g><path style="opacity:0.043" fill="#2d2d2d" d="M 300.5,226.5 C 301.991,229.186 302.657,232.186 302.5,235.5C 302.657,238.814 301.991,241.814 300.5,244.5C 301.761,238.506 301.761,232.506 300.5,226.5 Z"/></g>
<g><path style="opacity:0.027" fill="#2f2f2f" d="M 300.5,244.5 C 300.771,246.38 300.104,247.713 298.5,248.5C 298.66,246.847 299.326,245.514 300.5,244.5 Z"/></g>
<g><path style="opacity:0.012" fill="#202020" d="M 296.5,251.5 C 296.5,252.833 295.833,253.5 294.5,253.5C 294.833,252.5 295.5,251.833 296.5,251.5 Z"/></g>
<g><path style="opacity:0.02" fill="#303030" d="M 294.5,253.5 C 294.5,254.833 293.833,255.5 292.5,255.5C 292.833,254.5 293.5,253.833 294.5,253.5 Z"/></g>
<g><path style="opacity:0.004" fill="#101010" d="M 292.5,255.5 C 292.5,256.833 291.833,257.5 290.5,257.5C 290.833,256.5 291.5,255.833 292.5,255.5 Z"/></g>
<g><path style="opacity:0.004" fill="#161616" d="M 290.5,257.5 C 290.027,258.906 289.027,259.573 287.5,259.5C 287.973,258.094 288.973,257.427 290.5,257.5 Z"/></g>
<g><path style="opacity:0.004" fill="#171717" d="M 269.5,271.5 C 269.027,272.906 268.027,273.573 266.5,273.5C 266.973,272.094 267.973,271.427 269.5,271.5 Z"/></g>
<g><path style="opacity:0.004" fill="#151515" d="M 263.5,275.5 C 263.027,276.906 262.027,277.573 260.5,277.5C 260.973,276.094 261.973,275.427 263.5,275.5 Z"/></g>
<g><path style="opacity:0.008" fill="#131313" d="M 257.5,279.5 C 257.027,280.906 256.027,281.573 254.5,281.5C 254.973,280.094 255.973,279.427 257.5,279.5 Z"/></g>
<g><path style="opacity:0.008" fill="#181818" d="M 248.5,285.5 C 248.027,286.906 247.027,287.573 245.5,287.5C 245.973,286.094 246.973,285.427 248.5,285.5 Z"/></g>
<g><path style="opacity:0.004" fill="#222222" d="M 212.5,292.5 C 213.5,292.833 214.167,293.5 214.5,294.5C 213.167,294.5 212.5,293.833 212.5,292.5 Z"/></g>
<g><path style="opacity:0.282" fill="#666666" d="M 214.5,294.5 C 216.027,294.427 217.027,295.094 217.5,296.5C 215.973,296.573 214.973,295.906 214.5,294.5 Z"/></g>
<g><path style="opacity:0.004" fill="#1c1c1c" d="M 234.5,294.5 C 234.179,296.048 233.179,296.715 231.5,296.5C 232.29,295.599 233.29,294.932 234.5,294.5 Z"/></g>
</svg>
