<?xml version="1.0" encoding="UTF-8"?>
<!DOCTYPE svg PUBLIC "-//W3C//DTD SVG 1.1//EN" "http://www.w3.org/Graphics/SVG/1.1/DTD/svg11.dtd">
<svg xmlns="http://www.w3.org/2000/svg" version="1.1" width="500px" height="500px" style="shape-rendering:geometricPrecision; text-rendering:geometricPrecision; image-rendering:optimizeQuality; fill-rule:evenodd; clip-rule:evenodd" xmlns:xlink="http://www.w3.org/1999/xlink">
<g><path style="opacity:1" fill="#040201" d="M 209.5,168.5 C 214.5,168.5 219.5,168.5 224.5,168.5C 224.334,176.507 224.5,184.507 225,192.5C 226.039,191.756 226.539,190.756 226.5,189.5C 227.892,182.656 229.892,175.989 232.5,169.5C 237.5,168.167 242.5,168.167 247.5,169.5C 244.397,178.31 241.397,187.143 238.5,196C 242.275,207.823 245.942,219.656 249.5,231.5C 243.5,231.5 237.5,231.5 231.5,231.5C 230.466,223.364 228.799,215.364 226.5,207.5C 226.291,206.078 225.791,204.745 225,203.5C 224.5,212.827 224.334,222.161 224.5,231.5C 219.5,231.5 214.5,231.5 209.5,231.5C 209.5,210.5 209.5,189.5 209.5,168.5 Z"/></g>
<g><path style="opacity:0.929" fill="#f7cc58" d="M 263.5,178.5 C 263.5,177.833 263.167,177.5 262.5,177.5C 260.833,174.833 259.167,174.833 257.5,177.5C 255.537,178.96 253.704,180.627 252,182.5C 251.308,181.975 250.808,181.308 250.5,180.5C 253.403,176.651 256.737,173.317 260.5,170.5C 264.212,173.211 267.212,176.544 269.5,180.5C 269.192,181.308 268.692,181.975 268,182.5C 266.629,180.959 265.129,179.625 263.5,178.5 Z M 262.5,177.5 C 260.833,176.167 259.167,176.167 257.5,177.5C 259.167,174.833 260.833,174.833 262.5,177.5 Z"/></g>
<g><path style="opacity:1" fill="#73632b" d="M 224.5,168.5 C 225.167,175.5 225.833,182.5 226.5,189.5C 226.539,190.756 226.039,191.756 225,192.5C 224.5,184.507 224.334,176.507 224.5,168.5 Z"/></g>
<g><path style="opacity:0.8" fill="#f2c777" d="M 323.5,165.5 C 316.5,165.5 309.5,165.5 302.5,165.5C 302.83,182.342 302.497,199.008 301.5,215.5C 301.5,198.5 301.5,181.5 301.5,164.5C 309.019,164.175 316.352,164.508 323.5,165.5 Z"/></g>
<g><path style="opacity:1" fill="#f3c950" d="M 209.5,168.5 C 208.668,187.996 208.168,207.662 208,227.5C 206.989,226.663 205.822,226.33 204.5,226.5C 207.108,218.666 207.108,210.832 204.5,203C 205.056,201.989 205.722,201.156 206.5,200.5C 205.577,196.936 205.244,193.269 205.5,189.5C 201.629,189.185 197.962,189.518 194.5,190.5C 194.414,191.496 194.748,192.329 195.5,193C 194.906,193.464 194.239,193.631 193.5,193.5C 185.445,191.056 182.279,185.723 184,177.5C 185.938,176.14 187.604,176.473 189,178.5C 189.497,181.146 189.664,183.813 189.5,186.5C 194.167,186.5 198.833,186.5 203.5,186.5C 203.5,182.833 203.5,179.167 203.5,175.5C 203.579,174.07 203.246,172.736 202.5,171.5C 202.97,170.537 203.637,170.537 204.5,171.5C 205.434,170.432 205.768,169.099 205.5,167.5C 207.456,165.825 208.789,166.158 209.5,168.5 Z"/></g>
<g><path style="opacity:0.447" fill="#efc274" d="M 293.5,216.5 C 292.503,199.675 292.17,182.675 292.5,165.5C 285.5,165.5 278.5,165.5 271.5,165.5C 271.5,170.5 271.5,175.5 271.5,180.5C 271.167,180.5 270.833,180.5 270.5,180.5C 270.5,175.167 270.5,169.833 270.5,164.5C 278.167,164.5 285.833,164.5 293.5,164.5C 293.5,181.833 293.5,199.167 293.5,216.5 Z"/></g>
<g><path style="opacity:1" fill="#fccf49" d="M 262.5,177.5 C 263.167,177.5 263.5,177.833 263.5,178.5C 264.713,181.225 266.546,183.559 269,185.5C 268.477,198.645 266.643,211.645 263.5,224.5C 264.251,226.996 265.251,229.33 266.5,231.5C 266.682,233.591 266.348,235.591 265.5,237.5C 261.018,238.167 256.684,238.834 252.5,239.5C 250.824,238.817 250.157,237.483 250.5,235.5C 252.224,235.539 252.557,235.206 251.5,234.5C 250.833,233.5 250.167,232.5 249.5,231.5C 250.5,231.5 251.5,231.5 252.5,231.5C 255.545,229.098 256.545,226.098 255.5,222.5C 256.641,219.36 256.808,216.027 256,212.5C 254.683,207.39 253.183,202.39 251.5,197.5C 250.404,193.587 250.238,189.587 251,185.5C 253.782,183.229 255.949,180.563 257.5,177.5C 259.167,176.167 260.833,176.167 262.5,177.5 Z"/></g>
<g><path style="opacity:0.91" fill="#e8c15a" d="M 252.5,231.5 C 251.5,231.5 250.5,231.5 249.5,231.5C 245.942,219.656 242.275,207.823 238.5,196C 241.397,187.143 244.397,178.31 247.5,169.5C 242.5,168.167 237.5,168.167 232.5,169.5C 229.892,175.989 227.892,182.656 226.5,189.5C 225.833,182.5 225.167,175.5 224.5,168.5C 219.5,168.5 214.5,168.5 209.5,168.5C 208.789,166.158 207.456,165.825 205.5,167.5C 205.414,166.504 205.748,165.671 206.5,165C 213.5,164.333 220.5,164.333 227.5,165C 228.5,168.333 229.5,168.333 230.5,165C 237.856,164.169 245.189,164.335 252.5,165.5C 248.767,175.699 245.434,186.033 242.5,196.5C 245.678,208.213 249.012,219.88 252.5,231.5 Z"/></g>
<g><path style="opacity:1" fill="#f9ce72" d="M 251.5,197.5 C 253.183,202.39 254.683,207.39 256,212.5C 256.808,216.027 256.641,219.36 255.5,222.5C 254.275,214.15 252.942,205.816 251.5,197.5 Z"/></g>
<g><path style="opacity:1" fill="#74632b" d="M 226.5,207.5 C 225.833,215.5 225.167,223.5 224.5,231.5C 224.334,222.161 224.5,212.827 225,203.5C 225.791,204.745 226.291,206.078 226.5,207.5 Z"/></g>
<g><path style="opacity:0.645" fill="#deaf80" d="M 270.5,180.5 C 270.833,180.5 271.167,180.5 271.5,180.5C 271.5,198.167 271.5,215.833 271.5,233.5C 278.354,233.176 285.021,233.509 291.5,234.5C 284.5,234.5 277.5,234.5 270.5,234.5C 270.5,216.5 270.5,198.5 270.5,180.5 Z"/></g>
<g><path style="opacity:1" fill="#f0c757" d="M 293.5,216.5 C 296.279,216.721 298.946,216.388 301.5,215.5C 302.497,199.008 302.83,182.342 302.5,165.5C 309.5,165.5 316.5,165.5 323.5,165.5C 324.811,181.353 324.811,197.353 323.5,213.5C 323.608,214.442 323.941,215.275 324.5,216C 327.817,216.498 331.15,216.665 334.5,216.5C 334.666,222.509 334.499,228.509 334,234.5C 329.389,235.722 324.723,235.722 320,234.5C 318.112,234.796 316.278,235.296 314.5,236C 315.469,240.737 315.803,245.57 315.5,250.5C 314.842,251.398 314.176,252.398 313.5,253.5C 312.833,248.683 312.166,244.017 311.5,239.5C 302.5,239.5 293.5,239.5 284.5,239.5C 283.503,260.66 283.169,281.993 283.5,303.5C 290.841,303.334 298.174,303.5 305.5,304C 286.503,304.5 267.503,304.667 248.5,304.5C 248.5,299.5 248.5,294.5 248.5,289.5C 251.707,277.666 255.374,265.999 259.5,254.5C 256.375,253.521 253.042,253.187 249.5,253.5C 249.5,247.833 249.5,242.167 249.5,236.5C 249.5,235.833 249.833,235.5 250.5,235.5C 250.157,237.483 250.824,238.817 252.5,239.5C 256.684,238.834 261.018,238.167 265.5,237.5C 266.348,235.591 266.682,233.591 266.5,231.5C 267.954,232.52 268.287,233.687 267.5,235C 276.888,235.815 284.888,235.648 291.5,234.5C 285.021,233.509 278.354,233.176 271.5,233.5C 271.5,215.833 271.5,198.167 271.5,180.5C 271.5,175.5 271.5,170.5 271.5,165.5C 278.5,165.5 285.5,165.5 292.5,165.5C 292.17,182.675 292.503,199.675 293.5,216.5 Z M 280.5,287.5 C 277.833,287.5 275.167,287.5 272.5,287.5C 274.527,278.393 277.027,269.393 280,260.5C 280.5,269.494 280.666,278.494 280.5,287.5 Z"/></g>
<g><path style="opacity:1" fill="#644e17" d="M 290.5,219.5 C 289.503,202.675 289.17,185.675 289.5,168.5C 284.5,168.5 279.5,168.5 274.5,168.5C 274.5,189.5 274.5,210.5 274.5,231.5C 273.503,210.34 273.169,189.007 273.5,167.5C 279.167,167.5 284.833,167.5 290.5,167.5C 290.5,184.833 290.5,202.167 290.5,219.5 Z"/></g>
<g><path style="opacity:1" fill="#aa9246" d="M 320.5,168.5 C 321.497,184.992 321.83,201.658 321.5,218.5C 325.042,218.187 328.375,218.521 331.5,219.5C 327.833,219.5 324.167,219.5 320.5,219.5C 320.5,202.5 320.5,185.5 320.5,168.5 Z"/></g>
<g><path style="opacity:1" fill="#030000" d="M 320.5,168.5 C 320.5,185.5 320.5,202.5 320.5,219.5C 324.167,219.5 327.833,219.5 331.5,219.5C 331.5,223.5 331.5,227.5 331.5,231.5C 322.5,231.5 313.5,231.5 304.5,231.5C 304.5,210.5 304.5,189.5 304.5,168.5C 309.833,168.5 315.167,168.5 320.5,168.5 Z"/></g>
<g><path style="opacity:1" fill="#040101" d="M 290.5,219.5 C 294.167,219.5 297.833,219.5 301.5,219.5C 301.5,223.5 301.5,227.5 301.5,231.5C 292.5,231.5 283.5,231.5 274.5,231.5C 274.5,210.5 274.5,189.5 274.5,168.5C 279.5,168.5 284.5,168.5 289.5,168.5C 289.17,185.675 289.503,202.675 290.5,219.5 Z"/></g>
<g><path style="opacity:1" fill="#060201" d="M 252.5,239.5 C 261.5,239.5 270.5,239.5 279.5,239.5C 279.666,243.846 279.499,248.179 279,252.5C 275.517,263.111 272.35,273.778 269.5,284.5C 268.596,285.209 268.263,286.209 268.5,287.5C 267.596,288.209 267.263,289.209 267.5,290.5C 271.833,290.5 276.167,290.5 280.5,290.5C 280.5,294.5 280.5,298.5 280.5,302.5C 270.5,302.5 260.5,302.5 250.5,302.5C 250.25,297.42 250.75,292.42 252,287.5C 256.142,275.574 259.976,263.574 263.5,251.5C 259.833,251.5 256.167,251.5 252.5,251.5C 252.5,247.5 252.5,243.5 252.5,239.5 Z"/></g>
<g><path style="opacity:1" fill="#e9c358" d="M 204.5,171.5 C 203.637,170.537 202.97,170.537 202.5,171.5C 203.246,172.736 203.579,174.07 203.5,175.5C 201.914,171.423 198.914,168.923 194.5,168C 172.458,164.041 164.292,172.874 170,194.5C 171.046,196.09 172.213,197.59 173.5,199C 178.422,202.378 183.255,205.878 188,209.5C 189.504,213.039 189.837,216.705 189,220.5C 187.604,222.527 185.938,222.86 184,221.5C 183.501,217.179 183.334,212.846 183.5,208.5C 178.5,208.5 173.5,208.5 168.5,208.5C 166.315,229.935 175.648,237.435 196.5,231C 200.77,229.73 203.27,226.896 204,222.5C 207.591,209.97 204.091,200.304 193.5,193.5C 194.239,193.631 194.906,193.464 195.5,193C 194.748,192.329 194.414,191.496 194.5,190.5C 198.836,193.509 202.836,196.843 206.5,200.5C 205.722,201.156 205.056,201.989 204.5,203C 207.108,210.832 207.108,218.666 204.5,226.5C 205.822,226.33 206.989,226.663 208,227.5C 208.168,207.662 208.668,187.996 209.5,168.5C 209.5,189.5 209.5,210.5 209.5,231.5C 214.5,231.5 219.5,231.5 224.5,231.5C 225.167,223.5 225.833,215.5 226.5,207.5C 228.799,215.364 230.466,223.364 231.5,231.5C 237.5,231.5 243.5,231.5 249.5,231.5C 250.167,232.5 250.833,233.5 251.5,234.5C 236.496,233.522 221.496,233.188 206.5,233.5C 205.573,231.509 205.406,229.509 206,227.5C 203.204,231.636 199.371,234.136 194.5,235C 202.202,235.294 209.869,235.96 217.5,237C 223.271,239.266 226.605,243.433 227.5,249.5C 225.006,253.263 225.006,257.263 227.5,261.5C 226.338,263.986 225.004,266.486 223.5,269C 225.049,270.214 226.215,271.714 227,273.5C 227.5,284.161 227.667,294.828 227.5,305.5C 213.833,305.5 200.167,305.5 186.5,305.5C 185.843,282.735 185.177,260.069 184.5,237.5C 184.389,236.883 184.056,236.383 183.5,236C 173.194,236.353 167.027,231.52 165,221.5C 164.501,216.177 164.334,210.844 164.5,205.5C 167.941,205.699 171.274,205.199 174.5,204C 164.839,196.331 162.005,186.497 166,174.5C 168.487,168.34 172.987,164.84 179.5,164C 186.321,163.124 192.988,163.791 199.5,166C 202.079,167.076 203.746,168.909 204.5,171.5 Z M 194.5,190.5 C 197.962,189.518 201.629,189.185 205.5,189.5C 205.244,193.269 205.577,196.936 206.5,200.5C 202.836,196.843 198.836,193.509 194.5,190.5 Z"/></g>
<g><path style="opacity:1" fill="#060301" d="M 187.5,239.5 C 197.898,239.101 208.232,239.601 218.5,241C 220,242.5 221.5,244 223,245.5C 223.667,251.5 223.667,257.5 223,263.5C 221.199,266.785 218.365,268.619 214.5,269C 218.491,269.412 221.658,271.246 224,274.5C 224.5,283.827 224.666,293.161 224.5,302.5C 219.5,302.5 214.5,302.5 209.5,302.5C 209.666,293.161 209.5,283.827 209,274.5C 207.301,273.594 205.467,273.261 203.5,273.5C 203.5,283.167 203.5,292.833 203.5,302.5C 198.167,302.5 192.833,302.5 187.5,302.5C 187.5,281.5 187.5,260.5 187.5,239.5 Z"/></g>
<g><path style="opacity:1" fill="#060301" d="M 203.5,175.5 C 203.5,179.167 203.5,182.833 203.5,186.5C 198.833,186.5 194.167,186.5 189.5,186.5C 189.664,183.813 189.497,181.146 189,178.5C 187.604,176.473 185.938,176.14 184,177.5C 182.279,185.723 185.445,191.056 193.5,193.5C 204.091,200.304 207.591,209.97 204,222.5C 203.27,226.896 200.77,229.73 196.5,231C 175.648,237.435 166.315,229.935 168.5,208.5C 173.5,208.5 178.5,208.5 183.5,208.5C 183.334,212.846 183.501,217.179 184,221.5C 185.938,222.86 187.604,222.527 189,220.5C 189.837,216.705 189.504,213.039 188,209.5C 183.255,205.878 178.422,202.378 173.5,199C 172.213,197.59 171.046,196.09 170,194.5C 164.292,172.874 172.458,164.041 194.5,168C 198.914,168.923 201.914,171.423 203.5,175.5 Z"/></g>
<g><path style="opacity:0.988" fill="#f8cd69" d="M 245.5,271.5 C 244.238,267.812 244.238,263.978 245.5,260C 244.778,257.323 243.778,254.823 242.5,252.5C 243.833,252.167 243.833,251.833 242.5,251.5C 242.5,250.833 242.167,250.5 241.5,250.5C 241.5,249.833 241.167,249.5 240.5,249.5C 240.5,248.833 240.167,248.5 239.5,248.5C 239.5,247.833 239.167,247.5 238.5,247.5C 237.001,245.198 235.668,245.531 234.5,248.5C 233.833,248.5 233.5,248.833 233.5,249.5C 231.947,251.385 229.947,252.385 227.5,252.5C 227.557,251.391 227.89,250.391 228.5,249.5C 230.846,246.321 233.679,243.654 237,241.5C 240.286,243.782 243.286,246.449 246,249.5C 246.711,251.367 246.211,252.867 244.5,254C 246.152,255.47 247.152,257.303 247.5,259.5C 246.444,263.444 245.777,267.444 245.5,271.5 Z M 238.5,247.5 C 237.167,247.833 235.833,248.167 234.5,248.5C 235.668,245.531 237.001,245.198 238.5,247.5 Z"/></g>
<g><path style="opacity:0.243" fill="#efc694" d="M 249.5,236.5 C 249.5,242.167 249.5,247.833 249.5,253.5C 253.042,253.187 256.375,253.521 259.5,254.5C 255.788,254.658 252.288,254.658 249,254.5C 248.181,248.319 248.347,242.319 249.5,236.5 Z"/></g>
<g><path style="opacity:1" fill="#eac459" d="M 203.5,249.5 C 208.316,249.32 210.316,251.653 209.5,256.5C 210.316,261.347 208.316,263.68 203.5,263.5C 203.5,258.833 203.5,254.167 203.5,249.5 Z"/></g>
<g><path style="opacity:0.802" fill="#ebc284" d="M 184.5,237.5 C 185.177,260.069 185.843,282.735 186.5,305.5C 184.51,283.191 183.844,260.525 184.5,237.5 Z"/></g>
<g><path style="opacity:1" fill="#e3b863" d="M 279.5,239.5 C 281.499,255.475 281.833,271.475 280.5,287.5C 280.666,278.494 280.5,269.494 280,260.5C 277.027,269.393 274.527,278.393 272.5,287.5C 271.9,286.1 270.9,285.1 269.5,284.5C 272.35,273.778 275.517,263.111 279,252.5C 279.499,248.179 279.666,243.846 279.5,239.5 Z M 280.5,287.5 C 277.833,287.5 275.167,287.5 272.5,287.5C 274.527,278.393 277.027,269.393 280,260.5C 280.5,269.494 280.666,278.494 280.5,287.5 Z"/></g>
<g><path style="opacity:1" fill="#e5c25e" d="M 284.5,239.5 C 284.5,260.5 284.5,281.5 284.5,302.5C 293.833,302.5 303.167,302.5 312.5,302.5C 312.5,298.167 312.5,293.833 312.5,289.5C 308.5,289.5 304.5,289.5 300.5,289.5C 300.5,285.167 300.5,280.833 300.5,276.5C 304.167,276.5 307.833,276.5 311.5,276.5C 311.818,271.968 311.485,267.634 310.5,263.5C 307.167,263.5 303.833,263.5 300.5,263.5C 300.5,259.5 300.5,255.5 300.5,251.5C 304.167,251.5 307.833,251.5 311.5,251.5C 311.5,247.5 311.5,243.5 311.5,239.5C 312.166,244.017 312.833,248.683 313.5,253.5C 314.176,252.398 314.842,251.398 315.5,250.5C 315.714,252.144 315.38,253.644 314.5,255C 310.848,255.499 307.182,255.665 303.5,255.5C 303.366,257.292 303.699,258.958 304.5,260.5C 306.704,261.505 309.704,261.838 313.5,261.5C 313.5,267.167 313.5,272.833 313.5,278.5C 310.548,279.411 307.548,279.578 304.5,279C 303.565,281.381 303.232,283.881 303.5,286.5C 307.5,286.5 311.5,286.5 315.5,286.5C 315.5,292.833 315.5,299.167 315.5,305.5C 292.833,305.5 270.167,305.5 247.5,305.5C 247.179,299.974 247.512,294.64 248.5,289.5C 248.5,294.5 248.5,299.5 248.5,304.5C 267.503,304.667 286.503,304.5 305.5,304C 298.174,303.5 290.841,303.334 283.5,303.5C 283.169,281.993 283.503,260.66 284.5,239.5 Z"/></g>
<g><path style="opacity:1" fill="#040101" d="M 284.5,239.5 C 293.5,239.5 302.5,239.5 311.5,239.5C 311.5,243.5 311.5,247.5 311.5,251.5C 307.833,251.5 304.167,251.5 300.5,251.5C 300.5,255.5 300.5,259.5 300.5,263.5C 303.833,263.5 307.167,263.5 310.5,263.5C 310.5,267.5 310.5,271.5 310.5,275.5C 306.958,275.187 303.625,275.521 300.5,276.5C 300.5,280.833 300.5,285.167 300.5,289.5C 304.5,289.5 308.5,289.5 312.5,289.5C 312.5,293.833 312.5,298.167 312.5,302.5C 303.167,302.5 293.833,302.5 284.5,302.5C 284.5,281.5 284.5,260.5 284.5,239.5 Z"/></g>
<g><path style="opacity:0.365" fill="#f1c991" d="M 304.5,260.5 C 307.833,260.5 311.167,260.5 314.5,260.5C 314.823,266.69 314.49,272.69 313.5,278.5C 313.5,272.833 313.5,267.167 313.5,261.5C 309.704,261.838 306.704,261.505 304.5,260.5 Z"/></g>
<g><path style="opacity:1" fill="#997f31" d="M 310.5,263.5 C 311.485,267.634 311.818,271.968 311.5,276.5C 307.833,276.5 304.167,276.5 300.5,276.5C 303.625,275.521 306.958,275.187 310.5,275.5C 310.5,271.5 310.5,267.5 310.5,263.5 Z"/></g>
<g><path style="opacity:1" fill="#f6ca7c" d="M 228.5,266.5 C 231.763,275.061 233.429,284.061 233.5,293.5C 231.312,284.716 229.645,275.716 228.5,266.5 Z"/></g>
<g><path style="opacity:1" fill="#fcd04a" d="M 238.5,247.5 C 239.167,247.5 239.5,247.833 239.5,248.5C 240.167,248.5 240.5,248.833 240.5,249.5C 241.167,249.5 241.5,249.833 241.5,250.5C 242.167,250.5 242.5,250.833 242.5,251.5C 242.5,251.833 242.5,252.167 242.5,252.5C 243.778,254.823 244.778,257.323 245.5,260C 244.238,263.978 244.238,267.812 245.5,271.5C 243.406,279.392 241.739,287.392 240.5,295.5C 241.926,298.768 243.593,301.935 245.5,305C 243.863,305.601 242.197,306.101 240.5,306.5C 236.529,305.803 232.529,305.303 228.5,305C 231.352,301.658 233.019,297.825 233.5,293.5C 233.429,284.061 231.763,275.061 228.5,266.5C 227.549,265.081 227.216,263.415 227.5,261.5C 225.006,257.263 225.006,253.263 227.5,249.5C 227.833,249.5 228.167,249.5 228.5,249.5C 227.89,250.391 227.557,251.391 227.5,252.5C 227.343,253.873 227.51,255.207 228,256.5C 230.454,254.559 232.287,252.225 233.5,249.5C 234.167,249.5 234.5,249.167 234.5,248.5C 235.833,248.167 237.167,247.833 238.5,247.5 Z M 233.5,249.5 C 232.287,252.225 230.454,254.559 228,256.5C 227.51,255.207 227.343,253.873 227.5,252.5C 229.947,252.385 231.947,251.385 233.5,249.5 Z"/></g>
<g><path style="opacity:1" fill="#af964d" d="M 268.5,287.5 C 272.232,289.131 276.232,290.131 280.5,290.5C 276.167,290.5 271.833,290.5 267.5,290.5C 267.263,289.209 267.596,288.209 268.5,287.5 Z"/></g>
</svg>
