<?xml version="1.0" encoding="UTF-8"?>
<!DOCTYPE svg PUBLIC "-//W3C//DTD SVG 1.1//EN" "http://www.w3.org/Graphics/SVG/1.1/DTD/svg11.dtd">
<svg xmlns="http://www.w3.org/2000/svg" version="1.1" width="500px" height="500px" style="shape-rendering:geometricPrecision; text-rendering:geometricPrecision; image-rendering:optimizeQuality; fill-rule:evenodd; clip-rule:evenodd" xmlns:xlink="http://www.w3.org/1999/xlink">
<g><path style="opacity:0.712" fill="#fdfbcb" d="M 245.5,8.5 C 245.5,8.83333 245.5,9.16667 245.5,9.5C 242.65,9.36386 239.817,9.03052 237,8.5C 232.607,9.86568 228.107,10.5323 223.5,10.5C 225.888,9.6515 228.221,8.6515 230.5,7.5C 235.579,6.17356 240.579,6.50689 245.5,8.5 Z"/></g>
<g><path style="opacity:1" fill="#fefaaa" d="M 245.5,9.5 C 248.978,10.9543 252.645,11.9543 256.5,12.5C 256.833,12.5 257.167,12.5 257.5,12.5C 258.638,15.0862 260.638,16.7529 263.5,17.5C 265.094,20.7642 267.427,23.4309 270.5,25.5C 271.167,25.5 271.5,25.8333 271.5,26.5C 271.604,30.2066 272.604,33.54 274.5,36.5C 276.064,42.3569 276.73,48.3569 276.5,54.5C 275.747,60.5577 273.913,66.2244 271,71.5C 268.398,73.7255 266.565,76.3922 265.5,79.5C 259.425,83.07 253.758,87.2367 248.5,92C 244.909,95.7549 241.909,99.9215 239.5,104.5C 233.32,108.591 227.987,113.591 223.5,119.5C 222.5,119.5 221.5,119.5 220.5,119.5C 220.671,116.203 220.005,115.869 218.5,118.5C 219.309,120.071 219.643,121.738 219.5,123.5C 218.5,123.5 217.5,123.5 216.5,123.5C 216.5,124.833 216.5,126.167 216.5,127.5C 215.448,127.351 214.448,127.517 213.5,128C 204.683,137.984 195.349,147.484 185.5,156.5C 184.614,157.325 184.281,158.325 184.5,159.5C 180.568,162.41 176.568,165.41 172.5,168.5C 168.195,173.141 163.861,177.807 159.5,182.5C 158.311,183.429 156.978,183.762 155.5,183.5C 155.657,184.873 155.49,186.207 155,187.5C 150.842,192.508 146.009,196.508 140.5,199.5C 140.97,195.03 139.97,194.53 137.5,198C 139.155,199.444 139.822,201.278 139.5,203.5C 138.5,203.5 137.5,203.5 136.5,203.5C 136.5,204.833 136.5,206.167 136.5,207.5C 135.448,207.351 134.448,207.517 133.5,208C 130,212.833 125.833,217 121,220.5C 120.517,221.448 120.351,222.448 120.5,223.5C 119.417,223.539 118.417,223.873 117.5,224.5C 112.731,229.259 108.398,234.259 104.5,239.5C 103.448,239.351 102.448,239.517 101.5,240C 98.3006,243.943 94.6339,247.443 90.5,250.5C 89.7057,254.236 87.3724,256.07 83.5,256C 79.0006,259.753 74.0006,262.753 68.5,265C 60.5069,265.5 52.5069,265.666 44.5,265.5C 40.1961,262.343 35.8628,259.176 31.5,256C 30.552,255.517 29.552,255.351 28.5,255.5C 28.4729,253.801 27.8062,252.467 26.5,251.5C 27.2407,248.366 28.2407,245.366 29.5,242.5C 27.8561,242.714 26.3561,242.38 25,241.5C 24.3333,238.833 23.6667,236.167 23,233.5C 22.1667,235.5 21.3333,237.5 20.5,239.5C 19.3384,235.541 18.8384,231.541 19,227.5C 20,228.833 21,228.833 22,227.5C 24.5865,222.556 24.5865,217.556 22,212.5C 21.6667,215.833 21.3333,219.167 21,222.5C 20.6667,222.833 20.3333,223.167 20,223.5C 19.1922,221.577 18.6922,219.577 18.5,217.5C 19.5462,212.233 21.2129,207.233 23.5,202.5C 24.7348,202.721 25.7348,203.388 26.5,204.5C 27.086,204.291 27.586,203.957 28,203.5C 26.6559,202.526 26.3226,200.526 27,197.5C 28.6852,195.012 30.0186,195.345 31,198.5C 29.7398,195.367 30.4065,192.7 33,190.5C 34.1827,191.731 35.3493,191.731 36.5,190.5C 34.565,189.787 34.2317,188.787 35.5,187.5C 39.8972,183.108 43.8972,178.442 47.5,173.5C 47.8333,172.5 48.5,171.833 49.5,171.5C 55.8606,167.139 61.194,161.806 65.5,155.5C 74.7804,147.556 83.7804,139.223 92.5,130.5C 93.1515,131.091 93.8182,131.757 94.5,132.5C 94.9972,130.784 95.3306,129.117 95.5,127.5C 96.3914,126.41 97.3914,126.41 98.5,127.5C 99.7112,126.726 99.7112,125.893 98.5,125C 99.4491,124.383 100.282,124.549 101,125.5C 102.5,121.333 105.333,118.5 109.5,117C 108.748,116.329 108.414,115.496 108.5,114.5C 109.925,113.078 110.925,111.411 111.5,109.5C 117.833,105.167 123.167,99.8333 127.5,93.5C 133.833,89.1667 139.167,83.8333 143.5,77.5C 153.48,68.5222 163.48,59.5222 173.5,50.5C 173.369,51.3764 173.702,52.0431 174.5,52.5C 175.731,51.3493 175.731,50.1827 174.5,49C 175.292,46.6639 176.625,46.1639 178.5,47.5C 178.998,46.3966 179.331,45.3966 179.5,44.5C 180.293,44.9312 181.127,45.2645 182,45.5C 184.322,43.6785 186.489,41.6785 188.5,39.5C 189.242,37.8918 189.409,36.2251 189,34.5C 191.427,35.567 191.927,34.9003 190.5,32.5C 194.502,26.4684 199.836,22.4684 206.5,20.5C 210.363,19.3064 213.363,16.973 215.5,13.5C 217.887,11.8975 220.554,10.8975 223.5,10.5C 228.107,10.5323 232.607,9.86568 237,8.5C 239.817,9.03052 242.65,9.36386 245.5,9.5 Z"/></g>
<g><path style="opacity:0.922" fill="#fdfcd8" d="M 245.5,9.5 C 245.5,9.16667 245.5,8.83333 245.5,8.5C 249.54,8.89053 253.207,10.2239 256.5,12.5C 252.645,11.9543 248.978,10.9543 245.5,9.5 Z"/></g>
<g><path style="opacity:0.584" fill="#fefcd8" d="M 230.5,7.5 C 228.221,8.6515 225.888,9.6515 223.5,10.5C 220.554,10.8975 217.887,11.8975 215.5,13.5C 213.372,14.9573 211.038,15.9573 208.5,16.5C 214.748,11.1864 222.081,8.18637 230.5,7.5 Z"/></g>
<g><path style="opacity:0.192" fill="#fffde5" d="M 257.5,12.5 C 259.909,13.7007 261.909,15.3674 263.5,17.5C 260.638,16.7529 258.638,15.0862 257.5,12.5 Z"/></g>
<g><path style="opacity:1" fill="#fdf9bb" d="M 215.5,13.5 C 213.363,16.973 210.363,19.3064 206.5,20.5C 207.6,19.3951 208.267,18.0618 208.5,16.5C 211.038,15.9573 213.372,14.9573 215.5,13.5 Z"/></g>
<g><path style="opacity:0.659" fill="#fefde0" d="M 263.5,17.5 C 266.573,19.5691 268.906,22.2358 270.5,25.5C 267.427,23.4309 265.094,20.7642 263.5,17.5 Z"/></g>
<g><path style="opacity:0.631" fill="#fdfcd6" d="M 208.5,16.5 C 208.267,18.0618 207.6,19.3951 206.5,20.5C 199.836,22.4684 194.502,26.4684 190.5,32.5C 189.609,33.1098 188.609,33.4431 187.5,33.5C 191.63,28.8688 195.963,24.3688 200.5,20C 201.549,19.5078 202.549,19.6744 203.5,20.5C 205.186,19.1431 206.852,17.8098 208.5,16.5 Z"/></g>
<g><path style="opacity:0.737" fill="#fefdd3" d="M 271.5,26.5 C 274.837,30.8579 276.837,35.8579 277.5,41.5C 276.313,39.9275 275.313,38.2608 274.5,36.5C 272.604,33.54 271.604,30.2066 271.5,26.5 Z"/></g>
<g><path style="opacity:1" fill="#fdfab2" d="M 190.5,32.5 C 191.927,34.9003 191.427,35.567 189,34.5C 189.409,36.2251 189.242,37.8918 188.5,39.5C 186.489,41.6785 184.322,43.6785 182,45.5C 181.127,45.2645 180.293,44.9312 179.5,44.5C 179.331,45.3966 178.998,46.3966 178.5,47.5C 176.625,46.1639 175.292,46.6639 174.5,49C 175.731,50.1827 175.731,51.3493 174.5,52.5C 173.702,52.0431 173.369,51.3764 173.5,50.5C 173.5,49.5 173.5,48.5 173.5,47.5C 174.5,45.8333 175.833,44.5 177.5,43.5C 181.833,41.1667 185.167,37.8333 187.5,33.5C 188.609,33.4431 189.609,33.1098 190.5,32.5 Z"/></g>
<g><path style="opacity:0.863" fill="#fefdd4" d="M 187.5,33.5 C 185.167,37.8333 181.833,41.1667 177.5,43.5C 180.5,39.8333 183.833,36.5 187.5,33.5 Z"/></g>
<g><path style="opacity:0.937" fill="#fcfcce" d="M 274.5,36.5 C 275.313,38.2608 276.313,39.9275 277.5,41.5C 278.597,45.8901 278.597,50.2234 277.5,54.5C 277.167,54.5 276.833,54.5 276.5,54.5C 276.73,48.3569 276.064,42.3569 274.5,36.5 Z"/></g>
<g><path style="opacity:0.757" fill="#fefdd5" d="M 173.5,47.5 C 173.5,48.5 173.5,49.5 173.5,50.5C 163.48,59.5222 153.48,68.5222 143.5,77.5C 153.167,67.1667 163.167,57.1667 173.5,47.5 Z"/></g>
<g><path style="opacity:0.392" fill="#fefdd7" d="M 276.5,54.5 C 276.833,54.5 277.167,54.5 277.5,54.5C 276.965,64.5674 272.965,72.9007 265.5,79.5C 266.565,76.3922 268.398,73.7255 271,71.5C 273.913,66.2244 275.747,60.5577 276.5,54.5 Z"/></g>
<g><path style="opacity:0.753" fill="#fefcdf" d="M 431.5,84.5 C 429.5,84.5 427.5,84.5 425.5,84.5C 419.69,83.5104 413.69,83.1771 407.5,83.5C 415.615,80.6915 423.615,81.0248 431.5,84.5 Z"/></g>
<g><path style="opacity:0.784" fill="#fefcdb" d="M 407.5,83.5 C 405.562,85.1628 403.228,85.8294 400.5,85.5C 402.599,84.3882 404.933,83.7215 407.5,83.5 Z"/></g>
<g><path style="opacity:0.722" fill="#fefdd5" d="M 143.5,77.5 C 139.167,83.8333 133.833,89.1667 127.5,93.5C 132.5,87.8333 137.833,82.5 143.5,77.5 Z"/></g>
<g><path style="opacity:1" fill="#fefaaa" d="M 425.5,84.5 C 427.5,84.5 429.5,84.5 431.5,84.5C 437.029,87.3303 442.362,90.6636 447.5,94.5C 447.957,96.7727 449.29,98.106 451.5,98.5C 451.427,100.027 452.094,101.027 453.5,101.5C 453.366,103.292 453.699,104.958 454.5,106.5C 455.173,111.01 456.339,115.343 458,119.5C 458.497,122.146 458.664,124.813 458.5,127.5C 458.335,132.995 457.335,138.328 455.5,143.5C 453.937,145.73 451.937,147.73 449.5,149.5C 448.068,152.327 447.401,155.327 447.5,158.5C 447.5,159.167 447.167,159.5 446.5,159.5C 444.956,159.703 443.622,160.37 442.5,161.5C 435.984,168.85 428.984,175.683 421.5,182C 418.866,184.454 416.866,187.287 415.5,190.5C 408.833,194.5 403.5,199.833 399.5,206.5C 399.5,207.167 399.167,207.5 398.5,207.5C 396.956,207.703 395.622,208.37 394.5,209.5C 389.735,213.592 385.735,218.259 382.5,223.5C 380.956,223.703 379.622,224.37 378.5,225.5C 375.473,228.527 372.473,231.527 369.5,234.5C 368.37,235.622 367.703,236.956 367.5,238.5C 367.5,239.167 367.167,239.5 366.5,239.5C 364.956,239.703 363.622,240.37 362.5,241.5C 359.473,244.527 356.473,247.527 353.5,250.5C 352.37,251.622 351.703,252.956 351.5,254.5C 351.5,255.167 351.167,255.5 350.5,255.5C 343.93,258.947 338.93,263.947 335.5,270.5C 335.5,271.167 335.167,271.5 334.5,271.5C 328.167,275.167 323.167,280.167 319.5,286.5C 319.5,287.167 319.167,287.5 318.5,287.5C 316.566,288.11 314.899,289.11 313.5,290.5C 311.43,290.449 309.597,291.115 308,292.5C 306.56,291.852 305.06,291.519 303.5,291.5C 303.674,293.861 304.007,296.194 304.5,298.5C 300.5,298.5 298.5,300.5 298.5,304.5C 296.248,303.667 294.081,303.667 292,304.5C 291.251,305.635 291.417,306.635 292.5,307.5C 294.214,306.391 294.881,307.058 294.5,309.5C 293.833,309.5 293.5,309.833 293.5,310.5C 291.981,309.671 290.315,308.838 288.5,308C 287.667,310.081 287.667,312.248 288.5,314.5C 284.5,314.5 282.5,316.5 282.5,320.5C 277.273,320.005 275.939,321.672 278.5,325.5C 275.791,328.208 273.458,331.208 271.5,334.5C 271.5,335.167 271.167,335.5 270.5,335.5C 263.93,338.947 258.93,343.947 255.5,350.5C 255.5,351.167 255.167,351.5 254.5,351.5C 248.167,355.167 243.167,360.167 239.5,366.5C 239.5,367.167 239.167,367.5 238.5,367.5C 236.264,368.389 234.264,369.722 232.5,371.5C 225.14,379.527 217.473,387.194 209.5,394.5C 208.37,395.622 207.703,396.956 207.5,398.5C 207.5,399.167 207.167,399.5 206.5,399.5C 203.884,400.48 201.551,401.98 199.5,404C 195.605,408.806 191.272,413.14 186.5,417C 184.866,417.494 183.199,417.66 181.5,417.5C 179.984,420.374 177.984,423.041 175.5,425.5C 169.795,427.983 164.462,430.65 159.5,433.5C 154.489,433.666 149.489,433.499 144.5,433C 140.617,431.521 136.617,430.355 132.5,429.5C 126.896,425.235 121.563,420.568 116.5,415.5C 115.733,411.728 114.066,408.395 111.5,405.5C 110.08,396.789 110.246,388.123 112,379.5C 114.855,375.964 116.855,371.964 118,367.5C 120.883,365.392 123.05,362.725 124.5,359.5C 124.833,359.5 125.167,359.5 125.5,359.5C 128.269,358.291 130.769,356.624 133,354.5C 134.323,351.691 135.823,349.025 137.5,346.5C 141.54,341.294 146.373,336.961 152,333.5C 152.649,330.353 154.482,328.353 157.5,327.5C 159.802,325.562 162.302,323.895 165,322.5C 166.45,320.243 167.617,317.91 168.5,315.5C 168.833,314.5 169.5,313.833 170.5,313.5C 174.146,311.518 177.146,308.851 179.5,305.5C 181.094,302.236 183.427,299.569 186.5,297.5C 187.239,297.631 187.906,297.464 188.5,297C 192.858,292.693 196.858,288.193 200.5,283.5C 200.833,282.5 201.5,281.833 202.5,281.5C 208.5,278.167 213.167,273.5 216.5,267.5C 216.833,266.5 217.5,265.833 218.5,265.5C 221.354,263.491 224.354,261.657 227.5,260C 228.971,258.417 229.971,256.583 230.5,254.5C 236.464,246.868 243.131,239.868 250.5,233.5C 251.239,233.631 251.906,233.464 252.5,233C 256.947,228.147 261.281,223.314 265.5,218.5C 265.5,217.833 265.833,217.5 266.5,217.5C 269.025,215.823 271.691,214.323 274.5,213C 276.779,209.97 278.779,206.803 280.5,203.5C 280.833,202.5 281.5,201.833 282.5,201.5C 285.025,199.823 287.691,198.323 290.5,197C 292.779,193.97 294.779,190.803 296.5,187.5C 296.833,186.5 297.5,185.833 298.5,185.5C 304.543,182.158 309.21,177.491 312.5,171.5C 313.167,170.167 314.167,169.167 315.5,168.5C 316.931,167.918 318.264,167.085 319.5,166C 323.016,162.917 326.016,159.417 328.5,155.5C 329.11,154.609 329.443,153.609 329.5,152.5C 330.167,152.5 330.833,152.5 331.5,152.5C 337.5,149.167 342.167,144.5 345.5,138.5C 345.5,137.833 345.833,137.5 346.5,137.5C 349.179,137.475 350.512,136.142 350.5,133.5C 355.167,133.5 357.5,131.167 357.5,126.5C 359.484,126.383 361.15,127.05 362.5,128.5C 363.308,128.192 363.975,127.692 364.5,127C 362.393,125.736 361.393,123.903 361.5,121.5C 367.059,118.945 371.393,114.945 374.5,109.5C 375.5,107.833 376.833,106.5 378.5,105.5C 380.371,105.859 381.871,106.859 383,108.5C 383.576,106.623 383.409,104.789 382.5,103C 386.081,99.5891 389.415,96.0891 392.5,92.5C 392.5,91.8333 392.833,91.5 393.5,91.5C 396.81,90.5538 400.144,90.3871 403.5,91C 404.634,89.984 404.301,89.3173 402.5,89C 404.483,87.1111 406.816,85.7777 409.5,85C 414.823,84.5006 420.156,84.334 425.5,84.5 Z"/></g>
<g><path style="opacity:0.186" fill="#fefdde" d="M 431.5,84.5 C 438.176,85.8303 443.509,89.1636 447.5,94.5C 442.362,90.6636 437.029,87.3303 431.5,84.5 Z"/></g>
<g><path style="opacity:1" fill="#fdf9b5" d="M 407.5,83.5 C 413.69,83.1771 419.69,83.5104 425.5,84.5C 420.156,84.334 414.823,84.5006 409.5,85C 406.816,85.7777 404.483,87.1111 402.5,89C 404.301,89.3173 404.634,89.984 403.5,91C 400.144,90.3871 396.81,90.5538 393.5,91.5C 395.5,89.8333 397.5,88.1667 399.5,86.5C 399.5,85.8333 399.833,85.5 400.5,85.5C 403.228,85.8294 405.562,85.1628 407.5,83.5 Z"/></g>
<g><path style="opacity:0.827" fill="#fdfccf" d="M 265.5,79.5 C 257.19,88.1423 248.523,96.4756 239.5,104.5C 241.909,99.9215 244.909,95.7549 248.5,92C 253.758,87.2367 259.425,83.07 265.5,79.5 Z"/></g>
<g><path style="opacity:0.863" fill="#fefcd8" d="M 399.5,86.5 C 397.5,88.1667 395.5,89.8333 393.5,91.5C 392.833,91.5 392.5,91.8333 392.5,92.5C 391.292,93.2341 389.959,93.5674 388.5,93.5C 391.387,89.9479 395.053,87.6146 399.5,86.5 Z"/></g>
<g><path style="opacity:0.859" fill="#fefdda" d="M 447.5,94.5 C 449.5,95.1667 450.833,96.5 451.5,98.5C 449.29,98.106 447.957,96.7727 447.5,94.5 Z"/></g>
<g><path style="opacity:0.447" fill="#fffedf" d="M 388.5,93.5 C 387.167,96.8333 384.833,99.1667 381.5,100.5C 383.5,97.8333 385.833,95.5 388.5,93.5 Z"/></g>
<g><path style="opacity:0.718" fill="#fefdd6" d="M 127.5,93.5 C 123.167,99.8333 117.833,105.167 111.5,109.5C 116.5,103.833 121.833,98.5 127.5,93.5 Z"/></g>
<g><path style="opacity:0.29" fill="#fffee3" d="M 451.5,98.5 C 452.906,98.9731 453.573,99.9731 453.5,101.5C 452.094,101.027 451.427,100.027 451.5,98.5 Z"/></g>
<g><path style="opacity:0.282" fill="#fffedb" d="M 381.5,100.5 C 380.925,102.411 379.925,104.078 378.5,105.5C 376.833,106.5 375.5,107.833 374.5,109.5C 373.833,109.5 373.167,109.5 372.5,109.5C 375.167,106.167 378.167,103.167 381.5,100.5 Z"/></g>
<g><path style="opacity:1" fill="#fdf9b7" d="M 392.5,92.5 C 389.415,96.0891 386.081,99.5891 382.5,103C 383.409,104.789 383.576,106.623 383,108.5C 381.871,106.859 380.371,105.859 378.5,105.5C 379.925,104.078 380.925,102.411 381.5,100.5C 384.833,99.1667 387.167,96.8333 388.5,93.5C 389.959,93.5674 391.292,93.2341 392.5,92.5 Z"/></g>
<g><path style="opacity:0.839" fill="#fdfbd7" d="M 453.5,101.5 C 455.588,103.336 456.921,105.669 457.5,108.5C 456.222,108.218 455.222,107.551 454.5,106.5C 453.699,104.958 453.366,103.292 453.5,101.5 Z"/></g>
<g><path style="opacity:1" fill="#fdf9b6" d="M 454.5,106.5 C 455.222,107.551 456.222,108.218 457.5,108.5C 457.5,108.833 457.5,109.167 457.5,109.5C 457.338,111.527 457.505,113.527 458,115.5C 458.383,116.056 458.883,116.389 459.5,116.5C 459.815,120.371 459.482,124.038 458.5,127.5C 458.664,124.813 458.497,122.146 458,119.5C 456.339,115.343 455.173,111.01 454.5,106.5 Z"/></g>
<g><path style="opacity:0.498" fill="#fffdd5" d="M 457.5,109.5 C 458.924,111.515 459.59,113.848 459.5,116.5C 458.883,116.389 458.383,116.056 458,115.5C 457.505,113.527 457.338,111.527 457.5,109.5 Z"/></g>
<g><path style="opacity:0.729" fill="#fefdd4" d="M 111.5,109.5 C 110.925,111.411 109.925,113.078 108.5,114.5C 105.105,117.902 101.438,120.902 97.5,123.5C 101.833,118.5 106.5,113.833 111.5,109.5 Z"/></g>
<g><path style="opacity:1" fill="#fdfbbe" d="M 223.5,119.5 C 223.5,119.833 223.5,120.167 223.5,120.5C 221.5,122.833 219.5,125.167 217.5,127.5C 217.167,127.5 216.833,127.5 216.5,127.5C 216.5,126.167 216.5,124.833 216.5,123.5C 217.5,123.5 218.5,123.5 219.5,123.5C 219.643,121.738 219.309,120.071 218.5,118.5C 220.005,115.869 220.671,116.203 220.5,119.5C 221.5,119.5 222.5,119.5 223.5,119.5 Z"/></g>
<g><path style="opacity:0.78" fill="#fdfdd1" d="M 239.5,104.5 C 234.833,110.5 229.5,115.833 223.5,120.5C 223.5,120.167 223.5,119.833 223.5,119.5C 227.987,113.591 233.32,108.591 239.5,104.5 Z"/></g>
<g><path style="opacity:0.486" fill="#fffddb" d="M 372.5,109.5 C 369.94,113.57 366.773,117.236 363,120.5C 362.601,120.272 362.435,119.938 362.5,119.5C 365.5,115.833 368.833,112.5 372.5,109.5 Z"/></g>
<g><path style="opacity:0.933" fill="#fefcda" d="M 360.5,121.5 C 360.833,124.5 359.5,125.833 356.5,125.5C 357.5,123.833 358.833,122.5 360.5,121.5 Z"/></g>
<g><path style="opacity:1" fill="#fcfab6" d="M 108.5,114.5 C 108.414,115.496 108.748,116.329 109.5,117C 105.333,118.5 102.5,121.333 101,125.5C 100.282,124.549 99.4491,124.383 98.5,125C 99.7112,125.893 99.7112,126.726 98.5,127.5C 97.3914,126.41 96.3914,126.41 95.5,127.5C 95.3306,129.117 94.9972,130.784 94.5,132.5C 93.8182,131.757 93.1515,131.091 92.5,130.5C 93.1098,129.609 93.4431,128.609 93.5,127.5C 94.5,125.833 95.8333,124.5 97.5,123.5C 101.438,120.902 105.105,117.902 108.5,114.5 Z"/></g>
<g><path style="opacity:0.443" fill="#fefdda" d="M 356.5,125.5 C 355.5,129.167 353.167,131.5 349.5,132.5C 351.5,129.833 353.833,127.5 356.5,125.5 Z"/></g>
<g><path style="opacity:1" fill="#fcfab7" d="M 372.5,109.5 C 373.167,109.5 373.833,109.5 374.5,109.5C 371.393,114.945 367.059,118.945 361.5,121.5C 361.393,123.903 362.393,125.736 364.5,127C 363.975,127.692 363.308,128.192 362.5,128.5C 361.15,127.05 359.484,126.383 357.5,126.5C 357.5,131.167 355.167,133.5 350.5,133.5C 350.512,136.142 349.179,137.475 346.5,137.5C 347.925,136.078 348.925,134.411 349.5,132.5C 353.167,131.5 355.5,129.167 356.5,125.5C 359.5,125.833 360.833,124.5 360.5,121.5C 360.833,120.5 361.5,119.833 362.5,119.5C 362.435,119.938 362.601,120.272 363,120.5C 366.773,117.236 369.94,113.57 372.5,109.5 Z"/></g>
<g><path style="opacity:0.675" fill="#fefddb" d="M 459.5,116.5 C 461.239,125.263 460.406,133.929 457,142.5C 456.617,143.056 456.117,143.389 455.5,143.5C 457.335,138.328 458.335,132.995 458.5,127.5C 459.482,124.038 459.815,120.371 459.5,116.5 Z"/></g>
<g><path style="opacity:0.392" fill="#fffdde" d="M 349.5,132.5 C 348.925,134.411 347.925,136.078 346.5,137.5C 345.833,137.5 345.5,137.833 345.5,138.5C 343.098,140.909 340.431,142.909 337.5,144.5C 341.167,140.167 345.167,136.167 349.5,132.5 Z"/></g>
<g><path style="opacity:0.204" fill="#fdfcd1" d="M 216.5,127.5 C 216.833,127.5 217.167,127.5 217.5,127.5C 206.5,138.167 195.5,148.833 184.5,159.5C 184.281,158.325 184.614,157.325 185.5,156.5C 195.349,147.484 204.683,137.984 213.5,128C 214.448,127.517 215.448,127.351 216.5,127.5 Z"/></g>
<g><path style="opacity:1" fill="#fcf9bf" d="M 345.5,138.5 C 342.167,144.5 337.5,149.167 331.5,152.5C 333.58,150.427 335.246,148.093 336.5,145.5C 336.5,144.833 336.833,144.5 337.5,144.5C 340.431,142.909 343.098,140.909 345.5,138.5 Z"/></g>
<g><path style="opacity:0.471" fill="#fffde7" d="M 336.5,145.5 C 335.246,148.093 333.58,150.427 331.5,152.5C 330.833,152.5 330.167,152.5 329.5,152.5C 331.5,149.833 333.833,147.5 336.5,145.5 Z"/></g>
<g><path style="opacity:0.741" fill="#fefdd4" d="M 93.5,127.5 C 93.4431,128.609 93.1098,129.609 92.5,130.5C 83.7804,139.223 74.7804,147.556 65.5,155.5C 74.5,145.833 83.8333,136.5 93.5,127.5 Z"/></g>
<g><path style="opacity:0.961" fill="#fdfcd3" d="M 455.5,143.5 C 453.07,148.698 450.403,153.698 447.5,158.5C 447.401,155.327 448.068,152.327 449.5,149.5C 451.937,147.73 453.937,145.73 455.5,143.5 Z"/></g>
<g><path style="opacity:0.455" fill="#fffde1" d="M 329.5,152.5 C 329.443,153.609 329.11,154.609 328.5,155.5C 326.427,157.58 324.093,159.246 321.5,160.5C 323.833,157.5 326.5,154.833 329.5,152.5 Z"/></g>
<g><path style="opacity:1" fill="#fcf9c0" d="M 328.5,155.5 C 326.016,159.417 323.016,162.917 319.5,166C 318.264,167.085 316.931,167.918 315.5,168.5C 316.11,167.609 316.443,166.609 316.5,165.5C 318.833,165.167 320.167,163.833 320.5,161.5C 320.5,160.833 320.833,160.5 321.5,160.5C 324.093,159.246 326.427,157.58 328.5,155.5 Z"/></g>
<g><path style="opacity:0.463" fill="#fefed8" d="M 446.5,159.5 C 436.5,170.167 426.167,180.5 415.5,190.5C 416.866,187.287 418.866,184.454 421.5,182C 428.984,175.683 435.984,168.85 442.5,161.5C 443.622,160.37 444.956,159.703 446.5,159.5 Z"/></g>
<g><path style="opacity:0.325" fill="#fffde8" d="M 320.5,161.5 C 320.167,163.833 318.833,165.167 316.5,165.5C 317.5,163.833 318.833,162.5 320.5,161.5 Z"/></g>
<g><path style="opacity:0.663" fill="#fefdd5" d="M 65.5,155.5 C 61.194,161.806 55.8606,167.139 49.5,171.5C 54.5,165.833 59.8333,160.5 65.5,155.5 Z"/></g>
<g><path style="opacity:0.816" fill="#fdfcca" d="M 184.5,159.5 C 168.806,175.86 152.806,191.86 136.5,207.5C 136.5,206.167 136.5,204.833 136.5,203.5C 137.5,203.5 138.5,203.5 139.5,203.5C 139.822,201.278 139.155,199.444 137.5,198C 139.97,194.53 140.97,195.03 140.5,199.5C 146.009,196.508 150.842,192.508 155,187.5C 155.49,186.207 155.657,184.873 155.5,183.5C 156.978,183.762 158.311,183.429 159.5,182.5C 163.861,177.807 168.195,173.141 172.5,168.5C 176.568,165.41 180.568,162.41 184.5,159.5 Z"/></g>
<g><path style="opacity:0.408" fill="#fffde0" d="M 316.5,165.5 C 316.443,166.609 316.11,167.609 315.5,168.5C 314.167,169.167 313.167,170.167 312.5,171.5C 310.427,173.58 308.093,175.246 305.5,176.5C 308.833,172.5 312.5,168.833 316.5,165.5 Z"/></g>
<g><path style="opacity:1" fill="#fcf9bf" d="M 312.5,171.5 C 309.21,177.491 304.543,182.158 298.5,185.5C 300.909,183.098 302.909,180.431 304.5,177.5C 304.5,176.833 304.833,176.5 305.5,176.5C 308.093,175.246 310.427,173.58 312.5,171.5 Z"/></g>
<g><path style="opacity:0.816" fill="#fefdd6" d="M 47.5,173.5 C 43.8972,178.442 39.8972,183.108 35.5,187.5C 34.8333,187.5 34.1667,187.5 33.5,187.5C 37.8333,182.5 42.5,177.833 47.5,173.5 Z"/></g>
<g><path style="opacity:1" fill="#fdfbb9" d="M 33.5,187.5 C 34.1667,187.5 34.8333,187.5 35.5,187.5C 34.2317,188.787 34.565,189.787 36.5,190.5C 35.3493,191.731 34.1827,191.731 33,190.5C 30.4065,192.7 29.7398,195.367 31,198.5C 30.0186,195.345 28.6852,195.012 27,197.5C 26.3226,200.526 26.6559,202.526 28,203.5C 27.586,203.957 27.086,204.291 26.5,204.5C 25.7348,203.388 24.7348,202.721 23.5,202.5C 24.1667,200.833 24.8333,199.167 25.5,197.5C 25.5,197.167 25.5,196.833 25.5,196.5C 27.5869,195.415 28.9202,193.749 29.5,191.5C 30.5,189.833 31.8333,188.5 33.5,187.5 Z"/></g>
<g><path style="opacity:0.933" fill="#fefddc" d="M 304.5,177.5 C 302.909,180.431 300.909,183.098 298.5,185.5C 297.5,185.833 296.833,186.5 296.5,187.5C 292.167,192.5 287.5,197.167 282.5,201.5C 281.5,201.833 280.833,202.5 280.5,203.5C 276.167,208.5 271.5,213.167 266.5,217.5C 265.833,217.5 265.5,217.833 265.5,218.5C 263.098,220.909 260.431,222.909 257.5,224.5C 272.833,208.5 288.5,192.833 304.5,177.5 Z"/></g>
<g><path style="opacity:0.027" fill="#fefed9" d="M 415.5,190.5 C 410.5,196.167 405.167,201.5 399.5,206.5C 403.5,199.833 408.833,194.5 415.5,190.5 Z"/></g>
<g><path style="opacity:0.576" fill="#fefce0" d="M 29.5,191.5 C 28.9202,193.749 27.5869,195.415 25.5,196.5C 26.0798,194.251 27.4131,192.585 29.5,191.5 Z"/></g>
<g><path style="opacity:1" fill="#fcf9b6" d="M 296.5,187.5 C 294.779,190.803 292.779,193.97 290.5,197C 287.691,198.323 285.025,199.823 282.5,201.5C 287.5,197.167 292.167,192.5 296.5,187.5 Z"/></g>
<g><path style="opacity:0.557" fill="#fefce0" d="M 25.5,197.5 C 24.8333,199.167 24.1667,200.833 23.5,202.5C 22.1667,203.833 20.8333,205.167 19.5,206.5C 20.2633,202.63 22.2633,199.63 25.5,197.5 Z"/></g>
<g><path style="opacity:0.765" fill="#fefdd9" d="M 19.5,206.5 C 18.8333,209.833 18.1667,213.167 17.5,216.5C 16.8333,217.167 16.1667,217.833 15.5,218.5C 15.8606,214.085 17.1939,210.085 19.5,206.5 Z"/></g>
<g><path style="opacity:1" fill="#fcf9b6" d="M 280.5,203.5 C 278.779,206.803 276.779,209.97 274.5,213C 271.691,214.323 269.025,215.823 266.5,217.5C 271.5,213.167 276.167,208.5 280.5,203.5 Z"/></g>
<g><path style="opacity:0.031" fill="#fefed9" d="M 398.5,207.5 C 393.5,213.167 388.167,218.5 382.5,223.5C 385.735,218.259 389.735,213.592 394.5,209.5C 395.622,208.37 396.956,207.703 398.5,207.5 Z"/></g>
<g><path style="opacity:1" fill="#fefaaf" d="M 23.5,202.5 C 21.2129,207.233 19.5462,212.233 18.5,217.5C 18.6922,219.577 19.1922,221.577 20,223.5C 20.3333,223.167 20.6667,222.833 21,222.5C 21.3333,219.167 21.6667,215.833 22,212.5C 24.5865,217.556 24.5865,222.556 22,227.5C 21,228.833 20,228.833 19,227.5C 18.8384,231.541 19.3384,235.541 20.5,239.5C 21.3333,237.5 22.1667,235.5 23,233.5C 23.6667,236.167 24.3333,238.833 25,241.5C 26.3561,242.38 27.8561,242.714 29.5,242.5C 28.2407,245.366 27.2407,248.366 26.5,251.5C 22.928,248.146 20.2614,244.146 18.5,239.5C 18.3186,234.439 17.6519,229.439 16.5,224.5C 16.837,221.824 17.1703,219.157 17.5,216.5C 18.1667,213.167 18.8333,209.833 19.5,206.5C 20.8333,205.167 22.1667,203.833 23.5,202.5 Z"/></g>
<g><path style="opacity:0.761" fill="#fefcd3" d="M 136.5,207.5 C 131.833,213.5 126.5,218.833 120.5,223.5C 120.351,222.448 120.517,221.448 121,220.5C 125.833,217 130,212.833 133.5,208C 134.448,207.517 135.448,207.351 136.5,207.5 Z"/></g>
<g><path style="opacity:0.765" fill="#fdfbcd" d="M 17.5,216.5 C 17.1703,219.157 16.837,221.824 16.5,224.5C 17.6519,229.439 18.3186,234.439 18.5,239.5C 18.1667,239.5 17.8333,239.5 17.5,239.5C 17.5,239.167 17.5,238.833 17.5,238.5C 17.7062,235.505 17.0395,232.838 15.5,230.5C 14.2092,226.601 14.2092,222.601 15.5,218.5C 16.1667,217.833 16.8333,217.167 17.5,216.5 Z"/></g>
<g><path style="opacity:1" fill="#fcfabf" d="M 265.5,218.5 C 261.281,223.314 256.947,228.147 252.5,233C 251.906,233.464 251.239,233.631 250.5,233.5C 250.833,232.833 251.167,232.167 251.5,231.5C 253.914,230.089 255.581,228.089 256.5,225.5C 256.5,224.833 256.833,224.5 257.5,224.5C 260.431,222.909 263.098,220.909 265.5,218.5 Z"/></g>
<g><path style="opacity:0.4" fill="#fffde6" d="M 256.5,225.5 C 255.581,228.089 253.914,230.089 251.5,231.5C 251.167,231.5 250.833,231.5 250.5,231.5C 252.167,229.167 254.167,227.167 256.5,225.5 Z"/></g>
<g><path style="opacity:0.027" fill="#fefed9" d="M 382.5,223.5 C 377.833,228.833 372.833,233.833 367.5,238.5C 367.703,236.956 368.37,235.622 369.5,234.5C 372.473,231.527 375.473,228.527 378.5,225.5C 379.622,224.37 380.956,223.703 382.5,223.5 Z"/></g>
<g><path style="opacity:0.147" fill="#fefddf" d="M 15.5,230.5 C 17.0395,232.838 17.7062,235.505 17.5,238.5C 15.9605,236.162 15.2938,233.495 15.5,230.5 Z"/></g>
<g><path style="opacity:0.816" fill="#fefdd2" d="M 120.5,223.5 C 115.833,229.5 110.5,234.833 104.5,239.5C 108.398,234.259 112.731,229.259 117.5,224.5C 118.417,223.873 119.417,223.539 120.5,223.5 Z"/></g>
<g><path style="opacity:0.471" fill="#fefed8" d="M 366.5,239.5 C 361.833,244.833 356.833,249.833 351.5,254.5C 351.703,252.956 352.37,251.622 353.5,250.5C 356.473,247.527 359.473,244.527 362.5,241.5C 363.622,240.37 364.956,239.703 366.5,239.5 Z"/></g>
<g><path style="opacity:0.557" fill="#fefdd8" d="M 17.5,239.5 C 17.8333,239.5 18.1667,239.5 18.5,239.5C 20.2614,244.146 22.928,248.146 26.5,251.5C 27.8062,252.467 28.4729,253.801 28.5,255.5C 22.8853,251.635 19.2186,246.301 17.5,239.5 Z"/></g>
<g><path style="opacity:0.216" fill="#fffdda" d="M 250.5,231.5 C 250.833,231.5 251.167,231.5 251.5,231.5C 251.167,232.167 250.833,232.833 250.5,233.5C 243.131,239.868 236.464,246.868 230.5,254.5C 225.921,257.407 221.921,261.074 218.5,265.5C 217.5,265.833 216.833,266.5 216.5,267.5C 214.427,269.58 212.093,271.246 209.5,272.5C 222.833,258.5 236.5,244.833 250.5,231.5 Z"/></g>
<g><path style="opacity:0.478" fill="#fdfcd7" d="M 28.5,255.5 C 29.552,255.351 30.552,255.517 31.5,256C 35.8628,259.176 40.1961,262.343 44.5,265.5C 37.8091,264.106 32.4757,260.773 28.5,255.5 Z"/></g>
<g><path style="opacity:0.259" fill="#fefcd1" d="M 104.5,239.5 C 97.4157,248.435 89.0824,255.768 79.5,261.5C 77.8212,261.285 76.8212,261.952 76.5,263.5C 65.9764,267.872 55.3098,268.538 44.5,265.5C 52.5069,265.666 60.5069,265.5 68.5,265C 74.0006,262.753 79.0006,259.753 83.5,256C 87.3724,256.07 89.7057,254.236 90.5,250.5C 94.6339,247.443 98.3006,243.943 101.5,240C 102.448,239.517 103.448,239.351 104.5,239.5 Z"/></g>
<g><path style="opacity:0.2" fill="#fffbed" d="M 79.5,261.5 C 78.7095,262.401 77.7095,263.068 76.5,263.5C 76.8212,261.952 77.8212,261.285 79.5,261.5 Z"/></g>
<g><path style="opacity:1" fill="#fcf9b9" d="M 230.5,254.5 C 229.971,256.583 228.971,258.417 227.5,260C 224.354,261.657 221.354,263.491 218.5,265.5C 221.921,261.074 225.921,257.407 230.5,254.5 Z"/></g>
<g><path style="opacity:0.502" fill="#fefed6" d="M 350.5,255.5 C 345.833,260.833 340.833,265.833 335.5,270.5C 338.93,263.947 343.93,258.947 350.5,255.5 Z"/></g>
<g><path style="opacity:1" fill="#fcf9bf" d="M 216.5,267.5 C 213.167,273.5 208.5,278.167 202.5,281.5C 204.909,279.098 206.909,276.431 208.5,273.5C 208.5,272.833 208.833,272.5 209.5,272.5C 212.093,271.246 214.427,269.58 216.5,267.5 Z"/></g>
<g><path style="opacity:0.243" fill="#fffedc" d="M 208.5,273.5 C 206.909,276.431 204.909,279.098 202.5,281.5C 201.5,281.833 200.833,282.5 200.5,283.5C 198.098,285.909 195.431,287.909 192.5,289.5C 197.5,283.833 202.833,278.5 208.5,273.5 Z"/></g>
<g><path style="opacity:0.297" fill="#fefed9" d="M 334.5,271.5 C 329.833,276.833 324.833,281.833 319.5,286.5C 323.167,280.167 328.167,275.167 334.5,271.5 Z"/></g>
<g><path style="opacity:1" fill="#fbf9bd" d="M 200.5,283.5 C 196.858,288.193 192.858,292.693 188.5,297C 187.906,297.464 187.239,297.631 186.5,297.5C 188.909,295.098 190.909,292.431 192.5,289.5C 195.431,287.909 198.098,285.909 200.5,283.5 Z"/></g>
<g><path style="opacity:1" fill="#fefab3" d="M 313.5,290.5 C 309.42,293.91 306.086,297.91 303.5,302.5C 303.167,303.5 302.5,304.167 301.5,304.5C 298.883,305.786 296.55,307.453 294.5,309.5C 294.881,307.058 294.214,306.391 292.5,307.5C 291.417,306.635 291.251,305.635 292,304.5C 294.081,303.667 296.248,303.667 298.5,304.5C 298.5,300.5 300.5,298.5 304.5,298.5C 304.007,296.194 303.674,293.861 303.5,291.5C 305.06,291.519 306.56,291.852 308,292.5C 309.597,291.115 311.43,290.449 313.5,290.5 Z"/></g>
<g><path style="opacity:0.451" fill="#fefed9" d="M 318.5,287.5 C 313.833,292.833 308.833,297.833 303.5,302.5C 306.086,297.91 309.42,293.91 313.5,290.5C 314.899,289.11 316.566,288.11 318.5,287.5 Z"/></g>
<g><path style="opacity:0.4" fill="#fffddb" d="M 192.5,289.5 C 190.909,292.431 188.909,295.098 186.5,297.5C 183.427,299.569 181.094,302.236 179.5,305.5C 175.88,307.453 172.88,310.119 170.5,313.5C 169.5,313.833 168.833,314.5 168.5,315.5C 167.833,315.5 167.167,315.5 166.5,315.5C 174.833,306.5 183.5,297.833 192.5,289.5 Z"/></g>
<g><path style="opacity:0.451" fill="#fefed8" d="M 301.5,304.5 C 297.167,309.5 292.5,314.167 287.5,318.5C 288.738,315.262 290.738,312.596 293.5,310.5C 293.5,309.833 293.833,309.5 294.5,309.5C 296.55,307.453 298.883,305.786 301.5,304.5 Z"/></g>
<g><path style="opacity:1" fill="#fcf9bb" d="M 179.5,305.5 C 177.146,308.851 174.146,311.518 170.5,313.5C 172.88,310.119 175.88,307.453 179.5,305.5 Z"/></g>
<g><path style="opacity:0.341" fill="#fffce6" d="M 166.5,315.5 C 166.5,317.5 165.5,318.5 163.5,318.5C 164.167,317.167 165.167,316.167 166.5,315.5 Z"/></g>
<g><path style="opacity:1" fill="#fef9b1" d="M 293.5,310.5 C 290.738,312.596 288.738,315.262 287.5,318.5C 287.5,319.167 287.167,319.5 286.5,319.5C 283.545,321.122 280.878,323.122 278.5,325.5C 275.939,321.672 277.273,320.005 282.5,320.5C 282.5,316.5 284.5,314.5 288.5,314.5C 287.667,312.248 287.667,310.081 288.5,308C 290.315,308.838 291.981,309.671 293.5,310.5 Z"/></g>
<g><path style="opacity:0.294" fill="#fefed8" d="M 286.5,319.5 C 281.833,324.833 276.833,329.833 271.5,334.5C 273.458,331.208 275.791,328.208 278.5,325.5C 280.878,323.122 283.545,321.122 286.5,319.5 Z"/></g>
<g><path style="opacity:1" fill="#fcf9b9" d="M 166.5,315.5 C 167.167,315.5 167.833,315.5 168.5,315.5C 167.617,317.91 166.45,320.243 165,322.5C 162.302,323.895 159.802,325.562 157.5,327.5C 159.55,324.493 161.55,321.493 163.5,318.5C 165.5,318.5 166.5,317.5 166.5,315.5 Z"/></g>
<g><path style="opacity:0.267" fill="#fefdd8" d="M 163.5,318.5 C 161.55,321.493 159.55,324.493 157.5,327.5C 154.482,328.353 152.649,330.353 152,333.5C 146.373,336.961 141.54,341.294 137.5,346.5C 132.794,350.296 128.794,354.629 125.5,359.5C 125.167,359.5 124.833,359.5 124.5,359.5C 124.351,358.448 124.517,357.448 125,356.5C 137.702,343.631 150.535,330.965 163.5,318.5 Z"/></g>
<g><path style="opacity:0.396" fill="#fefed6" d="M 270.5,335.5 C 265.833,340.833 260.833,345.833 255.5,350.5C 258.93,343.947 263.93,338.947 270.5,335.5 Z"/></g>
<g><path style="opacity:1" fill="#fcfab9" d="M 137.5,346.5 C 135.823,349.025 134.323,351.691 133,354.5C 130.769,356.624 128.269,358.291 125.5,359.5C 128.794,354.629 132.794,350.296 137.5,346.5 Z"/></g>
<g><path style="opacity:0.486" fill="#fefed9" d="M 254.5,351.5 C 249.833,356.833 244.833,361.833 239.5,366.5C 243.167,360.167 248.167,355.167 254.5,351.5 Z"/></g>
<g><path style="opacity:0.027" fill="#fefedb" d="M 238.5,367.5 C 228.5,378.167 218.167,388.5 207.5,398.5C 207.703,396.956 208.37,395.622 209.5,394.5C 217.473,387.194 225.14,379.527 232.5,371.5C 234.264,369.722 236.264,368.389 238.5,367.5 Z"/></g>
<g><path style="opacity:0.566" fill="#fdfdd3" d="M 124.5,359.5 C 123.05,362.725 120.883,365.392 118,367.5C 116.855,371.964 114.855,375.964 112,379.5C 110.246,388.123 110.08,396.789 111.5,405.5C 110.71,404.391 110.21,403.058 110,401.5C 106.633,384.426 111.467,370.426 124.5,359.5 Z"/></g>
<g><path style="opacity:0.11" fill="#fefde0" d="M 111.5,405.5 C 114.066,408.395 115.733,411.728 116.5,415.5C 113.793,412.753 112.127,409.42 111.5,405.5 Z"/></g>
<g><path style="opacity:0.027" fill="#fefdde" d="M 116.5,415.5 C 121.563,420.568 126.896,425.235 132.5,429.5C 125.61,426.61 120.276,421.943 116.5,415.5 Z"/></g>
<g><path style="opacity:0.898" fill="#fefcd2" d="M 206.5,399.5 C 196.191,412.027 184.524,422.194 171.5,430C 167.673,431.79 163.673,432.956 159.5,433.5C 164.462,430.65 169.795,427.983 175.5,425.5C 177.984,423.041 179.984,420.374 181.5,417.5C 183.199,417.66 184.866,417.494 186.5,417C 191.272,413.14 195.605,408.806 199.5,404C 201.551,401.98 203.884,400.48 206.5,399.5 Z"/></g>
<g><path style="opacity:0.902" fill="#fdfcd7" d="M 132.5,429.5 C 136.617,430.355 140.617,431.521 144.5,433C 149.489,433.499 154.489,433.666 159.5,433.5C 149.996,435.676 140.996,434.342 132.5,429.5 Z"/></g>
</svg>
