<?xml version="1.0" encoding="UTF-8"?>
<!DOCTYPE svg PUBLIC "-//W3C//DTD SVG 1.1//EN" "http://www.w3.org/Graphics/SVG/1.1/DTD/svg11.dtd">
<svg xmlns="http://www.w3.org/2000/svg" version="1.1" width="500px" height="500px" style="shape-rendering:geometricPrecision; text-rendering:geometricPrecision; image-rendering:optimizeQuality; fill-rule:evenodd; clip-rule:evenodd" xmlns:xlink="http://www.w3.org/1999/xlink">
<g><path style="opacity:0.997" fill="#f8f8f8" d="M 354.5,177.5 C 354.427,179.027 355.094,180.027 356.5,180.5C 359.944,188.343 358.611,195.343 352.5,201.5C 350.833,202.5 349.5,203.833 348.5,205.5C 343.44,210.892 337.774,215.559 331.5,219.5C 329.973,219.427 328.973,220.094 328.5,221.5C 326.393,223.727 324.06,225.727 321.5,227.5C 319.973,227.427 318.973,228.094 318.5,229.5C 318.167,230.5 317.5,231.167 316.5,231.5C 314.973,231.427 313.973,232.094 313.5,233.5C 313.5,234.167 313.167,234.5 312.5,234.5C 310.973,234.427 309.973,235.094 309.5,236.5C 307.393,238.727 305.06,240.727 302.5,242.5C 300.973,242.427 299.973,243.094 299.5,244.5C 299.167,245.5 298.5,246.167 297.5,246.5C 295.973,246.427 294.973,247.094 294.5,248.5C 291.149,251.848 287.482,254.848 283.5,257.5C 281.596,257.738 280.262,258.738 279.5,260.5C 274.722,264.729 269.722,268.729 264.5,272.5C 262.973,272.427 261.973,273.094 261.5,274.5C 260.738,276.262 259.404,277.262 257.5,277.5C 256.5,277.833 255.833,278.5 255.5,279.5C 249.478,284.85 243.145,289.85 236.5,294.5C 234.973,294.427 233.973,295.094 233.5,296.5C 228.929,300.993 223.595,304.493 217.5,307C 205.5,307.667 193.5,307.667 181.5,307C 178.543,306.313 176.209,304.813 174.5,302.5C 174.167,301.5 173.5,300.833 172.5,300.5C 172.167,299.5 171.5,298.833 170.5,298.5C 169.833,298.5 169.5,298.167 169.5,297.5C 169.573,295.973 168.906,294.973 167.5,294.5C 165.177,291.874 162.843,289.207 160.5,286.5C 160.573,284.973 159.906,283.973 158.5,283.5C 157.5,283.167 156.833,282.5 156.5,281.5C 155.864,279.205 154.531,277.539 152.5,276.5C 150.567,274.063 148.4,271.729 146,269.5C 144.991,267.975 144.491,266.308 144.5,264.5C 143.226,258.508 143.226,252.508 144.5,246.5C 144.328,245.508 144.662,244.842 145.5,244.5C 146.906,244.027 147.573,243.027 147.5,241.5C 149.167,240.5 150.5,239.167 151.5,237.5C 153.404,237.262 154.738,236.262 155.5,234.5C 155.833,234.5 156.167,234.5 156.5,234.5C 160.798,233.8 165.131,233.467 169.5,233.5C 171.5,233.833 173.5,234.167 175.5,234.5C 178.674,235.01 181.008,236.677 182.5,239.5C 182.833,240.5 183.5,241.167 184.5,241.5C 185.08,243.749 186.413,245.415 188.5,246.5C 189.08,248.749 190.413,250.415 192.5,251.5C 193.08,253.749 194.413,255.415 196.5,256.5C 198.262,257.262 199.262,258.596 199.5,260.5C 199.833,261.5 200.5,262.167 201.5,262.5C 202.5,262.833 203.167,263.5 203.5,264.5C 203.427,266.027 204.094,267.027 205.5,267.5C 206.5,267.833 207.167,268.5 207.5,269.5C 209.292,270.473 210.625,269.806 211.5,267.5C 213.404,267.262 214.738,266.262 215.5,264.5C 216.5,264.167 217.167,263.5 217.5,262.5C 219.027,262.573 220.027,261.906 220.5,260.5C 222.749,259.92 224.415,258.587 225.5,256.5C 227.749,255.92 229.415,254.587 230.5,252.5C 232.404,252.262 233.738,251.262 234.5,249.5C 235.5,249.167 236.167,248.5 236.5,247.5C 238.027,247.573 239.027,246.906 239.5,245.5C 242.089,244.581 244.089,242.914 245.5,240.5C 247.404,240.262 248.738,239.262 249.5,237.5C 251.404,237.262 252.738,236.262 253.5,234.5C 255.749,233.92 257.415,232.587 258.5,230.5C 261.109,229.557 263.109,227.89 264.5,225.5C 266.404,225.262 267.738,224.262 268.5,222.5C 270.404,222.262 271.738,221.262 272.5,219.5C 274.749,218.92 276.415,217.587 277.5,215.5C 279.749,214.92 281.415,213.587 282.5,211.5C 284.404,211.262 285.738,210.262 286.5,208.5C 288.749,207.92 290.415,206.587 291.5,204.5C 293.749,203.92 295.415,202.587 296.5,200.5C 298.749,199.92 300.415,198.587 301.5,196.5C 303.404,196.262 304.738,195.262 305.5,193.5C 307.749,192.92 309.415,191.587 310.5,189.5C 312.749,188.92 314.415,187.587 315.5,185.5C 315.973,184.094 316.973,183.427 318.5,183.5C 319.5,183.167 320.167,182.5 320.5,181.5C 322.749,180.92 324.415,179.587 325.5,177.5C 325.842,176.662 326.508,176.328 327.5,176.5C 329.027,176.573 330.027,175.906 330.5,174.5C 330.833,174.5 331.167,174.5 331.5,174.5C 333.153,174.34 334.486,173.674 335.5,172.5C 343.014,170.072 349.347,171.738 354.5,177.5 Z"/></g>
<g><path style="opacity:0.451" fill="#444444" d="M 335.5,172.5 C 334.486,173.674 333.153,174.34 331.5,174.5C 332.287,172.896 333.62,172.229 335.5,172.5 Z"/></g>
<g><path style="opacity:0.537" fill="#676767" d="M 330.5,174.5 C 330.027,175.906 329.027,176.573 327.5,176.5C 327.973,175.094 328.973,174.427 330.5,174.5 Z"/></g>
<g><path style="opacity:0.216" fill="#3c3c3c" d="M 354.5,177.5 C 355.906,177.973 356.573,178.973 356.5,180.5C 355.094,180.027 354.427,179.027 354.5,177.5 Z"/></g>
<g><path style="opacity:0.675" fill="#5a5a5a" d="M 325.5,177.5 C 324.415,179.587 322.749,180.92 320.5,181.5C 321.585,179.413 323.251,178.08 325.5,177.5 Z"/></g>
<g><path style="opacity:0.149" fill="#323232" d="M 320.5,181.5 C 320.167,182.5 319.5,183.167 318.5,183.5C 318.5,182.167 319.167,181.5 320.5,181.5 Z"/></g>
<g><path style="opacity:0.686" fill="#676767" d="M 315.5,185.5 C 314.415,187.587 312.749,188.92 310.5,189.5C 311.585,187.413 313.251,186.08 315.5,185.5 Z"/></g>
<g><path style="opacity:0.651" fill="#717171" d="M 310.5,189.5 C 309.415,191.587 307.749,192.92 305.5,193.5C 306.585,191.413 308.251,190.08 310.5,189.5 Z"/></g>
<g><path style="opacity:0.439" fill="#5f5f5f" d="M 305.5,193.5 C 304.738,195.262 303.404,196.262 301.5,196.5C 302.262,194.738 303.596,193.738 305.5,193.5 Z"/></g>
<g><path style="opacity:0.38" fill="#4f4f4f" d="M 301.5,196.5 C 300.415,198.587 298.749,199.92 296.5,200.5C 297.585,198.413 299.251,197.08 301.5,196.5 Z"/></g>
<g><path style="opacity:0.357" fill="#575757" d="M 296.5,200.5 C 295.415,202.587 293.749,203.92 291.5,204.5C 292.585,202.413 294.251,201.08 296.5,200.5 Z"/></g>
<g><path style="opacity:0.004" fill="#222222" d="M 352.5,201.5 C 352.167,203.833 350.833,205.167 348.5,205.5C 349.5,203.833 350.833,202.5 352.5,201.5 Z"/></g>
<g><path style="opacity:0.333" fill="#686868" d="M 291.5,204.5 C 290.415,206.587 288.749,207.92 286.5,208.5C 287.585,206.413 289.251,205.08 291.5,204.5 Z"/></g>
<g><path style="opacity:0.451" fill="#626262" d="M 286.5,208.5 C 285.738,210.262 284.404,211.262 282.5,211.5C 283.262,209.738 284.596,208.738 286.5,208.5 Z"/></g>
<g><path style="opacity:0.584" fill="#656565" d="M 282.5,211.5 C 281.415,213.587 279.749,214.92 277.5,215.5C 278.585,213.413 280.251,212.08 282.5,211.5 Z"/></g>
<g><path style="opacity:0.702" fill="#686868" d="M 277.5,215.5 C 276.415,217.587 274.749,218.92 272.5,219.5C 273.585,217.413 275.251,216.08 277.5,215.5 Z"/></g>
<g><path style="opacity:0.349" fill="#5d5d5d" d="M 272.5,219.5 C 271.738,221.262 270.404,222.262 268.5,222.5C 269.262,220.738 270.596,219.738 272.5,219.5 Z"/></g>
<g><path style="opacity:0.012" fill="#212121" d="M 331.5,219.5 C 331.027,220.906 330.027,221.573 328.5,221.5C 328.973,220.094 329.973,219.427 331.5,219.5 Z"/></g>
<g><path style="opacity:0.357" fill="#383838" d="M 268.5,222.5 C 267.738,224.262 266.404,225.262 264.5,225.5C 265.262,223.738 266.596,222.738 268.5,222.5 Z"/></g>
<g><path style="opacity:0.204" fill="#252525" d="M 264.5,225.5 C 263.109,227.89 261.109,229.557 258.5,230.5C 259.865,228.14 261.865,226.473 264.5,225.5 Z"/></g>
<g><path style="opacity:0.008" fill="#202020" d="M 321.5,227.5 C 321.027,228.906 320.027,229.573 318.5,229.5C 318.973,228.094 319.973,227.427 321.5,227.5 Z"/></g>
<g><path style="opacity:0.025" fill="#1d1d1d" d="M 169.5,233.5 C 169.5,233.167 169.5,232.833 169.5,232.5C 171.898,232.259 173.898,232.926 175.5,234.5C 173.5,234.167 171.5,233.833 169.5,233.5 Z"/></g>
<g><path style="opacity:0.004" fill="#1b1b1b" d="M 316.5,231.5 C 316.027,232.906 315.027,233.573 313.5,233.5C 313.973,232.094 314.973,231.427 316.5,231.5 Z"/></g>
<g><path style="opacity:0.651" fill="#909090" d="M 169.5,232.5 C 169.5,232.833 169.5,233.167 169.5,233.5C 165.131,233.467 160.798,233.8 156.5,234.5C 156.918,233.778 157.584,233.278 158.5,233C 162.152,232.501 165.818,232.335 169.5,232.5 Z"/></g>
<g><path style="opacity:0.631" fill="#6f6f6f" d="M 258.5,230.5 C 257.415,232.587 255.749,233.92 253.5,234.5C 254.585,232.413 256.251,231.08 258.5,230.5 Z"/></g>
<g><path style="opacity:0.306" fill="#565656" d="M 155.5,234.5 C 154.738,236.262 153.404,237.262 151.5,237.5C 152.262,235.738 153.596,234.738 155.5,234.5 Z"/></g>
<g><path style="opacity:0.373" fill="#5c5c5c" d="M 253.5,234.5 C 252.738,236.262 251.404,237.262 249.5,237.5C 250.262,235.738 251.596,234.738 253.5,234.5 Z"/></g>
<g><path style="opacity:0.024" fill="#1e1e1e" d="M 312.5,234.5 C 312.027,235.906 311.027,236.573 309.5,236.5C 309.973,235.094 310.973,234.427 312.5,234.5 Z"/></g>
<g><path style="opacity:0.306" fill="#3f3f3f" d="M 151.5,237.5 C 150.5,239.167 149.167,240.5 147.5,241.5C 147.833,239.167 149.167,237.833 151.5,237.5 Z"/></g>
<g><path style="opacity:0.373" fill="#3c3c3c" d="M 249.5,237.5 C 248.738,239.262 247.404,240.262 245.5,240.5C 246.262,238.738 247.596,237.738 249.5,237.5 Z"/></g>
<g><path style="opacity:0.004" fill="#242424" d="M 182.5,239.5 C 183.833,239.5 184.5,240.167 184.5,241.5C 183.5,241.167 182.833,240.5 182.5,239.5 Z"/></g>
<g><path style="opacity:0.545" fill="#444444" d="M 184.5,241.5 C 186.587,242.585 187.92,244.251 188.5,246.5C 186.413,245.415 185.08,243.749 184.5,241.5 Z"/></g>
<g><path style="opacity:0.275" fill="#5b5b5b" d="M 147.5,241.5 C 147.573,243.027 146.906,244.027 145.5,244.5C 145.427,242.973 146.094,241.973 147.5,241.5 Z"/></g>
<g><path style="opacity:0.004" fill="#1e1e1e" d="M 302.5,242.5 C 302.027,243.906 301.027,244.573 299.5,244.5C 299.973,243.094 300.973,242.427 302.5,242.5 Z"/></g>
<g><path style="opacity:0.686" fill="#5f5f5f" d="M 245.5,240.5 C 244.089,242.914 242.089,244.581 239.5,245.5C 240.911,243.086 242.911,241.419 245.5,240.5 Z"/></g>
<g><path style="opacity:0.404" fill="#3c3c3c" d="M 239.5,245.5 C 239.027,246.906 238.027,247.573 236.5,247.5C 236.973,246.094 237.973,245.427 239.5,245.5 Z"/></g>
<g><path style="opacity:0.037" fill="#0f0f0f" d="M 236.5,247.5 C 236.167,248.5 235.5,249.167 234.5,249.5C 234.5,248.167 235.167,247.5 236.5,247.5 Z"/></g>
<g><path style="opacity:0.004" fill="#171717" d="M 297.5,246.5 C 297.027,247.906 296.027,248.573 294.5,248.5C 294.973,247.094 295.973,246.427 297.5,246.5 Z"/></g>
<g><path style="opacity:0.455" fill="#535353" d="M 188.5,246.5 C 190.587,247.585 191.92,249.251 192.5,251.5C 190.413,250.415 189.08,248.749 188.5,246.5 Z"/></g>
<g><path style="opacity:0.416" fill="#585858" d="M 234.5,249.5 C 233.738,251.262 232.404,252.262 230.5,252.5C 231.262,250.738 232.596,249.738 234.5,249.5 Z"/></g>
<g><path style="opacity:0.227" fill="#535353" d="M 144.5,246.5 C 143.226,252.508 143.226,258.508 144.5,264.5C 143.778,264.082 143.278,263.416 143,262.5C 142.333,257.833 142.333,253.167 143,248.5C 143.278,247.584 143.778,246.918 144.5,246.5 Z"/></g>
<g><path style="opacity:0.702" fill="#666666" d="M 192.5,251.5 C 194.587,252.585 195.92,254.251 196.5,256.5C 194.413,255.415 193.08,253.749 192.5,251.5 Z"/></g>
<g><path style="opacity:0.541" fill="#646464" d="M 230.5,252.5 C 229.415,254.587 227.749,255.92 225.5,256.5C 226.585,254.413 228.251,253.08 230.5,252.5 Z"/></g>
<g><path style="opacity:0.322" fill="#505050" d="M 225.5,256.5 C 224.415,258.587 222.749,259.92 220.5,260.5C 221.585,258.413 223.251,257.08 225.5,256.5 Z"/></g>
<g><path style="opacity:0.008" fill="#1a1a1a" d="M 283.5,257.5 C 282.738,259.262 281.404,260.262 279.5,260.5C 280.262,258.738 281.596,257.738 283.5,257.5 Z"/></g>
<g><path style="opacity:0.012" fill="#2e2e2e" d="M 199.5,260.5 C 200.833,260.5 201.5,261.167 201.5,262.5C 200.5,262.167 199.833,261.5 199.5,260.5 Z"/></g>
<g><path style="opacity:0.427" fill="#404040" d="M 220.5,260.5 C 220.027,261.906 219.027,262.573 217.5,262.5C 217.973,261.094 218.973,260.427 220.5,260.5 Z"/></g>
<g><path style="opacity:0.098" fill="#101010" d="M 217.5,262.5 C 217.167,263.5 216.5,264.167 215.5,264.5C 215.5,263.167 216.167,262.5 217.5,262.5 Z"/></g>
<g><path style="opacity:0.404" fill="#5e5e5e" d="M 215.5,264.5 C 214.738,266.262 213.404,267.262 211.5,267.5C 212.262,265.738 213.596,264.738 215.5,264.5 Z"/></g>
<g><path style="opacity:0.231" fill="#474747" d="M 203.5,264.5 C 204.906,264.973 205.573,265.973 205.5,267.5C 204.094,267.027 203.427,266.027 203.5,264.5 Z"/></g>
<g><path style="opacity:0.251" fill="#464646" d="M 211.5,267.5 C 210.625,269.806 209.292,270.473 207.5,269.5C 208.605,268.4 209.938,267.733 211.5,267.5 Z"/></g>
<g><path style="opacity:0.004" fill="#212121" d="M 264.5,272.5 C 264.027,273.906 263.027,274.573 261.5,274.5C 261.973,273.094 262.973,272.427 264.5,272.5 Z"/></g>
<g><path style="opacity:0.008" fill="#3e3e3e" d="M 152.5,276.5 C 154.531,277.539 155.864,279.205 156.5,281.5C 154.457,280.421 153.124,278.754 152.5,276.5 Z"/></g>
<g><path style="opacity:0.004" fill="#171717" d="M 257.5,277.5 C 257.5,278.833 256.833,279.5 255.5,279.5C 255.833,278.5 256.5,277.833 257.5,277.5 Z"/></g>
<g><path style="opacity:0.008" fill="#292929" d="M 158.5,283.5 C 159.906,283.973 160.573,284.973 160.5,286.5C 159.094,286.027 158.427,285.027 158.5,283.5 Z"/></g>
<g><path style="opacity:0.008" fill="#1f1f1f" d="M 167.5,294.5 C 168.906,294.973 169.573,295.973 169.5,297.5C 168.094,297.027 167.427,296.027 167.5,294.5 Z"/></g>
<g><path style="opacity:0.008" fill="#202020" d="M 236.5,294.5 C 236.027,295.906 235.027,296.573 233.5,296.5C 233.973,295.094 234.973,294.427 236.5,294.5 Z"/></g>
<g><path style="opacity:0.004" fill="#1d1d1d" d="M 170.5,298.5 C 171.5,298.833 172.167,299.5 172.5,300.5C 171.167,300.5 170.5,299.833 170.5,298.5 Z"/></g>
<g><path style="opacity:0.008" fill="#323232" d="M 172.5,300.5 C 173.5,300.833 174.167,301.5 174.5,302.5C 173.167,302.5 172.5,301.833 172.5,300.5 Z"/></g>
</svg>
