<?xml version="1.0" encoding="UTF-8"?>
<!DOCTYPE svg PUBLIC "-//W3C//DTD SVG 1.1//EN" "http://www.w3.org/Graphics/SVG/1.1/DTD/svg11.dtd">
<svg xmlns="http://www.w3.org/2000/svg" version="1.1" width="500px" height="500px" style="shape-rendering:geometricPrecision; text-rendering:geometricPrecision; image-rendering:optimizeQuality; fill-rule:evenodd; clip-rule:evenodd" xmlns:xlink="http://www.w3.org/1999/xlink">
<g><path style="opacity:1" fill="#fbcf49" d="M 94.5,50.5 C 95.2143,52.8742 96.5476,54.8742 98.5,56.5C 98.3918,57.4419 98.0585,58.2753 97.5,59C 100.792,59.7559 101.792,61.5893 100.5,64.5C 97.2844,61.3959 93.6177,59.0626 89.5,57.5C 84.0605,55.7581 78.7271,54.0914 73.5,52.5C 73.3893,51.8826 73.056,51.3826 72.5,51C 65.8333,50.8333 59.1667,50.6667 52.5,50.5C 41.9947,50.3496 31.6613,51.0163 21.5,52.5C 21.5,51.1667 21.5,49.8333 21.5,48.5C 23.9935,48.8693 24.6602,48.2027 23.5,46.5C 28.5423,44.4025 33.8757,42.9025 39.5,42C 54.0122,40.6963 68.3456,41.6963 82.5,45C 86.9495,46.0612 90.9495,47.8946 94.5,50.5 Z"/></g>
<g><path style="opacity:1" fill="#020000" d="M 73.5,52.5 C 78.7271,54.0914 84.0605,55.7581 89.5,57.5C 96.9343,62.2668 102.601,68.6001 106.5,76.5C 108.266,88.0796 108.933,99.7462 108.5,111.5C 93.8333,111.5 79.1667,111.5 64.5,111.5C 64.824,104.646 64.4907,97.979 63.5,91.5C 62.8836,84.0496 58.8836,80.8829 51.5,82C 49.714,82.7845 48.214,83.9512 47,85.5C 41.4202,101.409 45.5869,113.909 59.5,123C 74.401,130.9 87.901,140.733 100,152.5C 104.05,158.606 107.55,164.939 110.5,171.5C 111.162,175.466 111.495,179.466 111.5,183.5C 112.044,196.934 111.211,210.267 109,223.5C 106.552,230.435 102.719,236.435 97.5,241.5C 85.7768,248.084 73.1102,251.584 59.5,252C 44.788,253.82 30.788,251.487 17.5,245C 7.21233,236.922 1.21233,226.422 -0.5,213.5C -0.5,201.833 -0.5,190.167 -0.5,178.5C 14.8333,178.5 30.1667,178.5 45.5,178.5C 45.3335,190.171 45.5001,201.838 46,213.5C 47.7487,221.37 52.2487,223.536 59.5,220C 61.317,218.2 62.4837,216.034 63,213.5C 63.6667,205.167 63.6667,196.833 63,188.5C 62.3918,186.934 61.5585,185.6 60.5,184.5C 58.5025,179.988 55.5025,176.155 51.5,173C 40.9966,166.583 30.6633,159.916 20.5,153C 9.43826,143.814 2.43826,132.314 -0.5,118.5C -0.5,107.5 -0.5,96.5 -0.5,85.5C 2.72873,72.7048 10.0621,63.0381 21.5,56.5C 38.4718,51.4117 55.8051,50.0784 73.5,52.5 Z"/></g>
<g><path style="opacity:1" fill="#edc452" d="M 23.5,46.5 C 24.6602,48.2027 23.9935,48.8693 21.5,48.5C 21.5,49.8333 21.5,51.1667 21.5,52.5C 31.6613,51.0163 41.9947,50.3496 52.5,50.5C 59.1667,50.6667 65.8333,50.8333 72.5,51C 73.056,51.3826 73.3893,51.8826 73.5,52.5C 55.8051,50.0784 38.4718,51.4117 21.5,56.5C 21.0399,53.0432 19.0399,51.3765 15.5,51.5C 15.6495,52.552 15.4828,53.552 15,54.5C 13.6439,53.6198 12.1439,53.2865 10.5,53.5C 14.0592,49.8846 18.3926,47.5512 23.5,46.5 Z"/></g>
<g><path style="opacity:1" fill="#f7cf53" d="M 178.5,111.5 C 177.75,116.994 176.416,122.327 174.5,127.5C 173.833,103.5 173.167,79.5 172.5,55.5C 157.009,54.5037 141.342,54.1704 125.5,54.5C 141.513,52.8149 157.846,51.8149 174.5,51.5C 175.711,52.2739 175.711,53.1072 174.5,54C 175.449,54.6172 176.282,54.4506 177,53.5C 177.849,56.5214 178.683,59.5214 179.5,62.5C 178.5,62.5 177.5,62.5 176.5,62.5C 176.688,60.8967 176.188,59.5634 175,58.5C 174.333,78.8333 174.333,99.1667 175,119.5C 175.983,116.689 177.149,114.023 178.5,111.5 Z"/></g>
<g><path style="opacity:1" fill="#f8ce53" d="M 254.5,45.5 C 255.289,45.7828 255.956,46.2828 256.5,47C 247.626,71.5489 238.96,96.0489 230.5,120.5C 231.474,115.936 231.474,111.436 230.5,107C 232.677,105.814 233.677,103.981 233.5,101.5C 237.5,100.833 237.5,100.167 233.5,99.5C 233.38,96.7952 234.38,96.1285 236.5,97.5C 236.833,96.6667 237.167,95.8333 237.5,95C 237.045,91.2579 237.045,87.4245 237.5,83.5C 239.167,83.5 240.833,83.5 242.5,83.5C 242.511,81.4534 242.844,79.4534 243.5,77.5C 240.552,75.6276 240.052,73.2943 242,70.5C 243.356,71.3802 244.856,71.7135 246.5,71.5C 246.714,69.8561 246.38,68.3561 245.5,67C 246.253,65.513 247.086,65.3463 248,66.5C 248.167,65.5 248.333,64.5 248.5,63.5C 247.081,60.3132 245.914,56.9799 245,53.5C 244.884,57.6628 243.717,61.3295 241.5,64.5C 241.5,63.5 241.5,62.5 241.5,61.5C 241.629,59.7839 241.962,58.1172 242.5,56.5C 243.043,56.44 243.376,56.1067 243.5,55.5C 227.338,54.1734 211.338,54.1734 195.5,55.5C 194.203,61.0508 192.537,66.3842 190.5,71.5C 191.449,65.4251 192.782,59.4251 194.5,53.5C 210.82,52.6934 227.153,52.36 243.5,52.5C 243.172,49.9956 241.838,48.1622 239.5,47C 241.833,46.3333 244.167,46.3333 246.5,47C 245.833,47.3333 245.167,47.6667 244.5,48C 245.64,49.9734 246.973,51.8067 248.5,53.5C 252.572,52.3922 254.572,49.7255 254.5,45.5 Z"/></g>
<g><path style="opacity:1" fill="#846619" d="M 195.5,55.5 C 211.338,54.1734 227.338,54.1734 243.5,55.5C 243.376,56.1067 243.043,56.44 242.5,56.5C 227.009,55.5037 211.342,55.1704 195.5,55.5 Z"/></g>
<g><path style="opacity:1" fill="#010000" d="M 172.5,55.5 C 172.333,80.5022 172.5,105.502 173,130.5C 174.039,129.756 174.539,128.756 174.5,127.5C 176.416,122.327 177.75,116.994 178.5,111.5C 183.072,98.4405 187.072,85.1072 190.5,71.5C 192.537,66.3842 194.203,61.0508 195.5,55.5C 211.342,55.1704 227.009,55.5037 242.5,56.5C 241.962,58.1172 241.629,59.7839 241.5,61.5C 237.599,70.5307 234.265,79.8641 231.5,89.5C 225.242,106.273 219.576,123.273 214.5,140.5C 224.087,173.88 234.42,206.88 245.5,239.5C 245.674,241.861 246.007,244.194 246.5,246.5C 229.341,247.497 212.008,247.83 194.5,247.5C 194.672,246.508 194.338,245.842 193.5,245.5C 187.639,219.054 181.305,192.721 174.5,166.5C 174.539,165.244 174.039,164.244 173,163.5C 172.5,191.498 172.333,219.498 172.5,247.5C 156.833,247.5 141.167,247.5 125.5,247.5C 125.5,183.5 125.5,119.5 125.5,55.5C 141.167,55.5 156.833,55.5 172.5,55.5 Z"/></g>
<g><path style="opacity:1" fill="#000000" d="M 415.5,55.5 C 431.833,55.5 448.167,55.5 464.5,55.5C 464.5,107.5 464.5,159.5 464.5,211.5C 475.5,211.5 486.5,211.5 497.5,211.5C 497.5,223.5 497.5,235.5 497.5,247.5C 470.167,247.5 442.833,247.5 415.5,247.5C 415.5,183.5 415.5,119.5 415.5,55.5 Z"/></g>
<g><path style="opacity:1" fill="#edc556" d="M 94.5,50.5 C 97.7777,51.8089 100.778,53.6422 103.5,56C 105.464,57.451 106.797,59.2843 107.5,61.5C 101.053,57.3511 100.387,57.8511 105.5,63C 102.007,66.0304 102.173,69.1971 106,72.5C 106.49,73.7932 106.657,75.1266 106.5,76.5C 102.601,68.6001 96.9343,62.2668 89.5,57.5C 93.6177,59.0626 97.2844,61.3959 100.5,64.5C 101.792,61.5893 100.792,59.7559 97.5,59C 98.0585,58.2753 98.3918,57.4419 98.5,56.5C 96.5476,54.8742 95.2143,52.8742 94.5,50.5 Z"/></g>
<g><path style="opacity:1" fill="#887436" d="M 172.5,55.5 C 173.167,79.5 173.833,103.5 174.5,127.5C 174.539,128.756 174.039,129.756 173,130.5C 172.5,105.502 172.333,80.5022 172.5,55.5 Z"/></g>
<g><path style="opacity:1" fill="#a1883d" d="M 415.5,55.5 C 431.658,54.5036 447.991,54.1702 464.5,54.5C 465.167,54.5 465.5,54.8333 465.5,55.5C 465.5,107.167 465.5,158.833 465.5,210.5C 476.167,210.5 486.833,210.5 497.5,210.5C 497.5,210.833 497.5,211.167 497.5,211.5C 486.5,211.5 475.5,211.5 464.5,211.5C 464.5,159.5 464.5,107.5 464.5,55.5C 448.167,55.5 431.833,55.5 415.5,55.5 Z"/></g>
<g><path style="opacity:1" fill="#f5cb4c" d="M 21.5,56.5 C 10.0621,63.0381 2.72873,72.7048 -0.5,85.5C -0.5,78.1667 -0.5,70.8333 -0.5,63.5C 2.53668,59.4628 6.20335,56.1295 10.5,53.5C 12.1439,53.2865 13.6439,53.6198 15,54.5C 15.4828,53.552 15.6495,52.552 15.5,51.5C 19.0399,51.3765 21.0399,53.0432 21.5,56.5 Z"/></g>
<g><path style="opacity:1" fill="#dbba53" d="M 241.5,61.5 C 241.5,62.5 241.5,63.5 241.5,64.5C 238.779,72.0695 236.279,79.7362 234,87.5C 233.292,88.3805 232.458,89.0472 231.5,89.5C 234.265,79.8641 237.599,70.5307 241.5,61.5 Z"/></g>
<g><path style="opacity:1" fill="#513d03" d="M 125.5,54.5 C 141.342,54.1704 157.009,54.5037 172.5,55.5C 156.833,55.5 141.167,55.5 125.5,55.5C 125.5,119.5 125.5,183.5 125.5,247.5C 141.167,247.5 156.833,247.5 172.5,247.5C 172.5,247.833 172.5,248.167 172.5,248.5C 156.833,248.5 141.167,248.5 125.5,248.5C 124.662,248.158 124.328,247.492 124.5,246.5C 124.168,182.331 124.501,118.331 125.5,54.5 Z"/></g>
<g><path style="opacity:1" fill="#facf55" d="M 277.5,63.5 C 278.552,63.3505 279.552,63.5172 280.5,64C 290.626,72.7824 299.96,82.2824 308.5,92.5C 307.658,95.7378 305.658,97.2378 302.5,97C 294.986,89.3188 287.319,81.8188 279.5,74.5C 271.681,81.8188 264.014,89.3188 256.5,97C 253.72,97.2692 251.554,96.1025 250,93.5C 249.333,92.8333 249.333,92.1667 250,91.5C 259.369,82.2984 268.536,72.965 277.5,63.5 Z"/></g>
<g><path style="opacity:1" fill="#fdd046" d="M 306.5,110.5 C 306.643,113.385 307.643,115.718 309.5,117.5C 303.078,155.026 296.411,192.526 289.5,230C 293.52,238.54 298.186,246.707 303.5,254.5C 302.566,255.568 302.232,256.901 302.5,258.5C 286.833,258.5 271.167,258.5 255.5,258.5C 255.167,258.5 254.833,258.5 254.5,258.5C 254.611,257.883 254.944,257.383 255.5,257C 232.502,256.5 209.502,256.333 186.5,256.5C 186.443,255.391 186.11,254.391 185.5,253.5C 186.747,247.612 187.247,241.612 187,235.5C 188.757,236.119 189.924,237.286 190.5,239C 189.507,241.453 189.34,243.953 190,246.5C 190.628,243.046 191.795,242.713 193.5,245.5C 194.338,245.842 194.672,246.508 194.5,247.5C 212.005,248.827 229.671,248.827 247.5,247.5C 247.376,246.893 247.043,246.56 246.5,246.5C 246.007,244.194 245.674,241.861 245.5,239.5C 244.945,235.223 243.945,231.056 242.5,227C 242.842,224.508 244.175,223.508 246.5,224C 249.152,226.848 251.152,230.015 252.5,233.5C 254.827,239.316 256.66,245.316 258,251.5C 261.85,244.463 265.683,237.463 269.5,230.5C 262.779,193.677 256.113,156.843 249.5,120C 249.807,117.429 250.307,114.596 251,111.5C 259.871,102.298 268.371,92.798 276.5,83C 280.421,82.0413 283.588,83.208 286,86.5C 291.919,95.2549 298.753,103.255 306.5,110.5 Z"/></g>
<g><path style="opacity:0.945" fill="#fcdc91" d="M 472.5,45.5 C 473.117,45.6107 473.617,45.944 474,46.5C 474.219,90.4202 474.386,134.42 474.5,178.5C 473.508,185.982 473.175,193.648 473.5,201.5C 472.501,149.669 472.168,97.6693 472.5,45.5 Z"/></g>
<g><path style="opacity:1" fill="#face49" d="M 254.5,45.5 C 254.572,49.7255 252.572,52.3922 248.5,53.5C 246.973,51.8067 245.64,49.9734 244.5,48C 245.167,47.6667 245.833,47.3333 246.5,47C 244.167,46.3333 241.833,46.3333 239.5,47C 241.838,48.1622 243.172,49.9956 243.5,52.5C 227.153,52.36 210.82,52.6934 194.5,53.5C 192.782,59.4251 191.449,65.4251 190.5,71.5C 187.072,85.1072 183.072,98.4405 178.5,111.5C 177.149,114.023 175.983,116.689 175,119.5C 174.333,99.1667 174.333,78.8333 175,58.5C 176.188,59.5634 176.688,60.8967 176.5,62.5C 177.5,62.5 178.5,62.5 179.5,62.5C 178.683,59.5214 177.849,56.5214 177,53.5C 176.282,54.4506 175.449,54.6172 174.5,54C 175.711,53.1072 175.711,52.2739 174.5,51.5C 157.846,51.8149 141.513,52.8149 125.5,54.5C 124.501,118.331 124.168,182.331 124.5,246.5C 123.511,241.025 123.178,235.358 123.5,229.5C 122.167,229.5 120.833,229.5 119.5,229.5C 119.461,227.641 120.294,226.308 122,225.5C 122.667,203.833 122.667,182.167 122,160.5C 121.333,159.167 120.667,159.167 120,160.5C 118.842,165.118 118.008,169.784 117.5,174.5C 116.5,174.5 115.5,174.5 114.5,174.5C 114.001,169.508 113.501,164.508 113,159.5C 112.29,158.027 111.124,157.36 109.5,157.5C 109.543,160.088 110.543,162.254 112.5,164C 110.722,166.135 110.055,168.635 110.5,171.5C 107.55,164.939 104.05,158.606 100,152.5C 87.901,140.733 74.401,130.9 59.5,123C 45.5869,113.909 41.4202,101.409 47,85.5C 48.214,83.9512 49.714,82.7845 51.5,82C 58.8836,80.8829 62.8836,84.0496 63.5,91.5C 63.5,98.5 63.5,105.5 63.5,112.5C 78.676,112.829 93.676,112.496 108.5,111.5C 108.933,99.7462 108.266,88.0796 106.5,76.5C 106.657,75.1266 106.49,73.7932 106,72.5C 102.173,69.1971 102.007,66.0304 105.5,63C 100.387,57.8511 101.053,57.3511 107.5,61.5C 109.796,63.4006 111.629,65.7339 113,68.5C 113.973,70.3921 114.64,72.3921 115,74.5C 115.18,64.9226 115.68,55.4226 116.5,46C 138.167,45.3333 159.833,45.3333 181.5,46C 182.314,52.7529 182.814,59.5863 183,66.5C 184.573,59.449 186.74,52.6157 189.5,46C 211.343,45.5393 233.009,45.3727 254.5,45.5 Z M 114.5,121.5 C 115.495,132.988 115.828,144.655 115.5,156.5C 115.649,157.552 115.483,158.552 115,159.5C 114.8,157.68 113.966,156.347 112.5,155.5C 110.471,150.776 107.471,146.776 103.5,143.5C 103.631,142.761 103.464,142.094 103,141.5C 94.0581,133.892 84.5581,127.058 74.5,121C 87.7187,121.092 101.052,121.259 114.5,121.5 Z"/></g>
<g><path style="opacity:1" fill="#a08632" d="M 63.5,91.5 C 64.4907,97.979 64.824,104.646 64.5,111.5C 79.1667,111.5 93.8333,111.5 108.5,111.5C 93.676,112.496 78.676,112.829 63.5,112.5C 63.5,105.5 63.5,98.5 63.5,91.5 Z"/></g>
<g><path style="opacity:0.188" fill="#f7c394" d="M 306.5,110.5 C 308.113,112.461 309.113,114.794 309.5,117.5C 307.643,115.718 306.643,113.385 306.5,110.5 Z"/></g>
<g><path style="opacity:0.329" fill="#e8ba7a" d="M 114.5,121.5 C 114.56,120.957 114.893,120.624 115.5,120.5C 116.825,132.66 116.825,144.66 115.5,156.5C 115.828,144.655 115.495,132.988 114.5,121.5 Z"/></g>
<g><path style="opacity:1" fill="#f2c568" d="M 103.5,143.5 C 107.471,146.776 110.471,150.776 112.5,155.5C 109.676,155.011 108.343,153.344 108.5,150.5C 107.5,150.5 106.5,150.5 105.5,150.5C 105.6,147.892 104.933,145.558 103.5,143.5 Z"/></g>
<g><path style="opacity:1" fill="#f8cd4d" d="M 230.5,120.5 C 228.864,127.576 226.53,134.409 223.5,141C 233.703,171.637 243.369,202.471 252.5,233.5C 251.152,230.015 249.152,226.848 246.5,224C 244.175,223.508 242.842,224.508 242.5,227C 243.945,231.056 244.945,235.223 245.5,239.5C 234.42,206.88 224.087,173.88 214.5,140.5C 219.576,123.273 225.242,106.273 231.5,89.5C 232.458,89.0472 233.292,88.3805 234,87.5C 236.279,79.7362 238.779,72.0695 241.5,64.5C 243.717,61.3295 244.884,57.6628 245,53.5C 245.914,56.9799 247.081,60.3132 248.5,63.5C 248.333,64.5 248.167,65.5 248,66.5C 247.086,65.3463 246.253,65.513 245.5,67C 246.38,68.3561 246.714,69.8561 246.5,71.5C 244.856,71.7135 243.356,71.3802 242,70.5C 240.052,73.2943 240.552,75.6276 243.5,77.5C 242.844,79.4534 242.511,81.4534 242.5,83.5C 240.833,83.5 239.167,83.5 237.5,83.5C 237.045,87.4245 237.045,91.2579 237.5,95C 237.167,95.8333 236.833,96.6667 236.5,97.5C 234.38,96.1285 233.38,96.7952 233.5,99.5C 237.5,100.167 237.5,100.833 233.5,101.5C 233.677,103.981 232.677,105.814 230.5,107C 231.474,111.436 231.474,115.936 230.5,120.5 Z"/></g>
<g><path style="opacity:1" fill="#fcd044" d="M 124.5,246.5 C 124.328,247.492 124.662,248.158 125.5,248.5C 125.281,249.675 125.614,250.675 126.5,251.5C 141.133,250.184 155.8,250.184 170.5,251.5C 168.597,254.793 165.931,255.793 162.5,254.5C 157.89,255.493 153.223,256.16 148.5,256.5C 137.833,256.5 127.167,256.5 116.5,256.5C 116.824,249.646 116.491,242.979 115.5,236.5C 115.633,233.075 114.967,232.742 113.5,235.5C 110.273,238.125 108.273,237.625 107.5,234C 108.906,230.892 110.239,227.725 111.5,224.5C 115.842,226.021 116.342,225.354 113,222.5C 112.831,209.327 112.331,196.327 111.5,183.5C 111.495,179.466 111.162,175.466 110.5,171.5C 110.055,168.635 110.722,166.135 112.5,164C 110.543,162.254 109.543,160.088 109.5,157.5C 111.124,157.36 112.29,158.027 113,159.5C 113.501,164.508 114.001,169.508 114.5,174.5C 115.5,174.5 116.5,174.5 117.5,174.5C 118.008,169.784 118.842,165.118 120,160.5C 120.667,159.167 121.333,159.167 122,160.5C 122.667,182.167 122.667,203.833 122,225.5C 120.294,226.308 119.461,227.641 119.5,229.5C 120.833,229.5 122.167,229.5 123.5,229.5C 123.178,235.358 123.511,241.025 124.5,246.5 Z"/></g>
<g><path style="opacity:1" fill="#f6cb50" d="M -0.5,118.5 C 2.43826,132.314 9.43826,143.814 20.5,153C 30.6633,159.916 40.9966,166.583 51.5,173C 55.5025,176.155 58.5025,179.988 60.5,184.5C 59.5416,184.047 58.7083,183.381 58,182.5C 57.6667,182.833 57.3333,183.167 57,183.5C 56.6667,182.167 56.3333,180.833 56,179.5C 54.5589,180.26 53.0589,180.926 51.5,181.5C 50.6042,178.856 49.7709,176.19 49,173.5C 45.613,172.366 42.4463,170.866 39.5,169C 37.5,168.333 35.5,168.333 33.5,169C 31.5889,170.416 29.4223,171.25 27,171.5C 17.8634,170.568 8.69672,170.235 -0.5,170.5C -0.5,169.833 -0.5,169.167 -0.5,168.5C 8.50617,168.666 17.5062,168.5 26.5,168C 15.4564,162.453 6.45637,154.619 -0.5,144.5C -0.5,135.833 -0.5,127.167 -0.5,118.5 Z"/></g>
<g><path style="opacity:1" fill="#fbd046" d="M 60.5,184.5 C 63.1356,195.174 63.1356,205.84 60.5,216.5C 59.1626,218.457 56.6626,219.79 53,220.5C 51.662,219.494 50.3287,218.494 49,217.5C 47.5755,204.227 47.0755,190.894 47.5,177.5C 31.5,177.5 15.5,177.5 -0.5,177.5C -0.5,175.167 -0.5,172.833 -0.5,170.5C 8.69672,170.235 17.8634,170.568 27,171.5C 29.4223,171.25 31.5889,170.416 33.5,169C 35.5,168.333 37.5,168.333 39.5,169C 42.4463,170.866 45.613,172.366 49,173.5C 49.7709,176.19 50.6042,178.856 51.5,181.5C 53.0589,180.926 54.5589,180.26 56,179.5C 56.3333,180.833 56.6667,182.167 57,183.5C 57.3333,183.167 57.6667,182.833 58,182.5C 58.7083,183.381 59.5416,184.047 60.5,184.5 Z"/></g>
<g><path style="opacity:1" fill="#887435" d="M 174.5,166.5 C 173.833,193.833 173.167,221.167 172.5,248.5C 172.5,248.167 172.5,247.833 172.5,247.5C 172.333,219.498 172.5,191.498 173,163.5C 174.039,164.244 174.539,165.244 174.5,166.5 Z"/></g>
<g><path style="opacity:0.218" fill="#f3b984" d="M 474.5,178.5 C 474.5,186.167 474.5,193.833 474.5,201.5C 482.833,201.5 491.167,201.5 499.5,201.5C 499.5,201.833 499.5,202.167 499.5,202.5C 490.651,202.826 481.984,202.493 473.5,201.5C 473.175,193.648 473.508,185.982 474.5,178.5 Z"/></g>
<g><path style="opacity:1" fill="#bfa145" d="M -0.5,178.5 C -0.5,178.167 -0.5,177.833 -0.5,177.5C 15.5,177.5 31.5,177.5 47.5,177.5C 47.0755,190.894 47.5755,204.227 49,217.5C 50.3287,218.494 51.662,219.494 53,220.5C 56.6626,219.79 59.1626,218.457 60.5,216.5C 63.1356,205.84 63.1356,195.174 60.5,184.5C 61.5585,185.6 62.3918,186.934 63,188.5C 63.6667,196.833 63.6667,205.167 63,213.5C 62.4837,216.034 61.317,218.2 59.5,220C 52.2487,223.536 47.7487,221.37 46,213.5C 45.5001,201.838 45.3335,190.171 45.5,178.5C 30.1667,178.5 14.8333,178.5 -0.5,178.5 Z"/></g>
<g><path style="opacity:1" fill="#efc553" d="M 111.5,183.5 C 112.331,196.327 112.831,209.327 113,222.5C 116.342,225.354 115.842,226.021 111.5,224.5C 110.239,227.725 108.906,230.892 107.5,234C 108.273,237.625 110.273,238.125 113.5,235.5C 110.086,243.879 104.086,249.545 95.5,252.5C 95.8212,250.952 96.8212,250.285 98.5,250.5C 98.2308,248.571 98.7308,246.905 100,245.5C 100.333,246.5 100.667,247.5 101,248.5C 101.494,246.866 101.66,245.199 101.5,243.5C 103.167,243.5 104.833,243.5 106.5,243.5C 106.357,241.738 106.691,240.071 107.5,238.5C 106.675,237.614 105.675,237.281 104.5,237.5C 104.5,238.5 104.5,239.5 104.5,240.5C 102.097,240.448 99.7638,240.781 97.5,241.5C 102.719,236.435 106.552,230.435 109,223.5C 111.211,210.267 112.044,196.934 111.5,183.5 Z"/></g>
<g><path style="opacity:1" fill="#f7cc4b" d="M -0.5,213.5 C 1.21233,226.422 7.21233,236.922 17.5,245C 30.788,251.487 44.788,253.82 59.5,252C 73.1102,251.584 85.7768,248.084 97.5,241.5C 99.7638,240.781 102.097,240.448 104.5,240.5C 104.5,239.5 104.5,238.5 104.5,237.5C 105.675,237.281 106.675,237.614 107.5,238.5C 106.691,240.071 106.357,241.738 106.5,243.5C 104.833,243.5 103.167,243.5 101.5,243.5C 101.66,245.199 101.494,246.866 101,248.5C 100.667,247.5 100.333,246.5 100,245.5C 98.7308,246.905 98.2308,248.571 98.5,250.5C 96.8212,250.285 95.8212,250.952 95.5,252.5C 90.6525,255.582 85.3192,257.582 79.5,258.5C 74.706,257.903 70.3727,258.57 66.5,260.5C 64.8828,261.038 63.2161,261.371 61.5,261.5C 57.8333,261.5 54.1667,261.5 50.5,261.5C 50.1667,261.5 49.8333,261.5 49.5,261.5C 35.6141,261.945 22.6141,258.778 10.5,252C 5.92732,248.93 2.26065,245.096 -0.5,240.5C -0.5,231.5 -0.5,222.5 -0.5,213.5 Z"/></g>
<g><path style="opacity:0.047" fill="#e1b081" d="M 182.5,242.5 C 182.821,247.695 182.487,252.695 181.5,257.5C 181.277,250.779 181.611,245.779 182.5,242.5 Z"/></g>
<g><path style="opacity:1" fill="#4a3500" d="M 246.5,246.5 C 247.043,246.56 247.376,246.893 247.5,247.5C 229.671,248.827 212.005,248.827 194.5,247.5C 212.008,247.83 229.341,247.497 246.5,246.5 Z"/></g>
<g><path style="opacity:1" fill="#5b4506" d="M 415.5,55.5 C 415.5,119.5 415.5,183.5 415.5,247.5C 442.833,247.5 470.167,247.5 497.5,247.5C 470.005,248.498 442.338,248.831 414.5,248.5C 414.168,183.998 414.501,119.665 415.5,55.5 Z"/></g>
<g><path style="opacity:1" fill="#fbcf49" d="M 351.5,45.5 C 361.068,46.1902 370.735,46.8568 380.5,47.5C 380.558,98.6872 380.558,150.021 380.5,201.5C 388.833,201.5 397.167,201.5 405.5,201.5C 405.333,149.832 405.5,98.1656 406,46.5C 428.091,45.5062 450.258,45.1729 472.5,45.5C 472.168,97.6693 472.501,149.669 473.5,201.5C 481.984,202.493 490.651,202.826 499.5,202.5C 499.5,205.167 499.5,207.833 499.5,210.5C 498.833,210.5 498.167,210.5 497.5,210.5C 487.347,209.506 477.014,209.172 466.5,209.5C 466.832,157.997 466.499,106.664 465.5,55.5C 465.5,54.8333 465.167,54.5 464.5,54.5C 447.764,53.1694 430.931,53.1694 414,54.5C 413.5,119.832 413.333,185.166 413.5,250.5C 441.741,250.172 469.907,250.505 498,251.5C 498.278,250.584 498.778,249.918 499.5,249.5C 499.5,251.833 499.5,254.167 499.5,256.5C 437.167,256.5 374.833,256.5 312.5,256.5C 311.493,187.855 311.326,119.189 312,50.5C 312.273,48.8988 312.773,47.3988 313.5,46C 326.162,45.5001 338.829,45.3334 351.5,45.5 Z"/></g>
<g><path style="opacity:1" fill="#422e00" d="M 403.5,211.5 C 403.833,211.5 404.167,211.5 404.5,211.5C 404.5,223.833 404.5,236.167 404.5,248.5C 376.662,248.831 348.995,248.498 321.5,247.5C 348.833,247.5 376.167,247.5 403.5,247.5C 403.5,235.5 403.5,223.5 403.5,211.5 Z"/></g>
<g><path style="opacity:1" fill="#e3c15a" d="M 371.5,55.5 C 372.499,106.664 372.832,157.997 372.5,209.5C 382.839,209.334 393.172,209.5 403.5,210C 404.056,210.383 404.389,210.883 404.5,211.5C 404.167,211.5 403.833,211.5 403.5,211.5C 392.833,211.5 382.167,211.5 371.5,211.5C 371.5,159.5 371.5,107.5 371.5,55.5 Z"/></g>
<g><path style="opacity:1" fill="#f3d05c" d="M 465.5,55.5 C 466.499,106.664 466.832,157.997 466.5,209.5C 477.014,209.172 487.347,209.506 497.5,210.5C 486.833,210.5 476.167,210.5 465.5,210.5C 465.5,158.833 465.5,107.167 465.5,55.5 Z"/></g>
<g><path style="opacity:1" fill="#010000" d="M 371.5,55.5 C 371.5,107.5 371.5,159.5 371.5,211.5C 382.167,211.5 392.833,211.5 403.5,211.5C 403.5,223.5 403.5,235.5 403.5,247.5C 376.167,247.5 348.833,247.5 321.5,247.5C 321.5,183.5 321.5,119.5 321.5,55.5C 338.167,55.5 354.833,55.5 371.5,55.5 Z"/></g>
<g><path style="opacity:0.008" fill="#fefc80" d="M 351.5,45.5 C 361.558,44.86 371.225,45.5267 380.5,47.5C 370.735,46.8568 361.068,46.1902 351.5,45.5 Z"/></g>
<g><path style="opacity:1" fill="#f2cc58" d="M 464.5,54.5 C 447.991,54.1702 431.658,54.5036 415.5,55.5C 414.501,119.665 414.168,183.998 414.5,248.5C 442.338,248.831 470.005,248.498 497.5,247.5C 497.5,235.5 497.5,223.5 497.5,211.5C 497.5,211.167 497.5,210.833 497.5,210.5C 498.167,210.5 498.833,210.5 499.5,210.5C 499.5,223.5 499.5,236.5 499.5,249.5C 498.778,249.918 498.278,250.584 498,251.5C 469.907,250.505 441.741,250.172 413.5,250.5C 413.333,185.166 413.5,119.832 414,54.5C 430.931,53.1694 447.764,53.1694 464.5,54.5 Z"/></g>
<g><path style="opacity:1" fill="#f8ce4f" d="M 174.5,166.5 C 181.305,192.721 187.639,219.054 193.5,245.5C 191.795,242.713 190.628,243.046 190,246.5C 189.34,243.953 189.507,241.453 190.5,239C 189.924,237.286 188.757,236.119 187,235.5C 187.247,241.612 186.747,247.612 185.5,253.5C 185.074,249.573 184.074,245.907 182.5,242.5C 181.611,245.779 181.277,250.779 181.5,257.5C 170.688,258.399 159.688,258.399 148.5,257.5C 148.5,257.167 148.5,256.833 148.5,256.5C 153.223,256.16 157.89,255.493 162.5,254.5C 165.931,255.793 168.597,254.793 170.5,251.5C 155.8,250.184 141.133,250.184 126.5,251.5C 125.614,250.675 125.281,249.675 125.5,248.5C 141.167,248.5 156.833,248.5 172.5,248.5C 173.167,221.167 173.833,193.833 174.5,166.5 Z"/></g>
<g><path style="opacity:0.443" fill="#eabb71" d="M 115.5,236.5 C 116.491,242.979 116.824,249.646 116.5,256.5C 127.167,256.5 137.833,256.5 148.5,256.5C 148.5,256.833 148.5,257.167 148.5,257.5C 137.918,257.18 127.418,257.513 117,258.5C 115.538,251.342 115.038,244.008 115.5,236.5 Z"/></g>
<g><path style="opacity:0.486" fill="#f8d590" d="M 186.5,256.5 C 209.502,256.333 232.502,256.5 255.5,257C 254.944,257.383 254.611,257.883 254.5,258.5C 232.497,258.667 210.497,258.5 188.5,258C 187.584,257.722 186.918,257.222 186.5,256.5 Z"/></g>
<g><path style="opacity:0.49" fill="#f5ce8c" d="M 312.5,256.5 C 374.833,256.5 437.167,256.5 499.5,256.5C 499.5,256.833 499.5,257.167 499.5,257.5C 440.581,258.287 381.581,258.62 322.5,258.5C 319.5,258.333 316.5,258.167 313.5,258C 312.944,257.617 312.611,257.117 312.5,256.5 Z"/></g>
<g><path style="opacity:0.89" fill="#f2bd6f" d="M 79.5,258.5 C 75.4552,260.177 71.1219,260.844 66.5,260.5C 70.3727,258.57 74.706,257.903 79.5,258.5 Z"/></g>
<g><path style="opacity:0.055" fill="#ecb96b" d="M 303.5,254.5 C 304.728,256.01 304.728,257.51 303.5,259C 287.328,259.828 271.328,259.661 255.5,258.5C 271.167,258.5 286.833,258.5 302.5,258.5C 302.232,256.901 302.566,255.568 303.5,254.5 Z"/></g>
<g><path style="opacity:0.774" fill="#fab85c" d="M 259.5,261.5 C 321.837,261.167 384.17,261.5 446.5,262.5C 447.309,264.071 447.643,265.738 447.5,267.5C 446.5,267.5 445.5,267.5 444.5,267.5C 444.5,266.167 444.5,264.833 444.5,263.5C 401.499,263.333 358.499,263.5 315.5,264C 314.892,264.87 314.059,265.37 313,265.5C 310.205,264.815 307.372,264.315 304.5,264C 288.167,263.667 271.833,263.333 255.5,263C 257.058,262.79 258.391,262.29 259.5,261.5 Z"/></g>
<g><path style="opacity:1" fill="#fbbc83" d="M 95.5,261.5 C 105.506,261.334 115.506,261.5 125.5,262C 131.721,262.271 137.721,263.104 143.5,264.5C 127.377,263.396 111.377,262.396 95.5,261.5 Z"/></g>
<g><path style="opacity:1" fill="#f9cd47" d="M 251.5,261.5 C 254.167,261.5 256.833,261.5 259.5,261.5C 258.391,262.29 257.058,262.79 255.5,263C 271.833,263.333 288.167,263.667 304.5,264C 307.372,264.315 310.205,264.815 313,265.5C 314.059,265.37 314.892,264.87 315.5,264C 358.499,263.5 401.499,263.333 444.5,263.5C 444.5,264.833 444.5,266.167 444.5,267.5C 445.5,267.5 446.5,267.5 447.5,267.5C 447.186,284.845 446.519,302.179 445.5,319.5C 434.558,319.795 423.558,319.795 412.5,319.5C 412.178,325.358 412.511,331.025 413.5,336.5C 413.5,336.833 413.5,337.167 413.5,337.5C 422.986,338.494 432.652,338.827 442.5,338.5C 442.5,356.833 442.5,375.167 442.5,393.5C 432.516,392.787 422.516,392.453 412.5,392.5C 412.174,400.684 412.508,408.684 413.5,416.5C 413.5,416.833 413.5,417.167 413.5,417.5C 424.902,418.176 436.402,418.843 448,419.5C 448.5,437.164 448.667,454.83 448.5,472.5C 447.167,472.5 445.833,472.5 444.5,472.5C 377.167,472.5 309.833,472.5 242.5,472.5C 242.835,463.478 243.501,454.478 244.5,445.5C 245.5,446.833 246.5,446.833 247.5,445.5C 248.167,451.654 248.833,457.654 249.5,463.5C 249.833,463.5 250.167,463.5 250.5,463.5C 280.995,464.498 311.662,464.831 342.5,464.5C 342.829,451.989 342.495,439.655 341.5,427.5C 329.345,426.505 317.011,426.171 304.5,426.5C 304.704,423.482 305.037,420.482 305.5,417.5C 306.458,417.047 307.292,416.381 308,415.5C 308.502,411.634 309.502,407.967 311,404.5C 313.164,408.35 314.664,412.35 315.5,416.5C 315.5,416.833 315.5,417.167 315.5,417.5C 325.008,418.823 334.675,418.823 344.5,417.5C 344.376,416.893 344.043,416.56 343.5,416.5C 343.831,386.662 343.498,356.995 342.5,327.5C 339.49,331.176 338.157,335.509 338.5,340.5C 335.987,344.378 334.654,348.711 334.5,353.5C 333.207,354.842 332.374,356.509 332,358.5C 329.609,357.398 329.109,358.064 330.5,360.5C 328.833,361.167 327.167,361.833 325.5,362.5C 330.833,363.833 330.833,365.167 325.5,366.5C 327.946,367.427 328.779,369.094 328,371.5C 326.647,372.685 325.48,374.019 324.5,375.5C 323.137,374.121 322.137,374.287 321.5,376C 323.629,377.744 324.462,379.911 324,382.5C 322.667,381.833 321.667,380.833 321,379.5C 319.768,382.23 318.935,382.063 318.5,379C 319.483,375.888 320.15,372.722 320.5,369.5C 322.097,368.263 323.263,366.596 324,364.5C 325.773,356.486 327.606,348.486 329.5,340.5C 330.39,334.834 332.057,329.5 334.5,324.5C 335.117,324.389 335.617,324.056 336,323.5C 337.758,318.185 339.424,312.852 341,307.5C 341.167,301.5 341.333,295.5 341.5,289.5C 341.496,283.128 340.829,277.128 339.5,271.5C 311.5,271.5 283.5,271.5 255.5,271.5C 254.167,284.167 254.167,296.833 255.5,309.5C 266.321,310.495 277.321,310.828 288.5,310.5C 288.5,311.5 288.5,312.5 288.5,313.5C 283.648,313.129 282.815,314.462 286,317.5C 286.49,318.793 286.657,320.127 286.5,321.5C 283.747,320.268 281.08,318.768 278.5,317C 267.839,316.5 257.172,316.333 246.5,316.5C 246.333,298.83 246.5,281.164 247,263.5C 248.622,262.901 250.122,262.234 251.5,261.5 Z"/></g>
<g><path style="opacity:1" fill="#010000" d="M 58.5,271.5 C 84.1818,271.244 109.848,271.578 135.5,272.5C 138.287,273.477 141.287,273.81 144.5,273.5C 155.989,276.819 163.822,284.152 168,295.5C 169.595,309.444 169.928,323.444 169,337.5C 167.895,341.203 166.728,344.869 165.5,348.5C 159.544,356.988 151.211,361.655 140.5,362.5C 145.926,363.523 151.26,364.857 156.5,366.5C 161.913,369.578 165.913,373.911 168.5,379.5C 169.022,382.253 169.856,384.92 171,387.5C 171.5,413.165 171.667,438.831 171.5,464.5C 156.167,464.5 140.833,464.5 125.5,464.5C 125.831,438.995 125.498,413.661 124.5,388.5C 124.933,383.771 123.266,380.104 119.5,377.5C 118.653,376.034 117.32,375.2 115.5,375C 112.304,374.195 109.304,374.362 106.5,375.5C 105.502,404.995 105.169,434.662 105.5,464.5C 89.8333,464.5 74.1667,464.5 58.5,464.5C 58.5,400.167 58.5,335.833 58.5,271.5 Z"/></g>
<g><path style="opacity:1" fill="#010000" d="M 255.5,271.5 C 283.5,271.5 311.5,271.5 339.5,271.5C 339.667,283.838 339.5,296.171 339,308.5C 336.983,313.713 335.483,319.046 334.5,324.5C 332.057,329.5 330.39,334.834 329.5,340.5C 325.926,349.896 322.926,359.562 320.5,369.5C 314.724,385.168 309.724,401.168 305.5,417.5C 303.723,420.505 302.723,423.838 302.5,427.5C 315.5,427.5 328.5,427.5 341.5,427.5C 342.495,439.655 342.829,451.989 342.5,464.5C 311.662,464.831 280.995,464.498 250.5,463.5C 248.874,446.945 250.874,430.945 256.5,415.5C 264.026,392.922 271.359,370.255 278.5,347.5C 282.669,335.659 286.669,323.659 290.5,311.5C 291.404,310.791 291.737,309.791 291.5,308.5C 279.5,308.5 267.5,308.5 255.5,308.5C 255.5,296.167 255.5,283.833 255.5,271.5 Z"/></g>
<g><path style="opacity:1" fill="#d1b04a" d="M 339.5,271.5 C 340.829,277.128 341.496,283.128 341.5,289.5C 341.333,295.5 341.167,301.5 341,307.5C 339.424,312.852 337.758,318.185 336,323.5C 335.617,324.056 335.117,324.389 334.5,324.5C 335.483,319.046 336.983,313.713 339,308.5C 339.5,296.171 339.667,283.838 339.5,271.5 Z"/></g>
<g><path style="opacity:1" fill="#010000" d="M 437.5,310.5 C 426.167,310.5 414.833,310.5 403.5,310.5C 403.5,322.167 403.5,333.833 403.5,345.5C 413.653,346.494 423.986,346.828 434.5,346.5C 434.5,358.5 434.5,370.5 434.5,382.5C 423.986,382.172 413.653,382.506 403.5,383.5C 403.5,397.5 403.5,411.5 403.5,425.5C 415.322,426.495 427.322,426.828 439.5,426.5C 439.5,439.167 439.5,451.833 439.5,464.5C 410.833,464.5 382.167,464.5 353.5,464.5C 353.5,400.167 353.5,335.833 353.5,271.5C 381.5,271.5 409.5,271.5 437.5,271.5C 437.5,284.5 437.5,297.5 437.5,310.5 Z"/></g>
<g><path style="opacity:1" fill="#f5ca54" d="M 143.5,264.5 C 157.101,266.612 167.101,273.612 173.5,285.5C 172.141,286.007 171.141,287.007 170.5,288.5C 169.137,287.121 168.137,287.287 167.5,289C 168.411,292.145 169.245,295.312 170,298.5C 170.667,312.167 170.667,325.833 170,339.5C 169.061,342.121 168.228,344.788 167.5,347.5C 166.817,347.863 166.15,348.196 165.5,348.5C 166.728,344.869 167.895,341.203 169,337.5C 169.928,323.444 169.595,309.444 168,295.5C 163.822,284.152 155.989,276.819 144.5,273.5C 149.368,275.879 152.701,274.546 154.5,269.5C 150.792,267.675 147.125,266.009 143.5,264.5 Z"/></g>
<g><path style="opacity:1" fill="#facc50" d="M 179.5,308.5 C 188.453,297.713 198.286,287.713 209,278.5C 219.488,287.654 229.321,297.488 238.5,308C 237.333,310.5 235.5,312.333 233,313.5C 225,305.5 217,297.5 209,289.5C 201,297.5 193,305.5 185,313.5C 182.645,312.308 180.812,310.641 179.5,308.5 Z"/></g>
<g><path style="opacity:0.141" fill="#edbd71" d="M 251.5,261.5 C 250.122,262.234 248.622,262.901 247,263.5C 246.5,281.164 246.333,298.83 246.5,316.5C 246.5,316.833 246.5,317.167 246.5,317.5C 245.338,299.338 245.171,281.005 246,262.5C 247.699,261.594 249.533,261.261 251.5,261.5 Z"/></g>
<g><path style="opacity:1" fill="#9f853a" d="M 255.5,271.5 C 255.5,283.833 255.5,296.167 255.5,308.5C 267.5,308.5 279.5,308.5 291.5,308.5C 291.737,309.791 291.404,310.791 290.5,311.5C 279.215,309.522 267.548,308.855 255.5,309.5C 254.167,296.833 254.167,284.167 255.5,271.5 Z"/></g>
<g><path style="opacity:0.196" fill="#e6bd8a" d="M 49.5,261.5 C 49.8333,261.5 50.1667,261.5 50.5,261.5C 49.5065,332.125 49.1732,402.792 49.5,473.5C 48.1689,402.931 48.1689,332.264 49.5,261.5 Z"/></g>
<g><path style="opacity:1" fill="#f8ca60" d="M 255.5,309.5 C 267.548,308.855 279.215,309.522 290.5,311.5C 286.669,323.659 282.669,335.659 278.5,347.5C 278.5,343.5 278.5,339.5 278.5,335.5C 279.675,335.719 280.675,335.386 281.5,334.5C 282.497,332.189 282.997,329.856 283,327.5C 282.667,327.167 282.333,326.833 282,326.5C 281.43,329.844 280.264,330.177 278.5,327.5C 277.333,329.079 276,330.412 274.5,331.5C 275.409,327.186 276.743,323.019 278.5,319C 267.659,318.83 256.992,318.33 246.5,317.5C 246.5,317.167 246.5,316.833 246.5,316.5C 257.172,316.333 267.839,316.5 278.5,317C 281.08,318.768 283.747,320.268 286.5,321.5C 286.657,320.127 286.49,318.793 286,317.5C 282.815,314.462 283.648,313.129 288.5,313.5C 288.5,312.5 288.5,311.5 288.5,310.5C 277.321,310.828 266.321,310.495 255.5,309.5 Z"/></g>
<g><path style="opacity:1" fill="#f0cf64" d="M 437.5,310.5 C 426.679,311.495 415.679,311.828 404.5,311.5C 404.5,322.5 404.5,333.5 404.5,344.5C 415.014,344.172 425.347,344.506 435.5,345.5C 424.833,345.5 414.167,345.5 403.5,345.5C 403.5,333.833 403.5,322.167 403.5,310.5C 414.833,310.5 426.167,310.5 437.5,310.5 Z"/></g>
<g><path style="opacity:1" fill="#f0cb87" d="M 342.5,327.5 C 341.943,332.165 340.61,336.498 338.5,340.5C 338.157,335.509 339.49,331.176 342.5,327.5 Z"/></g>
<g><path style="opacity:0.612" fill="#eabb82" d="M 338.5,340.5 C 337.612,345.072 336.279,349.405 334.5,353.5C 334.654,348.711 335.987,344.378 338.5,340.5 Z"/></g>
<g><path style="opacity:1" fill="#f9cf5f" d="M 413.5,337.5 C 423.5,337.5 433.5,337.5 443.5,337.5C 443.5,355.833 443.5,374.167 443.5,392.5C 443.5,393.167 443.167,393.5 442.5,393.5C 442.5,375.167 442.5,356.833 442.5,338.5C 432.652,338.827 422.986,338.494 413.5,337.5 Z"/></g>
<g><path style="opacity:1" fill="#d5b44f" d="M 329.5,340.5 C 327.606,348.486 325.773,356.486 324,364.5C 323.263,366.596 322.097,368.263 320.5,369.5C 322.926,359.562 325.926,349.896 329.5,340.5 Z"/></g>
<g><path style="opacity:0.37" fill="#e9c189" d="M 413.5,337.5 C 413.5,337.167 413.5,336.833 413.5,336.5C 423.833,336.5 434.167,336.5 444.5,336.5C 444.83,355.341 444.497,374.007 443.5,392.5C 443.5,374.167 443.5,355.833 443.5,337.5C 433.5,337.5 423.5,337.5 413.5,337.5 Z"/></g>
<g><path style="opacity:1" fill="#fcd048" d="M 50.5,261.5 C 54.1667,261.5 57.8333,261.5 61.5,261.5C 72.6237,261.603 83.957,261.603 95.5,261.5C 111.377,262.396 127.377,263.396 143.5,264.5C 147.125,266.009 150.792,267.675 154.5,269.5C 152.701,274.546 149.368,275.879 144.5,273.5C 141.287,273.81 138.287,273.477 135.5,272.5C 135.389,271.883 135.056,271.383 134.5,271C 108.663,270.17 82.9967,270.337 57.5,271.5C 57.5,336.167 57.5,400.833 57.5,465.5C 73.8333,465.5 90.1667,465.5 106.5,465.5C 107.498,436.005 107.831,406.338 107.5,376.5C 111.548,376.395 115.548,376.728 119.5,377.5C 123.266,380.104 124.933,383.771 124.5,388.5C 124.5,414.167 124.5,439.833 124.5,465.5C 140.342,465.83 156.009,465.496 171.5,464.5C 172.664,438.003 172.83,411.336 172,384.5C 171.263,382.404 170.097,380.737 168.5,379.5C 165.913,373.911 161.913,369.578 156.5,366.5C 155.2,365.173 153.867,363.84 152.5,362.5C 156.446,359.729 160.28,356.729 164,353.5C 165.009,351.975 165.509,350.308 165.5,348.5C 166.15,348.196 166.817,347.863 167.5,347.5C 168.228,344.788 169.061,342.121 170,339.5C 170.667,325.833 170.667,312.167 170,298.5C 169.245,295.312 168.411,292.145 167.5,289C 168.137,287.287 169.137,287.121 170.5,288.5C 171.141,287.007 172.141,286.007 173.5,285.5C 177.228,292.746 179.228,300.413 179.5,308.5C 179.102,314.891 179.102,321.224 179.5,327.5C 183.818,323.682 187.985,319.682 192,315.5C 196.456,309.375 201.289,303.542 206.5,298C 208.167,297.333 209.833,297.333 211.5,298C 220.257,308.264 229.257,318.431 238.5,328.5C 238.455,332.365 238.455,336.198 238.5,340C 231.517,374.843 225.184,409.843 219.5,445C 223.062,453.618 227.562,461.785 233,469.5C 233.982,470.759 234.315,472.092 234,473.5C 218.333,474.167 202.667,474.833 187,475.5C 185.978,474.646 185.145,473.646 184.5,472.5C 189.627,463.748 194.627,454.914 199.5,446C 191.818,406.731 184.985,367.565 179,328.5C 179.467,341.511 175.3,352.678 166.5,362C 173.935,368.023 178.435,375.856 180,385.5C 180.667,414.833 180.667,444.167 180,473.5C 136.66,473.84 93.1595,473.84 49.5,473.5C 49.1732,402.792 49.5065,332.125 50.5,261.5 Z"/></g>
<g><path style="opacity:1" fill="#e3c153" d="M 165.5,348.5 C 165.509,350.308 165.009,351.975 164,353.5C 160.28,356.729 156.446,359.729 152.5,362.5C 153.867,363.84 155.2,365.173 156.5,366.5C 151.26,364.857 145.926,363.523 140.5,362.5C 151.211,361.655 159.544,356.988 165.5,348.5 Z"/></g>
<g><path style="opacity:1" fill="#f4c849" d="M 121.5,307.5 C 122.79,308.058 123.623,309.058 124,310.5C 124.667,319.5 124.667,328.5 124,337.5C 123.722,338.416 123.222,339.082 122.5,339.5C 122.167,339.5 121.833,339.5 121.5,339.5C 118.065,338.007 117.899,336.34 121,334.5C 122.4,328.471 122.067,322.471 120,316.5C 118.711,322.327 118.044,328.327 118,334.5C 116.989,335.337 115.822,335.67 114.5,335.5C 114.334,327.493 114.5,319.493 115,311.5C 115.414,311.957 115.914,312.291 116.5,312.5C 117.167,311.5 117.833,310.5 118.5,309.5C 119.187,311.274 120.02,312.941 121,314.5C 122.723,312.333 122.89,310 121.5,307.5 Z"/></g>
<g><path style="opacity:0.992" fill="#fdcf43" d="M 121.5,306.5 C 121.5,306.833 121.5,307.167 121.5,307.5C 122.89,310 122.723,312.333 121,314.5C 120.02,312.941 119.187,311.274 118.5,309.5C 117.833,310.5 117.167,311.5 116.5,312.5C 115.914,312.291 115.414,311.957 115,311.5C 114.5,319.493 114.334,327.493 114.5,335.5C 115.822,335.67 116.989,335.337 118,334.5C 118.044,328.327 118.711,322.327 120,316.5C 122.067,322.471 122.4,328.471 121,334.5C 117.899,336.34 118.065,338.007 121.5,339.5C 118.392,339.944 115.726,341.278 113.5,343.5C 111.604,344.466 109.604,344.799 107.5,344.5C 107.5,331.167 107.5,317.833 107.5,304.5C 112.362,304.118 117.028,304.784 121.5,306.5 Z"/></g>
<g><path style="opacity:1" fill="#ceaf4a" d="M 121.5,306.5 C 117.028,304.784 112.362,304.118 107.5,304.5C 107.5,317.833 107.5,331.167 107.5,344.5C 109.604,344.799 111.604,344.466 113.5,343.5C 115.726,341.278 118.392,339.944 121.5,339.5C 121.833,339.5 122.167,339.5 122.5,339.5C 121.969,341.624 120.635,343.124 118.5,344C 114.249,345.195 109.915,345.695 105.5,345.5C 105.5,331.167 105.5,316.833 105.5,302.5C 108.85,302.335 112.183,302.502 115.5,303C 118.025,303.424 120.025,304.59 121.5,306.5 Z"/></g>
<g><path style="opacity:1" fill="#efcc65" d="M 57.5,271.5 C 82.9967,270.337 108.663,270.17 134.5,271C 135.056,271.383 135.389,271.883 135.5,272.5C 109.848,271.578 84.1818,271.244 58.5,271.5C 58.1667,271.5 57.8333,271.5 57.5,271.5 Z"/></g>
<g><path style="opacity:1" fill="#f3c856" d="M 334.5,353.5 C 329.922,370.833 324.589,387.833 318.5,404.5C 318.841,400.291 319.508,396.125 320.5,392C 320.167,391.167 319.833,390.333 319.5,389.5C 318.719,390.729 318.219,392.062 318,393.5C 317.311,392.643 316.478,391.977 315.5,391.5C 311.52,397.644 311.687,403.644 316,409.5C 316.122,407.563 316.955,406.23 318.5,405.5C 317.347,409.111 316.347,412.777 315.5,416.5C 314.664,412.35 313.164,408.35 311,404.5C 309.502,407.967 308.502,411.634 308,415.5C 307.292,416.381 306.458,417.047 305.5,417.5C 309.724,401.168 314.724,385.168 320.5,369.5C 320.15,372.722 319.483,375.888 318.5,379C 318.935,382.063 319.768,382.23 321,379.5C 321.667,380.833 322.667,381.833 324,382.5C 324.462,379.911 323.629,377.744 321.5,376C 322.137,374.287 323.137,374.121 324.5,375.5C 325.48,374.019 326.647,372.685 328,371.5C 328.779,369.094 327.946,367.427 325.5,366.5C 330.833,365.167 330.833,363.833 325.5,362.5C 327.167,361.833 328.833,361.167 330.5,360.5C 329.109,358.064 329.609,357.398 332,358.5C 332.374,356.509 333.207,354.842 334.5,353.5 Z"/></g>
<g><path style="opacity:1" fill="#4f3f0e" d="M 403.5,345.5 C 414.167,345.5 424.833,345.5 435.5,345.5C 435.5,358.167 435.5,370.833 435.5,383.5C 424.833,383.5 414.167,383.5 403.5,383.5C 413.653,382.506 423.986,382.172 434.5,382.5C 434.5,370.5 434.5,358.5 434.5,346.5C 423.986,346.828 413.653,346.494 403.5,345.5 Z"/></g>
<g><path style="opacity:1" fill="#eac85d" d="M 119.5,377.5 C 115.548,376.728 111.548,376.395 107.5,376.5C 107.831,406.338 107.498,436.005 106.5,465.5C 106.5,435.5 106.5,405.5 106.5,375.5C 109.304,374.362 112.304,374.195 115.5,375C 117.32,375.2 118.653,376.034 119.5,377.5 Z"/></g>
<g><path style="opacity:1" fill="#face4b" d="M 278.5,347.5 C 271.359,370.255 264.026,392.922 256.5,415.5C 254.903,416.737 253.737,418.404 253,420.5C 252.106,424.61 250.939,428.61 249.5,432.5C 248.698,433.952 248.198,435.618 248,437.5C 247.586,437.043 247.086,436.709 246.5,436.5C 244.145,440.773 243.145,440.439 243.5,435.5C 243.649,433.68 244.316,432.18 245.5,431C 244.594,429.301 244.261,427.467 244.5,425.5C 247.487,425.578 248.153,424.411 246.5,422C 248.066,419.088 248.899,415.921 249,412.5C 249.718,413.451 250.551,413.617 251.5,413C 250.565,410.619 250.232,408.119 250.5,405.5C 257.897,380.643 265.897,355.977 274.5,331.5C 276,330.412 277.333,329.079 278.5,327.5C 280.264,330.177 281.43,329.844 282,326.5C 282.333,326.833 282.667,327.167 283,327.5C 282.997,329.856 282.497,332.189 281.5,334.5C 280.675,335.386 279.675,335.719 278.5,335.5C 278.5,339.5 278.5,343.5 278.5,347.5 Z"/></g>
<g><path style="opacity:1" fill="#fdcf44" d="M 318.5,404.5 C 318.5,404.833 318.5,405.167 318.5,405.5C 316.955,406.23 316.122,407.563 316,409.5C 311.687,403.644 311.52,397.644 315.5,391.5C 316.478,391.977 317.311,392.643 318,393.5C 318.219,392.062 318.719,390.729 319.5,389.5C 319.833,390.333 320.167,391.167 320.5,392C 319.508,396.125 318.841,400.291 318.5,404.5 Z"/></g>
<g><path style="opacity:1" fill="#f3cf60" d="M 403.5,383.5 C 414.167,383.5 424.833,383.5 435.5,383.5C 425.347,384.494 415.014,384.828 404.5,384.5C 404.5,397.833 404.5,411.167 404.5,424.5C 416.345,424.172 428.012,424.505 439.5,425.5C 427.5,425.5 415.5,425.5 403.5,425.5C 403.5,411.5 403.5,397.5 403.5,383.5 Z"/></g>
<g><path style="opacity:1" fill="#f0cd61" d="M 168.5,379.5 C 170.097,380.737 171.263,382.404 172,384.5C 172.83,411.336 172.664,438.003 171.5,464.5C 171.667,438.831 171.5,413.165 171,387.5C 169.856,384.92 169.022,382.253 168.5,379.5 Z"/></g>
<g><path style="opacity:0.22" fill="#e9c08e" d="M 413.5,417.5 C 413.5,417.167 413.5,416.833 413.5,416.5C 425.88,415.854 437.88,416.521 449.5,418.5C 437.58,417.521 425.58,417.188 413.5,417.5 Z"/></g>
<g><path style="opacity:0.012" fill="#ffa55b" d="M 343.5,416.5 C 344.043,416.56 344.376,416.893 344.5,417.5C 334.675,418.823 325.008,418.823 315.5,417.5C 325.015,417.827 334.348,417.494 343.5,416.5 Z"/></g>
<g><path style="opacity:1" fill="#ebcc65" d="M 305.5,417.5 C 305.037,420.482 304.704,423.482 304.5,426.5C 317.011,426.171 329.345,426.505 341.5,427.5C 328.5,427.5 315.5,427.5 302.5,427.5C 302.723,423.838 303.723,420.505 305.5,417.5 Z"/></g>
<g><path style="opacity:1" fill="#554201" d="M 403.5,425.5 C 415.5,425.5 427.5,425.5 439.5,425.5C 440.833,438.5 440.833,451.5 439.5,464.5C 439.5,451.833 439.5,439.167 439.5,426.5C 427.322,426.828 415.322,426.495 403.5,425.5 Z"/></g>
<g><path style="opacity:0.277" fill="#f1cb6c" d="M 413.5,417.5 C 425.58,417.188 437.58,417.521 449.5,418.5C 449.667,436.836 449.5,455.17 449,473.5C 448.329,474.252 447.496,474.586 446.5,474.5C 445.833,473.833 445.167,473.167 444.5,472.5C 445.833,472.5 447.167,472.5 448.5,472.5C 448.667,454.83 448.5,437.164 448,419.5C 436.402,418.843 424.902,418.176 413.5,417.5 Z"/></g>
<g><path style="opacity:1" fill="#ddbf65" d="M 256.5,415.5 C 250.874,430.945 248.874,446.945 250.5,463.5C 250.167,463.5 249.833,463.5 249.5,463.5C 249.5,453.167 249.5,442.833 249.5,432.5C 250.939,428.61 252.106,424.61 253,420.5C 253.737,418.404 254.903,416.737 256.5,415.5 Z"/></g>
<g><path style="opacity:1" fill="#88722f" d="M 57.5,271.5 C 57.8333,271.5 58.1667,271.5 58.5,271.5C 58.5,335.833 58.5,400.167 58.5,464.5C 74.1667,464.5 89.8333,464.5 105.5,464.5C 105.169,434.662 105.502,404.995 106.5,375.5C 106.5,405.5 106.5,435.5 106.5,465.5C 90.1667,465.5 73.8333,465.5 57.5,465.5C 57.5,400.833 57.5,336.167 57.5,271.5 Z"/></g>
<g><path style="opacity:1" fill="#8c7531" d="M 124.5,388.5 C 125.498,413.661 125.831,438.995 125.5,464.5C 140.833,464.5 156.167,464.5 171.5,464.5C 156.009,465.496 140.342,465.83 124.5,465.5C 124.5,439.833 124.5,414.167 124.5,388.5 Z"/></g>
<g><path style="opacity:0.931" fill="#fcdc6a" d="M 250.5,405.5 C 250.232,408.119 250.565,410.619 251.5,413C 250.551,413.617 249.718,413.451 249,412.5C 248.899,415.921 248.066,419.088 246.5,422C 248.153,424.411 247.487,425.578 244.5,425.5C 244.261,427.467 244.594,429.301 245.5,431C 244.316,432.18 243.649,433.68 243.5,435.5C 243.145,440.439 244.145,440.773 246.5,436.5C 247.086,436.709 247.586,437.043 248,437.5C 248.198,435.618 248.698,433.952 249.5,432.5C 249.5,442.833 249.5,453.167 249.5,463.5C 248.833,457.654 248.167,451.654 247.5,445.5C 246.5,446.833 245.5,446.833 244.5,445.5C 243.501,454.478 242.835,463.478 242.5,472.5C 309.833,472.5 377.167,472.5 444.5,472.5C 445.167,473.167 445.833,473.833 446.5,474.5C 378.167,474.5 309.833,474.5 241.5,474.5C 240.376,459.841 240.542,445.174 242,430.5C 244.368,421.894 247.201,413.561 250.5,405.5 Z"/></g>
</svg>
